<svg width="52" height="45" viewBox="0 0 52 45" fill="none" xmlns="http://www.w3.org/2000/svg">
<g clip-path="url(#clip0_231_1899)">
<path d="M52 22.6376C52 10.1352 40.3594 0 26 0C11.6406 0 0 10.1352 0 22.6376C0 33.9366 9.50782 43.3018 21.9375 45V29.1812H15.3359V22.6376H21.9375V17.6502C21.9375 11.9767 25.8191 8.84279 31.758 8.84279C34.6027 8.84279 37.5781 9.28493 37.5781 9.28493V14.8559H34.2995C31.0697 14.8559 30.0625 16.6009 30.0625 18.3911V22.6376H37.2734L36.1207 29.1812H30.0625V45C42.4922 43.3018 52 33.9366 52 22.6376Z" fill="#1877F2"/>
<path d="M36.1207 29.0039L37.2734 22.5H30.0625V18.2794C30.0625 16.5 31.0697 14.7656 34.2995 14.7656H37.5781V9.22852C37.5781 9.22852 34.6027 8.78906 31.758 8.78906C25.8191 8.78906 21.9375 11.9039 21.9375 17.543V22.5H15.3359V29.0039H21.9375V44.7266C24.6294 45.0911 27.3706 45.0911 30.0625 44.7266V29.0039H36.1207Z" fill="white"/>
</g>
<defs>
<clipPath id="clip0_231_1899">
<rect width="52" height="45" fill="white"/>
</clipPath>
</defs>
</svg>
