<svg width="50" height="50" viewBox="0 0 50 50" fill="none" xmlns="http://www.w3.org/2000/svg">
<path d="M21.875 9.37518L23.4375 6.25012L26.5625 4.68759L23.4375 3.12506L21.875 0L20.3125 3.12506L17.1875 4.68759L20.3125 6.25012L21.875 9.37518ZM7.8125 15.6253L10.416 10.4172L15.625 7.81265L10.416 5.20811L7.8125 0L5.20898 5.20811L0 7.81265L5.20898 10.4172L7.8125 15.6253ZM42.1875 28.1255L39.584 33.3337L34.375 35.9382L39.584 38.5427L42.1875 43.7509L44.791 38.5427L50 35.9382L44.791 33.3337L42.1875 28.1255ZM49.084 9.20233L40.7979 0.916034C40.1885 0.304693 39.3887 0 38.5889 0C37.7891 0 36.9893 0.304693 36.3789 0.916034L0.916016 36.3796C-0.304688 37.6003 -0.304688 39.5789 0.916016 40.7986L9.20215 49.0849C9.8125 49.6953 10.6123 50 11.4111 50C12.2109 50 13.0107 49.6953 13.6211 49.0849L49.084 13.6204C50.3047 12.4016 50.3047 10.4221 49.084 9.20233ZM35.1025 19.8695L30.1309 14.8978L38.5879 6.44056L43.5596 11.4123L35.1025 19.8695Z" fill="#6C63FF"/>
</svg>
