<svg width="50" height="38" viewBox="0 0 50 38" fill="none" xmlns="http://www.w3.org/2000/svg">
<path d="M45.3125 0H4.6875C2.09863 0 0 2.09863 0 4.6875V32.8125C0 35.4014 2.09863 37.5 4.6875 37.5H45.3125C47.9014 37.5 50 35.4014 50 32.8125V4.6875C50 2.09863 47.9014 0 45.3125 0ZM44.7266 32.8125H5.27344C5.11804 32.8125 4.969 32.7508 4.85912 32.6409C4.74923 32.531 4.6875 32.382 4.6875 32.2266V5.27344C4.6875 5.11804 4.74923 4.969 4.85912 4.85912C4.969 4.74923 5.11804 4.6875 5.27344 4.6875H44.7266C44.882 4.6875 45.031 4.74923 45.1409 4.85912C45.2508 4.969 45.3125 5.11804 45.3125 5.27344V32.2266C45.3125 32.382 45.2508 32.531 45.1409 32.6409C45.031 32.7508 44.882 32.8125 44.7266 32.8125ZM12.5 8.59375C10.3427 8.59375 8.59375 10.3427 8.59375 12.5C8.59375 14.6573 10.3427 16.4062 12.5 16.4062C14.6573 16.4062 16.4062 14.6573 16.4062 12.5C16.4062 10.3427 14.6573 8.59375 12.5 8.59375ZM9.375 28.125H40.625V20.3125L32.0786 11.7661C31.621 11.3085 30.879 11.3085 30.4213 11.7661L18.75 23.4375L14.8911 19.5786C14.4335 19.121 13.6915 19.121 13.2338 19.5786L9.375 23.4375V28.125Z" fill="#6C63FF"/>
</svg>
