<svg width="299" height="270" viewBox="0 0 299 270" fill="none" xmlns="http://www.w3.org/2000/svg">
<g clip-path="url(#clip0_281_429)">
<path d="M285.788 164.923C285.46 165.625 285.118 166.315 284.765 167C271.221 193.258 239.713 209.565 186.577 200.934C156.407 195.8 143.559 214.63 131.117 233.917C130.904 234.25 130.692 234.583 130.475 234.915C117.447 255.141 104.547 275.422 72.2941 268.68C38.1016 262.664 16.9995 231.771 13.7341 198.788C13.6944 198.387 13.6585 197.982 13.6259 197.581C11.7915 176.197 17.4608 154.054 31.9241 137.338C40.6606 127.244 53.0732 121.882 65.8858 122.05C69.7436 122.13 73.5997 121.812 77.4046 121.1C78.2444 120.935 79.059 120.755 79.8519 120.55C96.175 116.399 103.697 104.059 108.31 88.999C108.418 88.6421 108.526 88.2851 108.631 87.9242C119.223 52.0096 114.325 1.60076 171.912 9.0163C223.444 13.2434 261.262 45.0392 279.813 81.7238C279.997 82.0928 280.18 82.4618 280.361 82.8307C285.459 93.0095 289.098 104.012 291.144 115.441C291.26 116.082 291.364 116.724 291.461 117.366C294.085 134.403 292.366 150.962 285.788 164.923Z" fill="#F2F2F2"/>
<path d="M280.361 82.8307C276.663 87.7202 272.498 92.146 267.937 96.0295C250.172 111.189 227.672 119.411 205.474 121.136C194.066 122.028 182.602 121.162 171.408 118.561C160.019 115.906 149.156 111.23 138.635 105.767C128.403 100.453 118.474 94.4613 108.31 88.999C108.418 88.642 108.526 88.2851 108.631 87.9241C119.714 93.8598 130.569 100.401 141.782 106.056C152.345 111.386 163.28 115.733 174.716 118.06C186.126 120.365 197.771 120.872 209.309 119.567C231.445 117.089 253.964 108.001 270.983 91.7422C274.178 88.6898 277.132 85.3381 279.813 81.7238C279.997 82.0928 280.18 82.4618 280.361 82.8307Z" fill="white"/>
<path d="M203.448 0.377242C203.422 0.377242 203.396 0.378158 203.371 0.379995C176.054 2.28435 154.657 27.6564 154.657 58.1421C154.657 88.628 176.054 114 203.371 115.904C203.534 115.916 203.697 115.891 203.851 115.829C204.005 115.768 204.146 115.671 204.265 115.546C204.384 115.424 204.478 115.275 204.542 115.109C204.607 114.944 204.64 114.765 204.639 114.585V1.69921C204.638 1.34827 204.512 1.01198 204.289 0.764145C204.066 0.516305 203.763 0.377154 203.448 0.377228L203.448 0.377242Z" fill="#CCCCCC"/>
<path d="M245.213 96.7155C244.808 96.7151 244.42 96.5362 244.133 96.218L208.813 56.9155C208.671 56.7583 208.559 56.5713 208.482 56.3654C208.405 56.1594 208.366 55.9385 208.366 55.7156V1.69926C208.366 1.46748 208.408 1.23801 208.491 1.0253C208.573 0.812589 208.695 0.621233 208.847 0.46327C209 0.303349 209.181 0.180045 209.378 0.100995C209.576 0.0219457 209.786 -0.0111634 209.995 0.00370931C237.489 1.92037 259.027 27.4579 259.027 58.1421C259.027 72.0801 254.537 85.5563 246.37 96.1245C246.233 96.3015 246.064 96.4453 245.875 96.5468C245.686 96.6482 245.48 96.7053 245.269 96.7144C245.251 96.7151 245.232 96.7155 245.213 96.7155Z" fill="#CCCCCC"/>
<path d="M209.898 116.284C209.508 116.284 209.133 116.118 208.848 115.822C208.695 115.664 208.574 115.472 208.491 115.259C208.408 115.046 208.366 114.817 208.366 114.585V65.8477C208.366 65.5121 208.456 65.1841 208.623 64.9051C208.791 64.6261 209.029 64.4086 209.308 64.2802C209.586 64.1518 209.893 64.1181 210.189 64.1836C210.485 64.249 210.756 64.4106 210.97 64.6478L241.79 98.9441C241.937 99.1072 242.052 99.3017 242.128 99.5159C242.205 99.73 242.242 99.9592 242.237 100.19C242.231 100.42 242.184 100.647 242.097 100.856C242.011 101.066 241.887 101.254 241.733 101.408C232.958 110.199 221.775 115.439 209.992 116.281C209.961 116.283 209.929 116.284 209.898 116.284Z" fill="#6C63FF"/>
<path d="M291.461 117.366C286.517 127.123 279.535 135.73 271.541 142.552C253.777 157.712 231.276 165.934 209.078 167.658C197.67 168.551 186.206 167.684 175.012 165.083C163.623 162.428 152.76 157.752 142.239 152.29C131.528 146.727 121.145 140.418 110.48 134.752C99.8261 129.089 88.8766 124.26 77.4047 121.1C78.2445 120.935 79.0591 120.755 79.8519 120.55C80.6016 120.767 81.3489 120.991 82.0937 121.224C104.526 128.202 124.323 141.954 145.386 152.578C155.95 157.909 166.884 162.256 178.32 164.582C189.731 166.887 201.376 167.395 212.913 166.09C235.05 163.612 257.568 154.524 274.587 138.265C281.323 131.857 286.937 124.119 291.144 115.441C291.26 116.082 291.364 116.724 291.461 117.366Z" fill="white"/>
<path d="M68.7585 203.039C90.859 209.914 110.401 223.365 131.117 233.917C130.904 234.25 130.692 234.583 130.476 234.915C129.949 234.647 129.427 234.378 128.904 234.105C118.193 228.543 107.809 222.234 97.1445 216.567C86.2637 210.784 75.0765 205.871 63.3378 202.715C47.1118 198.365 30.3501 197.039 13.7342 198.788C13.6944 198.387 13.6585 197.982 13.626 197.581C32.1488 195.635 50.8353 197.485 68.7585 203.039Z" fill="white"/>
<path d="M157.586 241.736H0.412529C0.30312 241.736 0.198191 241.688 0.120827 241.602C0.0434625 241.516 0 241.399 0 241.277C0 241.155 0.0434625 241.039 0.120827 240.952C0.198191 240.866 0.30312 240.818 0.412529 240.818H157.586C157.696 240.818 157.801 240.866 157.878 240.952C157.955 241.039 157.999 241.155 157.999 241.277C157.999 241.399 157.955 241.516 157.878 241.602C157.801 241.688 157.696 241.736 157.586 241.736Z" fill="#CCCCCC"/>
<path d="M63.9913 179.808C69.5871 179.808 74.1234 174.76 74.1234 168.533C74.1234 162.307 69.5871 157.259 63.9913 157.259C58.3954 157.259 53.8591 162.307 53.8591 168.533C53.8591 174.76 58.3954 179.808 63.9913 179.808Z" fill="#A0616A"/>
<path d="M101.903 248.09L102.139 253.712L82.7654 257.402L82.4164 249.106L101.903 248.09Z" fill="#A0616A"/>
<path d="M106.739 246.401L107.277 259.181L107.071 259.192C105.479 259.308 103.894 258.881 102.526 257.968C101.289 257.091 100.577 255.877 100.521 254.548V254.548L100.193 246.742L106.739 246.401Z" fill="#2F2E41"/>
<path d="M101.361 257.34L106.418 257.34L108.824 235.632L101.36 235.633L101.361 257.34Z" fill="#A0616A"/>
<path d="M100.071 255.503L110.031 255.502H110.031C110.865 255.502 111.69 255.685 112.46 256.04C113.23 256.395 113.93 256.915 114.519 257.571C115.109 258.227 115.576 259.006 115.895 259.862C116.214 260.719 116.378 261.638 116.378 262.565V262.795L100.071 262.796L100.071 255.503Z" fill="#2F2E41"/>
<path d="M53.6133 252.082C54.1674 251.708 54.6412 251.204 55.0012 250.605C55.3613 250.005 55.5989 249.325 55.6972 248.613C55.7956 247.9 55.7524 247.172 55.5706 246.48C55.3888 245.788 55.0728 245.149 54.645 244.608L58.6817 199.917L49.0676 200.665L48.1228 244.359C47.3531 245.219 46.8936 246.364 46.8315 247.575C46.7693 248.787 47.1088 249.982 47.7856 250.934C48.4623 251.886 49.4294 252.529 50.5035 252.74C51.5776 252.952 52.6841 252.718 53.6133 252.082V252.082Z" fill="#A0616A"/>
<path d="M58.6347 207.664L48.6725 206.313C48.389 206.275 48.1163 206.169 47.873 206.002C47.6297 205.836 47.4214 205.613 47.2624 205.349C47.1034 205.086 46.9974 204.787 46.9515 204.473C46.9057 204.159 46.9212 203.838 46.9969 203.532L49.6497 192.797C49.8346 191.184 50.5867 189.719 51.741 188.722C52.8953 187.725 54.3577 187.279 55.8075 187.48C57.2572 187.682 58.5761 188.515 59.4748 189.796C60.3735 191.078 60.7788 192.704 60.6017 194.318L60.8615 205.412C60.8689 205.73 60.8146 206.045 60.7024 206.338C60.5902 206.63 60.4228 206.892 60.2115 207.105C60.0002 207.319 59.7499 207.48 59.4778 207.576C59.2057 207.672 58.9182 207.702 58.6347 207.664Z" fill="#6C63FF"/>
<path d="M57.2412 258.412C56.034 258.32 54.8699 257.875 53.8667 257.123C52.8636 256.37 52.0568 255.335 51.5279 254.124C50.9991 252.913 50.7669 251.568 50.8549 250.225C50.9428 248.882 51.3479 247.589 52.029 246.476L58.5363 238.959L82.2567 215.318L94.9381 203.608C95.678 202.925 96.5618 202.462 97.5065 202.262C98.4512 202.063 99.4259 202.134 100.339 202.468C101.253 202.803 102.075 203.39 102.728 204.174C103.382 204.959 103.846 205.916 104.077 206.954L110.702 236.778C110.813 237.274 110.755 237.799 110.538 238.25C110.321 238.7 109.961 239.046 109.529 239.218L102.306 242.111C102.064 242.208 101.807 242.248 101.55 242.228C101.294 242.209 101.044 242.13 100.816 241.998C100.588 241.865 100.388 241.681 100.227 241.458C100.067 241.234 99.9496 240.976 99.8834 240.7L97.1359 229.235L81.8484 245.497L86.6181 247.451C87.0555 247.632 87.4159 247.99 87.628 248.453C87.8401 248.915 87.8885 249.45 87.7635 249.95L86.2222 256.027C86.1158 256.451 85.8902 256.825 85.5783 257.096C85.2665 257.367 84.8849 257.519 84.4896 257.53L57.2412 258.412Z" fill="#2F2E41"/>
<path d="M56.5932 241.461L55.9657 215.96L52.0078 204.774C51.1997 202.492 50.8496 200.041 50.9819 197.593C51.1142 195.145 51.7258 192.758 52.7738 190.6C53.8219 188.443 55.2811 186.566 57.0493 185.101C58.8175 183.637 60.8519 182.62 63.0102 182.122C63.3361 182.047 63.6609 181.973 63.9849 181.902C66.0553 181.445 68.1888 181.475 70.2481 181.99C72.3075 182.505 74.2471 183.495 75.9421 184.895C77.6372 186.294 79.0502 188.073 80.0902 190.117C81.1302 192.161 81.7741 194.425 81.9806 196.762L83.8406 215.961L83.833 215.998C80.8673 230.677 72.2853 238.756 56.8246 241.422L56.5932 241.461Z" fill="#6C63FF"/>
<path d="M65.9538 223.747C66.1794 223.709 66.4074 223.69 66.6357 223.691L78.0872 204.826L75.9184 199.849L82.2397 195.226L86.8484 203.62C87.2207 204.298 87.3853 205.092 87.3174 205.884C87.2496 206.675 86.9529 207.42 86.472 208.007L70.7991 227.156C71.0453 228.095 71.0286 229.096 70.7513 230.024C70.4739 230.953 69.9491 231.766 69.2466 232.354C68.5441 232.943 67.6972 233.279 66.8186 233.319C65.9399 233.359 65.0712 233.101 64.3279 232.578C63.5846 232.055 63.002 231.292 62.6576 230.392C62.3131 229.492 62.2231 228.496 62.3996 227.537C62.5762 226.579 63.0107 225.703 63.6456 225.026C64.2805 224.349 65.0856 223.903 65.9538 223.747Z" fill="#A0616A"/>
<path d="M77.085 204.475C76.8281 204.395 76.5896 204.255 76.3859 204.063C76.1822 203.871 76.0181 203.633 75.9048 203.364L71.9443 193.98C71.1892 192.715 70.9156 191.168 71.1835 189.679C71.4513 188.19 72.2389 186.88 73.3734 186.036C74.5079 185.192 75.8969 184.883 77.2358 185.177C78.5748 185.47 79.7544 186.343 80.5162 187.603L86.7736 195.33C86.9522 195.55 87.0859 195.811 87.1658 196.094C87.2456 196.378 87.2696 196.677 87.2362 196.971C87.2028 197.266 87.1128 197.549 86.9722 197.801C86.8317 198.053 86.6439 198.269 86.4217 198.433L78.612 204.206C78.3898 204.371 78.1384 204.48 77.8749 204.526C77.6113 204.572 77.3419 204.555 77.085 204.475Z" fill="#6C63FF"/>
<path d="M198.378 177.279H164.935C164.453 177.279 163.99 177.066 163.649 176.687C163.309 176.307 163.117 175.793 163.117 175.257C163.117 174.72 163.309 174.206 163.649 173.826C163.99 173.447 164.453 173.234 164.935 173.234H198.378C198.86 173.234 199.323 173.447 199.664 173.826C200.005 174.206 200.196 174.72 200.196 175.257C200.196 175.793 200.005 176.307 199.664 176.687C199.323 177.066 198.86 177.279 198.378 177.279Z" fill="#CCCCCC"/>
<path d="M154.938 179.302C154.183 179.302 153.445 179.053 152.817 178.586C152.19 178.119 151.7 177.456 151.412 176.68C151.123 175.904 151.047 175.05 151.194 174.226C151.342 173.402 151.705 172.645 152.239 172.051C152.773 171.457 153.453 171.052 154.193 170.889C154.934 170.725 155.701 170.809 156.399 171.13C157.096 171.452 157.692 171.996 158.112 172.695C158.531 173.393 158.755 174.214 158.755 175.054C158.754 176.18 158.351 177.26 157.636 178.056C156.92 178.852 155.95 179.3 154.938 179.302Z" fill="#3F3D56"/>
<path d="M198.378 189.414H164.935C164.453 189.414 163.99 189.201 163.649 188.822C163.309 188.443 163.117 187.928 163.117 187.392C163.117 186.855 163.309 186.341 163.649 185.962C163.99 185.582 164.453 185.369 164.935 185.369H198.378C198.86 185.369 199.323 185.582 199.664 185.962C200.005 186.341 200.196 186.855 200.196 187.392C200.196 187.928 200.005 188.443 199.664 188.822C199.323 189.201 198.86 189.414 198.378 189.414Z" fill="#CCCCCC"/>
<path d="M154.938 191.437C154.183 191.437 153.445 191.188 152.817 190.721C152.19 190.255 151.7 189.591 151.411 188.815C151.123 188.039 151.047 187.185 151.194 186.361C151.341 185.537 151.705 184.78 152.239 184.186C152.773 183.592 153.453 183.188 154.193 183.024C154.934 182.86 155.701 182.944 156.398 183.266C157.096 183.587 157.692 184.131 158.111 184.83C158.531 185.528 158.755 186.35 158.755 187.19C158.754 188.316 158.351 189.395 157.636 190.192C156.92 190.988 155.95 191.436 154.938 191.437Z" fill="#3F3D56"/>
<path d="M198.378 201.55H164.935C164.453 201.55 163.99 201.337 163.649 200.957C163.309 200.578 163.117 200.064 163.117 199.527C163.117 198.991 163.309 198.476 163.649 198.097C163.99 197.718 164.453 197.505 164.935 197.505H198.378C198.86 197.505 199.323 197.718 199.664 198.097C200.005 198.476 200.196 198.991 200.196 199.527C200.196 200.064 200.005 200.578 199.664 200.957C199.323 201.337 198.86 201.55 198.378 201.55Z" fill="#CCCCCC"/>
<path d="M154.938 203.572C154.183 203.572 153.445 203.323 152.817 202.857C152.19 202.39 151.7 201.727 151.412 200.95C151.123 200.174 151.047 199.32 151.194 198.496C151.342 197.672 151.705 196.916 152.239 196.322C152.773 195.728 153.453 195.323 154.193 195.159C154.934 194.995 155.701 195.079 156.399 195.401C157.096 195.722 157.692 196.267 158.112 196.965C158.531 197.664 158.755 198.485 158.755 199.325C158.754 200.451 158.351 201.531 157.636 202.327C156.92 203.123 155.95 203.571 154.938 203.572Z" fill="#3F3D56"/>
<path d="M207.987 187.337H221.801C221.897 187.337 221.99 187.295 222.058 187.219C222.126 187.143 222.164 187.04 222.164 186.933V91.9045C222.164 91.7972 222.126 91.6943 222.058 91.6185C221.99 91.5426 221.897 91.5 221.801 91.5C221.705 91.5 221.612 91.5426 221.544 91.6185C221.476 91.6943 221.437 91.7972 221.437 91.9045V186.528H207.987C207.939 186.528 207.892 186.538 207.848 186.559C207.803 186.579 207.763 186.609 207.729 186.646C207.695 186.684 207.669 186.729 207.65 186.778C207.632 186.827 207.622 186.88 207.622 186.933C207.622 186.986 207.632 187.039 207.65 187.088C207.669 187.137 207.695 187.182 207.729 187.219C207.763 187.257 207.803 187.287 207.848 187.307C207.892 187.327 207.939 187.338 207.987 187.337Z" fill="#3F3D56"/>
<path d="M267.179 29.795C266.256 29.8778 265.331 29.654 264.521 29.1518C263.712 28.6496 263.055 27.8916 262.632 26.9737C262.21 26.0558 262.042 25.0191 262.149 23.9949C262.256 22.9706 262.634 22.0048 263.235 21.2194C263.835 20.4341 264.632 19.8645 265.523 19.5828C266.414 19.301 267.361 19.3198 268.243 19.6366C269.125 19.9535 269.902 20.5542 270.477 21.3628C271.052 22.1714 271.399 23.1516 271.473 24.1795C271.573 25.5578 271.177 26.9237 270.371 27.9769C269.566 29.03 268.418 29.684 267.179 29.795ZM267.121 28.9955C267.903 28.9254 268.648 28.5991 269.263 28.0576C269.878 27.5162 270.335 26.784 270.576 25.9537C270.817 25.1233 270.831 24.2322 270.617 23.3928C270.403 22.5535 269.969 21.8037 269.372 21.2382C268.775 20.6728 268.041 20.3171 267.262 20.2161C266.483 20.1152 265.695 20.2735 264.997 20.671C264.299 21.0686 263.722 21.6876 263.34 22.4496C262.959 23.2117 262.788 24.0827 262.851 24.9524C262.893 25.5298 263.037 26.0925 263.274 26.6082C263.511 27.1239 263.837 27.5826 264.234 27.958C264.63 28.3335 265.089 28.6183 265.585 28.7964C266.08 28.9744 266.602 29.0421 267.121 28.9955V28.9955Z" fill="#CCCCCC"/>
<path d="M283.313 16.4171C284.905 16.4171 286.196 14.9806 286.196 13.2086C286.196 11.4366 284.905 10.0002 283.313 10.0002C281.72 10.0002 280.43 11.4366 280.43 13.2086C280.43 14.9806 281.72 16.4171 283.313 16.4171Z" fill="#CCCCCC"/>
<path d="M297.485 4.81385C298.322 4.81385 299 4.05929 299 3.12848C299 2.19768 298.322 1.44312 297.485 1.44312C296.649 1.44312 295.971 2.19768 295.971 3.12848C295.971 4.05929 296.649 4.81385 297.485 4.81385Z" fill="#CCCCCC"/>
<path d="M245.164 132.417C244.653 133.278 243.924 133.95 243.07 134.35C242.216 134.749 241.274 134.858 240.364 134.662C239.455 134.466 238.618 133.974 237.959 133.249C237.3 132.523 236.85 131.597 236.664 130.587C236.479 129.576 236.567 128.528 236.917 127.573C237.267 126.618 237.864 125.8 238.632 125.223C239.4 124.646 240.304 124.335 241.231 124.33C242.157 124.324 243.065 124.625 243.838 125.193C244.873 125.957 245.595 127.146 245.843 128.5C246.092 129.855 245.848 131.263 245.164 132.417ZM237.947 127.111C237.515 127.839 237.286 128.693 237.29 129.566C237.294 130.438 237.531 131.29 237.97 132.013C238.409 132.736 239.031 133.298 239.757 133.628C240.483 133.957 241.28 134.04 242.048 133.866C242.817 133.691 243.521 133.267 244.073 132.647C244.624 132.026 244.998 131.238 245.147 130.382C245.296 129.525 245.214 128.638 244.91 127.834C244.606 127.03 244.095 126.344 243.44 125.863C242.563 125.219 241.492 124.989 240.462 125.223C239.432 125.457 238.528 126.136 237.947 127.111Z" fill="#CCCCCC"/>
<path d="M250.777 151.592C252.369 151.592 253.66 150.156 253.66 148.384C253.66 146.612 252.369 145.175 250.777 145.175C249.185 145.175 247.894 146.612 247.894 148.384C247.894 150.156 249.185 151.592 250.777 151.592Z" fill="#CCCCCC"/>
<path d="M258.82 166.508C259.656 166.508 260.334 165.753 260.334 164.822C260.334 163.891 259.656 163.137 258.82 163.137C257.983 163.137 257.305 163.891 257.305 164.822C257.305 165.753 257.983 166.508 258.82 166.508Z" fill="#CCCCCC"/>
<path d="M128.824 44.8521C128.411 43.9286 128.254 42.8898 128.372 41.8671C128.491 40.8443 128.879 39.8835 129.487 39.1062C130.096 38.3288 130.899 37.7698 131.793 37.4999C132.687 37.23 133.634 37.2612 134.512 37.5897C135.39 37.9182 136.162 38.5292 136.728 39.3453C137.294 40.1615 137.63 41.1462 137.694 42.175C137.757 43.2038 137.545 44.2304 137.084 45.1249C136.623 46.0195 135.934 46.742 135.105 47.2009C133.992 47.8146 132.705 47.912 131.528 47.4717C130.35 47.0314 129.378 46.0893 128.824 44.8521ZM136.57 40.5686C136.221 39.7872 135.672 39.1385 134.991 38.7046C134.311 38.2706 133.53 38.0708 132.748 38.1306C131.966 38.1903 131.217 38.5068 130.596 39.04C129.976 39.5733 129.511 40.2994 129.261 41.1265C129.012 41.9536 128.988 42.8445 129.193 43.6866C129.398 44.5287 129.823 45.2842 130.415 45.8575C131.006 46.4308 131.736 46.7962 132.514 46.9074C133.292 47.0187 134.082 46.8708 134.784 46.4825C135.725 45.9608 136.441 45.0452 136.776 43.9365C137.111 42.8278 137.036 41.6166 136.57 40.5686Z" fill="#CCCCCC"/>
<path d="M113.596 45.451C115.189 45.451 116.48 44.0145 116.48 42.2425C116.48 40.4705 115.189 39.0341 113.596 39.0341C112.004 39.0341 110.713 40.4705 110.713 42.2425C110.713 44.0145 112.004 45.451 113.596 45.451Z" fill="#CCCCCC"/>
<path d="M96.7822 43.4199C97.6186 43.4199 98.2967 42.6653 98.2967 41.7345C98.2967 40.8037 97.6186 40.0491 96.7822 40.0491C95.9457 40.0491 95.2676 40.8037 95.2676 41.7345C95.2676 42.6653 95.9457 43.4199 96.7822 43.4199Z" fill="#CCCCCC"/>
<path d="M74.6986 169.52L74.2763 168.322C73.1111 165.018 70.325 162.478 67.3433 162.001C65.8557 161.785 64.3433 162.043 62.9822 162.745C61.6211 163.447 60.4671 164.565 59.6545 165.968C58.9648 167.3 58.4203 168.718 58.0325 170.193C57.8996 170.632 57.7656 170.95 57.5083 171.046C57.2186 171.162 56.9303 170.963 56.4525 170.634C56.346 170.56 56.2228 170.522 56.0975 170.523C55.9722 170.525 55.8499 170.566 55.7448 170.642C55.6396 170.718 55.5561 170.826 55.5039 170.952C55.4517 171.079 55.433 171.22 55.4499 171.358L55.951 175.338L55.5317 174.923C52.8038 172.221 52.2434 167.137 54.214 163.911L49.7292 164.936L49.9313 164.507C51.7939 160.507 55.0042 157.49 58.8602 156.116L54.5645 155.063L54.9987 154.766C58.8456 152.129 63.9206 152.203 67.9272 154.951C69.9394 156.385 71.6061 158.345 72.7821 160.66C73.9581 162.975 74.6077 165.575 74.6745 168.233L74.6986 169.52Z" fill="#2F2E41"/>
</g>
<defs>
<clipPath id="clip0_281_429">
<rect width="299" height="270" fill="white"/>
</clipPath>
</defs>
</svg>
