<svg width="46" height="40" viewBox="0 0 46 40" fill="none" xmlns="http://www.w3.org/2000/svg">
<g clip-path="url(#clip0_231_1912)">
<path d="M31.625 0H14.375C10.5625 0 6.90618 1.31696 4.21034 3.66117C1.5145 6.00537 0 9.18479 0 12.5L0 27.5C0 30.8152 1.5145 33.9946 4.21034 36.3388C6.90618 38.683 10.5625 40 14.375 40H31.625C35.4375 40 39.0938 38.683 41.7897 36.3388C44.4855 33.9946 46 30.8152 46 27.5V12.5C46 9.18479 44.4855 6.00537 41.7897 3.66117C39.0938 1.31696 35.4375 0 31.625 0V0ZM41.6875 27.5C41.6875 32.325 37.1737 36.25 31.625 36.25H14.375C8.82625 36.25 4.3125 32.325 4.3125 27.5V12.5C4.3125 7.675 8.82625 3.75 14.375 3.75H31.625C37.1737 3.75 41.6875 7.675 41.6875 12.5V27.5Z" fill="url(#paint0_linear_231_1912)"/>
<path d="M23 10C19.95 10 17.0249 11.0536 14.8683 12.9289C12.7116 14.8043 11.5 17.3478 11.5 20C11.5 22.6522 12.7116 25.1957 14.8683 27.0711C17.0249 28.9464 19.95 30 23 30C26.05 30 28.9751 28.9464 31.1317 27.0711C33.2884 25.1957 34.5 22.6522 34.5 20C34.5 17.3478 33.2884 14.8043 31.1317 12.9289C28.9751 11.0536 26.05 10 23 10ZM23 26.25C21.0945 26.248 19.2676 25.5889 17.9202 24.4172C16.5728 23.2456 15.8148 21.657 15.8125 20C15.8125 16.5525 19.0382 13.75 23 13.75C26.9618 13.75 30.1875 16.5525 30.1875 20C30.1875 23.445 26.9618 26.25 23 26.25Z" fill="url(#paint1_linear_231_1912)"/>
<path d="M35.3625 10.5825C36.2088 10.5825 36.8949 9.9859 36.8949 9.24998C36.8949 8.51406 36.2088 7.91748 35.3625 7.91748C34.5162 7.91748 33.8301 8.51406 33.8301 9.24998C33.8301 9.9859 34.5162 10.5825 35.3625 10.5825Z" fill="url(#paint2_linear_231_1912)"/>
</g>
<defs>
<linearGradient id="paint0_linear_231_1912" x1="4.209" y1="36.34" x2="36.5724" y2="-0.877912" gradientUnits="userSpaceOnUse">
<stop stop-color="#FFC107"/>
<stop offset="0.507" stop-color="#F44336"/>
<stop offset="0.99" stop-color="#9C27B0"/>
</linearGradient>
<linearGradient id="paint1_linear_231_1912" x1="14.8695" y1="27.07" x2="28.8725" y2="10.9665" gradientUnits="userSpaceOnUse">
<stop stop-color="#FFC107"/>
<stop offset="0.507" stop-color="#F44336"/>
<stop offset="0.99" stop-color="#9C27B0"/>
</linearGradient>
<linearGradient id="paint2_linear_231_1912" x1="34.2786" y1="10.1925" x2="36.1454" y2="8.04573" gradientUnits="userSpaceOnUse">
<stop stop-color="#FFC107"/>
<stop offset="0.507" stop-color="#F44336"/>
<stop offset="0.99" stop-color="#9C27B0"/>
</linearGradient>
<clipPath id="clip0_231_1912">
<rect width="46" height="40" fill="white"/>
</clipPath>
</defs>
</svg>
