<svg width="267" height="148" viewBox="0 0 267 148" fill="none" xmlns="http://www.w3.org/2000/svg">
<g clip-path="url(#clip0_276_1035)">
<path d="M71.3282 111.808C109.224 111.808 139.945 88.4965 139.945 59.7406C139.945 30.9846 109.224 7.67322 71.3282 7.67322C33.4321 7.67322 2.71118 30.9846 2.71118 59.7406C2.71118 88.4965 33.4321 111.808 71.3282 111.808Z" fill="#F2F2F2"/>
<path d="M184.512 58.8848L169.427 68.7254L145.783 84.1425L142.588 86.2273C142.295 86.4163 142.055 86.6475 141.881 86.9075C141.708 87.1675 141.604 87.4511 141.576 87.7419C141.534 88.1639 141.652 88.5862 141.915 88.9593C142.016 89.1 142.136 89.232 142.274 89.353L143.988 90.8677L146.597 93.1711C146.645 93.2118 146.69 93.2499 146.742 93.2885C147.263 93.6845 147.963 93.9165 148.7 93.938C149.437 93.9596 150.157 93.7691 150.717 93.4048L177.527 75.9246L192.644 66.065C193.231 65.6809 193.592 65.1361 193.65 64.5501C193.707 63.9641 193.457 63.3846 192.952 62.9387L192.04 62.1339L188.631 59.1232C188.382 58.9019 188.077 58.7203 187.735 58.5885C187.393 58.4568 187.02 58.3776 186.637 58.3554C186.254 58.3333 185.87 58.3687 185.505 58.4595C185.14 58.5503 184.803 58.6949 184.512 58.8848V58.8848Z" fill="#6C63FF"/>
<path d="M196.009 50.6054C209.292 50.6054 220.06 42.4346 220.06 32.3554C220.06 22.2762 209.292 14.1054 196.009 14.1054C182.726 14.1054 171.958 22.2762 171.958 32.3554C171.958 42.4346 182.726 50.6054 196.009 50.6054Z" fill="#6C63FF"/>
<path d="M197.776 103.226V145.172C197.777 145.76 198.085 146.324 198.633 146.739C199.18 147.155 199.923 147.388 200.697 147.389H207.33C208.104 147.388 208.847 147.155 209.395 146.739C209.942 146.324 210.25 145.76 210.251 145.172V103.226C210.25 102.638 209.942 102.075 209.395 101.659C208.847 101.244 208.104 101.01 207.33 101.01H200.697C199.923 101.01 199.18 101.244 198.633 101.659C198.085 102.075 197.777 102.638 197.776 103.226Z" fill="#2F2E41"/>
<path d="M183.76 103.226V145.172C183.76 145.463 183.835 145.752 183.982 146.021C184.129 146.29 184.344 146.534 184.615 146.74C184.887 146.946 185.209 147.109 185.563 147.22C185.917 147.332 186.297 147.389 186.681 147.389H193.314C194.088 147.388 194.831 147.155 195.378 146.739C195.926 146.324 196.234 145.76 196.235 145.172V103.226C196.234 102.638 195.926 102.075 195.378 101.659C194.831 101.244 194.088 101.01 193.314 101.01H186.681C186.297 101.01 185.917 101.067 185.563 101.178C185.209 101.29 184.887 101.453 184.615 101.659C184.344 101.865 184.129 102.109 183.982 102.378C183.835 102.647 183.76 102.935 183.76 103.226Z" fill="#2F2E41"/>
<path d="M175.699 40.4229L175.724 39.7409C174.051 39.7056 172.577 39.626 171.47 39.0119C171.156 38.8279 170.898 38.5948 170.713 38.3283C170.528 38.0619 170.421 37.7684 170.4 37.4678C170.38 37.2841 170.417 37.0995 170.507 36.9283C170.596 36.7571 170.737 36.604 170.918 36.4807C171.653 36.0096 172.836 36.1621 173.698 36.4621L174.442 36.7208L173.016 28.8129L172.126 28.9055L173.339 35.6322C172.167 35.3708 171.081 35.4834 170.337 35.9599C170.052 36.1491 169.828 36.3858 169.683 36.6515C169.538 36.9172 169.476 37.2048 169.501 37.4918C169.528 37.8956 169.67 38.2903 169.918 38.648C170.167 39.0058 170.515 39.318 170.94 39.5627C172.363 40.352 174.212 40.3912 175.699 40.4229Z" fill="#2F2E41"/>
<path d="M183.001 29.4856H178.161V30.1676H183.001V29.4856Z" fill="#2F2E41"/>
<path d="M202.292 62.2925L203.119 77.3749L204.409 101.01L204.584 104.205C204.599 104.496 204.689 104.782 204.85 105.047C205.011 105.312 205.24 105.549 205.524 105.746C205.934 106.032 206.444 106.224 206.993 106.298C207.201 106.326 207.412 106.336 207.622 106.329L210.251 106.247L214.251 106.121C214.323 106.118 214.39 106.114 214.462 106.108C215.195 106.043 215.868 105.77 216.347 105.345C216.826 104.919 217.076 104.372 217.046 103.813L215.585 77.0135L214.759 61.9004C214.725 61.3133 214.385 60.7603 213.815 60.3627C213.245 59.9652 212.49 59.7554 211.716 59.7793L210.318 59.8237L205.092 59.9874C204.709 59.9989 204.332 60.0676 203.984 60.1898C203.635 60.3119 203.322 60.485 203.062 60.6992C202.802 60.9133 202.6 61.1642 202.468 61.4377C202.336 61.7111 202.276 62.0016 202.292 62.2925L202.292 62.2925Z" fill="#6C63FF"/>
<path d="M200.275 63.5679V75.1618C200.275 75.7393 200.573 76.2938 201.104 76.7072C201.635 77.1206 202.358 77.3602 203.119 77.3749C203.145 77.3779 203.17 77.379 203.196 77.3783H213.981C214.154 77.378 214.327 77.3655 214.498 77.3408C214.886 77.2893 215.256 77.1779 215.585 77.0135C215.989 76.8112 216.32 76.5362 216.55 76.2132C216.78 75.8901 216.901 75.5289 216.902 75.1618V63.5679C216.899 61.8954 216.023 60.292 214.464 59.1093C212.906 57.9267 210.793 57.2614 208.588 57.2594C208.018 57.2583 207.448 57.3029 206.89 57.3924C205.021 57.6903 203.344 58.4663 202.14 59.5906C200.936 60.7149 200.277 62.1191 200.275 63.5679Z" fill="#2F2E41"/>
<path d="M168.764 68.4067C168.875 68.6821 169.057 68.9382 169.299 69.1603L176.129 75.4926C176.251 75.6097 176.392 75.715 176.547 75.8064C177.069 76.1291 177.722 76.305 178.395 76.3044C179.068 76.3037 179.72 76.1266 180.241 75.8029L192.065 68.4612C193.771 67.4012 194.852 65.8704 195.071 64.2055C195.289 62.5405 194.627 60.8779 193.231 59.5832C192.539 58.9422 191.688 58.4108 190.725 58.0194C189.763 57.628 188.709 57.3843 187.622 57.3021C185.428 57.1362 183.237 57.6384 181.531 58.6984L169.708 66.0401C169.26 66.3198 168.931 66.6938 168.763 67.115C168.596 67.5361 168.596 67.9856 168.764 68.4067Z" fill="#2F2E41"/>
<path d="M188.91 21.5445C188.745 22.2348 188.248 22.854 187.515 23.2812C186.781 23.7085 185.864 23.9132 184.943 23.8556C184.022 23.7979 183.161 23.482 182.53 22.9694C181.899 22.4568 181.542 21.7842 181.528 21.0827C181.523 20.9675 181.465 20.8574 181.363 20.7719C181.261 20.6864 181.123 20.631 180.972 20.6155C180.822 20.6001 180.669 20.6256 180.541 20.6875C180.413 20.7494 180.318 20.8437 180.273 20.9537C179.392 22.6722 177.129 23.848 174.763 24.1C173.513 24.2131 172.247 24.066 171.099 23.6747C169.951 23.2833 168.965 22.6624 168.246 21.8784C167.489 21.0991 167.001 20.1882 166.828 19.2289C166.654 18.2697 166.8 17.2927 167.253 16.3873C167.719 15.4695 168.452 14.6433 169.398 13.9704C170.344 13.2974 171.477 12.795 172.714 12.5005C174.196 12.1744 175.763 12.1417 177.267 12.4054C178.77 12.6692 180.159 13.2206 181.302 14.0072C181.382 14.066 181.48 14.108 181.588 14.1294C181.696 14.1508 181.809 14.1507 181.916 14.1291C182.024 14.1076 182.122 14.0654 182.202 14.0065C182.281 13.9476 182.339 13.8741 182.371 13.7932C183.572 8.97537 187.892 4.79011 193.622 2.56768C199.478 0.296417 206.461 0.502382 212.252 2.79641C215.138 3.92126 217.638 5.54235 219.552 7.53036C221.814 9.92525 222.976 12.7619 224.069 15.5555C225.981 20.4462 228.354 26.3043 235.14 28.4757C236.962 29.0514 238.943 29.2772 240.908 29.1333C242.873 28.9894 244.761 28.4801 246.405 27.6506C248.048 26.8211 249.397 25.6969 250.332 24.3776C251.266 23.0582 251.758 21.5844 251.763 20.0865C251.757 19.9607 251.687 19.8416 251.568 19.7542C251.449 19.6668 251.29 19.6179 251.124 19.6179C250.958 19.6179 250.799 19.6668 250.679 19.7542C250.56 19.8416 250.49 19.9607 250.484 20.0865C250.491 21.4167 250.066 22.7277 249.247 23.904C248.429 25.0804 247.242 26.0859 245.79 26.832C244.339 27.5781 242.668 28.0419 240.925 28.1825C239.182 28.3232 237.42 28.1364 235.794 27.6385C232.649 26.6894 230.372 24.6273 228.788 22.4256C227.009 19.9537 226.071 17.2236 225.005 14.544C223.92 11.816 222.664 9.05843 220.383 6.75802C218.419 4.78792 215.911 3.16832 213.034 2.01325C207.221 -0.327894 200.288 -0.702652 194.215 1.28735C191.269 2.26832 188.631 3.71223 186.475 5.52378C184.319 7.33533 182.694 9.47329 181.707 11.7965C181.473 12.3673 181.283 12.9478 181.138 13.5353L182.206 13.3212C181.04 12.5146 179.648 11.9199 178.134 11.5822C176.62 11.2445 175.025 11.1726 173.469 11.3721C171.97 11.5808 170.556 12.0511 169.338 12.7458C168.121 13.4405 167.133 14.3406 166.452 15.375C165.77 16.3898 165.437 17.5191 165.485 18.6578C165.533 19.7965 165.96 20.9075 166.726 21.8872C168.239 23.8134 170.976 25.167 173.981 25.1158C175.601 25.0925 177.175 24.7105 178.512 24.0169C179.849 23.3232 180.89 22.3482 181.506 21.2117L180.25 21.0827C180.264 22.0182 180.734 22.9167 181.568 23.6055C182.403 24.2942 183.543 24.7246 184.77 24.8139C185.998 24.9032 187.225 24.6451 188.217 24.0892C189.209 23.5333 189.895 22.7188 190.143 21.8024C190.315 21.1936 189.083 20.9334 188.91 21.5445V21.5445Z" fill="#2F2E41"/>
<path d="M220.069 110.514H171.91L187.253 59.0938H203.874L220.069 110.514Z" fill="#2F2E41"/>
<path d="M111.673 108.024C120.482 107.834 128.995 105.269 135.817 101.072C142.76 96.8467 147.576 90.9376 149.456 84.3367C151.251 77.6111 150.098 70.6245 146.173 64.4425C142.238 58.2998 135.583 53.4019 127.372 50.6051C119.253 47.7931 110.148 47.0657 101.436 48.5333C100.347 48.7242 99.2723 48.9549 98.2106 49.2193C97.2406 49.4609 97.6559 50.6291 98.6343 50.3854C106.781 48.3564 115.695 48.5988 123.743 50.7858C131.863 52.9555 138.738 57.1976 143.194 62.7873C147.617 68.4921 149.453 75.1402 148.42 81.7126C147.358 88.1476 143.382 94.1026 137.172 98.5585C131.107 102.953 123.138 105.937 114.777 106.652C113.746 106.74 112.71 106.792 111.673 106.814C110.65 106.836 110.645 108.046 111.673 108.024Z" fill="#3F3D56"/>
<path d="M96.4198 37.9021L82.1081 47.1357C81.1725 47.7393 80.0624 48.3623 79.8097 49.334C79.733 49.7447 79.7954 50.1634 79.9909 50.5507C80.1864 50.938 80.5087 51.2812 80.9274 51.5479C81.8565 52.2184 83.0394 52.6446 84.1512 53.1084L88.3106 54.8439L97.5539 58.7004C98.4531 59.0756 99.2582 58.0317 98.3582 57.6563C93.3493 55.5664 88.266 53.5542 83.3206 51.3791C82.5719 51.0498 81.3945 50.5178 81.3498 49.7696C81.302 48.9681 82.7431 48.3081 83.4365 47.8607L90.0884 43.5691L97.5466 38.7572C98.3291 38.2524 97.1972 37.4005 96.4198 37.9021V37.9021Z" fill="#3F3D56"/>
<path d="M40.8875 13.9964C30.1664 15.3811 20.3462 19.6303 12.9638 25.6521C5.52357 31.7211 0.804861 39.5919 0.100594 47.8875C-0.56431 56.3412 2.43276 64.7279 8.63473 71.7686C14.8396 78.76 24.0853 83.8742 34.7557 86.2171C45.2421 88.5389 56.6956 88.3396 66.9202 85.3543C68.2073 84.9785 69.4687 84.5558 70.7059 84.0938C71.8365 83.6716 71.0633 82.2984 69.9232 82.7243C60.4287 86.2701 49.4809 87.1405 39.1493 85.5215C28.7836 83.897 19.2988 79.6766 12.6519 73.4014C5.94965 67.0091 2.19507 59.1252 1.96377 50.9585C1.79857 42.9558 5.30367 35.1584 11.8792 28.9004C18.2909 22.7364 27.3512 18.047 37.4056 16.0795C38.6461 15.8368 39.8996 15.6373 41.1624 15.4742C42.4079 15.3133 42.1382 13.8349 40.8875 13.9964L40.8875 13.9964Z" fill="#3F3D56"/>
<path d="M75.4672 97.6891L90.8573 84.5324C91.8633 83.6723 93.0782 82.7657 93.1662 81.5452C93.2431 80.4787 92.3985 79.5828 91.2971 78.9861C90.0093 78.2884 88.4669 77.9224 87.0029 77.501L81.5255 75.9247L69.3534 72.4218C68.1692 72.081 67.4228 73.4621 68.6078 73.8031C75.2039 75.7013 81.8732 77.4949 88.4109 79.5055C89.4007 79.8099 90.9604 80.3061 91.185 81.2144C91.4258 82.1876 89.8147 83.1828 89.069 83.8203L81.9159 89.9354L73.8957 96.7917C73.0543 97.511 74.6311 98.4038 75.4671 97.6891L75.4672 97.6891Z" fill="#3F3D56"/>
<path d="M266.608 148H122.78C122.676 148 122.577 147.969 122.503 147.913C122.43 147.857 122.389 147.782 122.389 147.703C122.389 147.624 122.43 147.548 122.503 147.492C122.577 147.437 122.676 147.405 122.78 147.405H266.608C266.66 147.405 266.711 147.413 266.759 147.428C266.806 147.443 266.85 147.464 266.886 147.492C266.923 147.52 266.952 147.553 266.971 147.589C266.991 147.625 267.001 147.664 267.001 147.703C267.001 147.742 266.991 147.781 266.971 147.817C266.952 147.853 266.923 147.886 266.886 147.913C266.85 147.941 266.806 147.963 266.759 147.978C266.711 147.993 266.66 148 266.608 148Z" fill="#3F3D56"/>
</g>
<defs>
<clipPath id="clip0_276_1035">
<rect width="267" height="148" fill="white"/>
</clipPath>
</defs>
</svg>
