<svg width="257" height="236" viewBox="0 0 257 236" fill="none" xmlns="http://www.w3.org/2000/svg">
<g clip-path="url(#clip0_265_1499)">
<path d="M108.35 108.771L201.143 108.621C201.309 108.621 201.468 108.561 201.585 108.455C201.703 108.349 201.768 108.205 201.768 108.055C201.768 107.904 201.703 107.76 201.585 107.654C201.468 107.548 201.309 107.488 201.143 107.488L108.35 107.638C108.184 107.638 108.025 107.698 107.907 107.804C107.79 107.91 107.724 108.054 107.724 108.205C107.724 108.355 107.79 108.499 107.907 108.605C108.025 108.711 108.184 108.771 108.35 108.771Z" fill="#3F3D56"/>
<path d="M106.963 116.702C111.799 116.702 115.719 113.151 115.719 108.771C115.719 104.391 111.799 100.84 106.963 100.84C102.128 100.84 98.2078 104.391 98.2078 108.771C98.2078 113.151 102.128 116.702 106.963 116.702Z" fill="#3F3D56"/>
<path d="M196.983 108.731C185.113 108.731 173.51 105.542 163.64 99.5686C153.77 93.5949 146.078 85.1042 141.535 75.1702C136.993 65.2362 135.804 54.3051 138.12 43.7593C140.436 33.2134 146.152 23.5264 154.545 15.9233C162.939 8.32015 173.633 3.14234 185.275 1.04464C196.917 -1.05306 208.984 0.023557 219.951 4.13835C230.917 8.25314 240.291 15.2213 246.885 24.1616C253.48 33.102 257 43.613 257 54.3655C256.982 68.7791 250.653 82.5976 239.402 92.7896C228.15 102.982 212.895 108.715 196.983 108.731ZM196.983 3.74937C185.932 3.74937 175.129 6.71795 165.94 12.2797C156.751 17.8415 149.589 25.7466 145.359 34.9955C141.13 44.2444 140.024 54.4216 142.18 64.2402C144.336 74.0587 149.658 83.0776 157.472 90.1564C165.287 97.2352 175.243 102.056 186.082 104.009C196.921 105.962 208.157 104.96 218.367 101.129C228.577 97.2976 237.304 90.81 243.444 82.4862C249.584 74.1625 252.861 64.3764 252.861 54.3655C252.844 40.9459 246.952 28.0804 236.476 18.5913C226.001 9.10224 211.798 3.7646 196.983 3.74937Z" fill="#3F3D56"/>
<path d="M222.88 76.1486C220.683 76.1499 218.535 75.5611 216.708 74.4567C214.881 73.3523 213.456 71.7818 212.614 69.9439C211.772 68.106 211.55 66.0832 211.978 64.1313C212.405 62.1794 213.461 60.3861 215.014 58.9781C216.566 57.5701 218.544 56.6107 220.698 56.2211C222.853 55.8316 225.086 56.0295 227.116 56.7897C229.146 57.55 230.882 58.8384 232.103 60.4922C233.325 62.146 233.978 64.0907 233.979 66.0806C233.98 68.7487 232.811 71.3078 230.73 73.1956C228.649 75.0835 225.825 76.1456 222.88 76.1486ZM196.983 76.1486C194.041 76.1456 191.219 75.0853 189.139 73.2005C187.058 71.3156 185.887 68.7601 185.884 66.0945V42.6363C185.884 39.9698 187.053 37.4124 189.135 35.5269C191.217 33.6413 194.04 32.582 196.983 32.582C199.927 32.582 202.75 33.6413 204.832 35.5269C206.914 37.4124 208.083 39.9698 208.083 42.6363V66.0945C208.079 68.7601 206.909 71.3157 204.828 73.2005C202.747 75.0854 199.926 76.1456 196.983 76.1486ZM171.094 76.1486C168.15 76.1455 165.327 75.0845 163.244 73.1983C161.162 71.3121 159.991 68.7547 159.987 66.0872V56.7149C159.987 54.0465 161.158 51.4874 163.241 49.6006C165.324 47.7137 168.149 46.6537 171.095 46.6537C174.04 46.6537 176.865 47.7137 178.948 49.6006C181.031 51.4874 182.202 54.0465 182.202 56.7149V66.0872C182.198 68.7547 181.027 71.3121 178.945 73.1984C176.862 75.0846 174.039 76.1456 171.094 76.1486Z" fill="#6C63FF"/>
<path d="M16.1721 187.515V188.427C16.1736 189.938 16.8369 191.387 18.0163 192.455C19.1958 193.524 20.7951 194.125 22.4631 194.126H75.8107C77.479 194.125 79.0788 193.525 80.2585 192.456C81.4381 191.388 82.1011 189.938 82.1017 188.427V187.515C82.1049 186.182 81.5879 184.89 80.642 183.868C80.3272 183.529 79.971 183.223 79.5802 182.957H51.9099C51.5762 182.956 51.2563 182.836 51.0203 182.623C50.7844 182.409 50.6518 182.119 50.6517 181.817H22.4632C20.7954 181.819 19.1966 182.42 18.0173 183.488C16.838 184.556 16.1745 186.005 16.1721 187.515Z" fill="#3F3D56"/>
<path d="M45.6164 235.841H52.159L52.159 193.899H45.6164L45.6164 235.841Z" fill="#3F3D56"/>
<path d="M26.9951 235.633C26.9951 236.274 36.9094 235.881 49.1393 235.881C61.3693 235.881 71.2836 236.274 71.2836 235.633C71.2836 234.993 61.3693 229.915 49.1393 229.915C36.9094 229.915 26.9951 234.993 26.9951 235.633Z" fill="#3F3D56"/>
<path d="M26.439 186.553L48.7644 189.781L74.7034 193.533L83.6971 194.832C84.5605 194.956 85.4427 194.764 86.1503 194.299C86.8578 193.834 87.333 193.134 87.4717 192.352L87.8794 190.046L88.2568 187.898L88.5687 186.129C88.6392 185.734 88.6203 185.33 88.513 184.941C88.4058 184.552 88.2124 184.187 87.9448 183.868C87.6283 183.476 87.2076 183.162 86.7217 182.956H51.9099C51.5762 182.956 51.2563 182.836 51.0203 182.623C50.7844 182.409 50.6518 182.119 50.6517 181.817V180.919C50.6518 180.616 50.7844 180.327 51.0203 180.113C51.2563 179.899 51.5762 179.779 51.9099 179.779H65.5891L59.2829 178.867L39.8966 176.063L28.5779 174.427C27.7125 174.302 26.828 174.494 26.1184 174.96C25.4089 175.426 24.9324 176.128 24.7933 176.911L23.6961 183.13C23.5621 183.913 23.7753 184.712 24.289 185.353C24.8028 185.995 25.5756 186.426 26.439 186.553Z" fill="#6C63FF"/>
<path d="M74.7034 185.687V220.431C74.7047 221.222 75.0524 221.981 75.6703 222.541C76.2882 223.101 77.1259 223.416 77.9998 223.417H84.9602C85.8341 223.416 86.6719 223.101 87.2899 222.541C87.9078 221.981 88.2556 221.222 88.2568 220.431V185.687C88.258 185.028 88.0152 184.388 87.5673 183.868C87.2356 183.469 86.7951 183.155 86.2889 182.957H76.6662C76.1623 183.156 75.7238 183.47 75.393 183.868C74.9457 184.388 74.703 185.028 74.7034 185.687Z" fill="#6C63FF"/>
<path d="M53.7267 126.882C53.762 127.192 53.8503 127.495 53.9884 127.78C54.198 128.216 54.5209 128.599 54.9296 128.897L54.9448 128.906L74.8042 143.499L75.0959 143.709L79.2079 146.731L80.4508 147.643H101.956L100.718 146.731L83.7222 134.24L72.333 125.87L63.4703 119.36C62.9516 118.977 62.3156 118.748 61.6484 118.703C61.6458 118.701 61.6422 118.699 61.6383 118.699C61.4404 118.686 61.2417 118.689 61.0444 118.708C60.749 118.735 60.4593 118.799 60.1838 118.899C59.9954 118.961 59.8162 119.044 59.6503 119.145C59.3374 119.318 59.0599 119.539 58.83 119.797L54.5118 124.616L54.4465 124.694C54.1727 124.997 53.9681 125.347 53.8446 125.722C53.721 126.098 53.6809 126.492 53.7267 126.882Z" fill="#6C63FF"/>
<path d="M54.9448 128.906C55.319 129.754 55.8634 130.531 56.5502 131.199L69.7714 144.064C70.0909 144.33 70.4652 144.536 70.8728 144.671C71.2805 144.805 71.7134 144.866 72.1468 144.848C72.5802 144.831 73.0056 144.736 73.3985 144.57C73.7914 144.403 74.1442 144.168 74.4365 143.878L74.8042 143.499L74.9651 143.335L80.6774 137.532L83.1334 135.033C83.2967 134.879 83.4386 134.708 83.556 134.523C83.6165 134.431 83.6718 134.336 83.7222 134.24C83.9281 133.814 84.0228 133.351 83.9989 132.886C83.9822 132.491 83.8778 132.103 83.6919 131.745C83.506 131.387 83.2424 131.066 82.9169 130.803L67.587 120.189C65.8955 119.015 63.7658 118.482 61.6484 118.703C61.6458 118.701 61.6422 118.699 61.6383 118.699C61.168 118.752 60.7034 118.841 60.2491 118.963C60.0479 119.013 59.8518 119.077 59.6503 119.145C58.3506 119.588 57.1983 120.326 56.3035 121.288C55.3301 122.324 54.6888 123.582 54.4493 124.925C54.2097 126.268 54.3811 127.645 54.9448 128.906V128.906Z" fill="#2F2E41"/>
<path d="M48.667 108.108C62.5986 108.108 73.8924 97.8776 73.8924 85.2578C73.8924 72.638 62.5986 62.4076 48.667 62.4076C34.7354 62.4076 23.4416 72.638 23.4416 85.2578C23.4416 97.8776 34.7354 108.108 48.667 108.108Z" fill="#6C63FF"/>
<path d="M41.95 183.403L51.3059 184.753L51.5174 184.785L65.74 186.841L74.7034 188.14L87.8794 190.046L88.2568 190.1L90.2144 190.383L99.2081 191.682C100.071 191.806 100.954 191.614 101.661 191.149C102.369 190.684 102.844 189.984 102.983 189.202L103.768 184.753L104.08 182.984C104.08 182.975 104.085 182.966 104.085 182.956H51.9099C51.5762 182.956 51.2563 182.836 51.0203 182.623C50.7844 182.409 50.6518 182.119 50.6517 181.817V180.919C50.6518 180.616 50.7844 180.327 51.0203 180.113C51.2563 179.899 51.5762 179.779 51.9099 179.779H68.3972V174.796L67.3907 174.65L62.4183 173.93L44.084 171.281C43.2198 171.157 42.3365 171.348 41.6278 171.813C40.9192 172.278 40.4432 172.979 40.3043 173.761L39.8966 176.063L39.207 179.984C39.072 180.767 39.2848 181.566 39.7989 182.207C40.313 182.848 41.0865 183.278 41.95 183.403Z" fill="#6C63FF"/>
<path d="M14.335 163.216C14.335 181.844 16.4238 192.986 48.6336 189.795C48.6789 189.79 48.7192 189.786 48.7644 189.781C54.5093 189.267 60.191 188.283 65.74 186.841C68.6237 186.078 71.4264 185.083 74.1146 183.868C74.7486 183.577 75.3576 183.271 75.9567 182.956H51.9099C51.5762 182.956 51.2563 182.836 51.0203 182.623C50.7844 182.409 50.6518 182.119 50.6517 181.817V180.919C50.6518 180.616 50.7844 180.327 51.0203 180.113C51.2563 179.899 51.5762 179.779 51.9099 179.779H68.3972V150.985C68.3986 150.099 68.7878 149.25 69.4793 148.623C70.1708 147.997 71.1083 147.644 72.0863 147.643H85.4988C85.3829 147.342 85.2674 147.037 85.1415 146.731C83.8832 143.577 82.3918 140.504 80.6774 137.532C78.3288 133.404 75.5336 129.497 72.333 125.87C70.1043 123.342 67.6023 121.022 64.8644 118.945C59.8164 115.17 54.3206 112.836 48.7443 112.836C28.1803 112.836 14.335 144.589 14.335 163.216Z" fill="#2F2E41"/>
<path d="M48.137 93.7269L48.1108 92.8729C49.8645 92.8287 51.4106 92.7291 52.5723 91.9603C52.9017 91.7299 53.1724 91.438 53.3661 91.1043C53.5598 90.7707 53.6719 90.4032 53.6947 90.0269C53.7152 89.7969 53.6768 89.5658 53.5825 89.3514C53.4883 89.1371 53.3407 88.9453 53.1514 88.791C52.3802 88.2011 51.1392 88.392 50.2348 88.7677L49.4548 89.0917L50.9505 79.1904L51.8844 79.3063L50.6122 87.7287C51.8412 87.4014 52.9799 87.5423 53.7599 88.1389C54.0594 88.3758 54.2943 88.6721 54.4464 89.0048C54.5985 89.3376 54.6637 89.6976 54.6367 90.0569C54.6092 90.5626 54.4599 91.0567 54.1994 91.5046C53.9388 91.9526 53.5733 92.3434 53.1284 92.6499C51.6357 93.638 49.6958 93.6873 48.137 93.7269Z" fill="#2F2E41"/>
<path d="M61.5802 80.0327H56.5032V80.8866H61.5802V80.0327Z" fill="#2F2E41"/>
<path d="M45.5548 80.0327H40.4778V80.8866H45.5548V80.0327Z" fill="#2F2E41"/>
<path d="M28.535 78.9796C30.4969 76.3045 33.9489 75.1705 37.353 74.8947C41.1845 74.5842 44.8868 75.2535 48.6277 75.9037C52.7447 76.6193 57.102 77.2889 61.2504 76.3841C63.0856 75.9996 64.8004 75.2427 66.2657 74.1704C67.7309 73.0982 68.9083 71.7386 69.7091 70.1942C71.228 67.1811 71.5552 63.7861 70.6359 60.5801C69.6637 57.1703 67.2508 54.17 64.3256 51.9039C58.3554 47.2788 50.2761 45.2001 42.5052 45.3959C34.7638 45.5769 27.2815 47.9601 21.1186 52.2078C14.9455 56.6087 10.6014 62.7752 8.79564 69.7007C6.90735 76.5693 7.52248 83.807 10.5492 90.3328C12.2497 93.9062 14.709 97.1276 16.6068 100.611C18.3737 103.854 19.7344 107.625 18.6351 111.242C17.6704 114.417 14.8381 117.237 11.2824 118.099C9.66474 118.483 7.95293 118.381 6.40452 117.809C4.8561 117.236 3.5548 116.224 2.69635 114.923C0.918891 112.385 0.876364 109.059 3.54511 107.009C4.21798 106.484 5.00179 106.088 5.84888 105.846C6.69597 105.603 7.58863 105.519 8.47259 105.599C9.35656 105.679 10.2133 105.921 10.9909 106.31C11.7684 106.7 12.4504 107.228 12.9953 107.863C14.078 109.137 14.5627 110.746 14.3441 112.342C14.2127 113.148 15.575 113.496 15.7077 112.682C16.0261 110.995 15.673 109.26 14.7111 107.787C13.7493 106.314 12.2412 105.197 10.4556 104.637C8.66998 104.077 6.72282 104.109 4.96105 104.728C3.19927 105.347 1.7373 106.513 0.835611 108.017C-0.773794 110.758 0.0945768 114.064 2.13755 116.407C3.19162 117.655 4.62029 118.602 6.25265 119.133C7.88502 119.665 9.65193 119.759 11.342 119.405C15.0608 118.627 18.1029 115.95 19.5336 112.804C21.1263 109.301 20.3966 105.392 18.8439 101.994C17.1655 98.3194 14.6732 95.0243 12.7021 91.4838C10.9175 88.2843 9.7818 84.8203 9.34924 81.2571C8.48351 74.1016 10.2763 66.889 14.4441 60.7601C18.6921 54.7265 25.176 50.2626 32.7311 48.1706C40.1807 46.0523 48.3969 46.1172 55.691 48.7205C62.8759 51.2849 69.8138 56.8734 69.7305 64.3792C69.6949 67.5854 68.3809 70.8551 65.6698 72.9936C62.4298 75.5493 57.9184 75.7678 53.8455 75.3689C49.7467 74.9675 45.7664 73.8832 41.6499 73.6066C38.0695 73.366 34.2067 73.6161 31.0098 75.2275C29.521 75.9795 28.2535 77.0446 27.3141 78.3331C26.8091 79.0217 28.0332 79.6638 28.535 78.9796V78.9796Z" fill="#2F2E41"/>
<path d="M32.5489 134.906C32.589 134.988 32.6343 135.069 32.6845 135.147C32.7351 135.229 32.7906 135.308 32.8506 135.384L43.8825 149.768L44.7381 150.885L53.7367 162.61L62.4183 173.93L65.9312 178.516C66.0257 178.641 66.1318 178.759 66.2484 178.867C66.7916 179.385 67.5221 179.708 68.3067 179.779H68.3972V160.217L67.3906 158.904L56.1022 144.188L43.9783 128.382C43.4789 127.732 42.7153 127.287 41.855 127.146C40.9946 127.005 40.1076 127.179 39.3883 127.63L35.669 129.968L33.6709 131.227C33.0392 131.625 32.5812 132.211 32.3763 132.883C32.1713 133.554 32.2324 134.27 32.5489 134.906Z" fill="#6C63FF"/>
<path d="M30.8225 134.555L31.3207 135.462L31.3258 135.466L31.4617 135.708L39.5493 150.251C40.0052 150.927 40.7382 151.412 41.5881 151.6C42.4379 151.788 43.3353 151.664 44.084 151.254L44.6074 150.957L44.7381 150.885L55.1662 144.958C55.5384 144.754 55.8623 144.485 56.1191 144.167C56.376 143.849 56.5608 143.488 56.6627 143.104C56.7647 142.721 56.7819 142.324 56.7134 141.934C56.6448 141.545 56.4918 141.172 56.2632 140.837L44.8087 126.768C43.6859 125.389 42.0733 124.403 40.242 123.974C38.4108 123.546 36.4725 123.702 34.7532 124.416C34.3651 124.574 33.9915 124.76 33.6358 124.972C31.9522 125.979 30.7356 127.512 30.217 129.278C29.6984 131.045 29.9139 132.922 30.8225 134.555Z" fill="#2F2E41"/>
<path d="M90.2144 182.957V217.281C90.2157 218.072 90.5634 218.831 91.1814 219.391C91.7994 219.951 92.6371 220.266 93.5111 220.267H100.471C101.345 220.265 102.183 219.951 102.801 219.391C103.419 218.831 103.767 218.072 103.768 217.281V182.957H90.2144Z" fill="#6C63FF"/>
<path d="M49.6451 180.919V181.817C49.6459 182.291 49.8276 182.751 50.1596 183.118C50.4916 183.486 50.9535 183.738 51.4671 183.832C51.5373 183.841 51.6079 183.855 51.6784 183.859C51.7539 183.864 51.8293 183.868 51.9099 183.868H129.495C130.741 183.868 131.936 183.42 132.817 182.622C133.699 181.825 134.194 180.743 134.196 179.615V150.985C134.194 149.857 133.699 148.775 132.817 147.977C131.936 147.18 130.741 146.732 129.495 146.731H72.0863C70.8413 146.733 69.6478 147.181 68.7675 147.979C67.8872 148.776 67.392 149.857 67.3906 150.985V178.867H51.9099C51.3092 178.867 50.7332 179.083 50.3085 179.468C49.8838 179.853 49.6452 180.375 49.6451 180.919Z" fill="white"/>
<path d="M49.6451 180.919V181.817C49.6459 182.291 49.8276 182.751 50.1596 183.118C50.4916 183.486 50.9535 183.738 51.4671 183.832C51.5373 183.841 51.6079 183.855 51.6784 183.859C51.7539 183.864 51.8293 183.868 51.9099 183.868H129.495C130.741 183.868 131.936 183.42 132.817 182.622C133.699 181.825 134.194 180.743 134.196 179.615V150.985C134.194 149.857 133.699 148.775 132.817 147.977C131.936 147.18 130.741 146.732 129.495 146.731H72.0863C70.8413 146.733 69.6478 147.181 68.7675 147.979C67.8872 148.776 67.392 149.857 67.3906 150.985V178.867H51.9099C51.3092 178.867 50.7332 179.083 50.3085 179.468C49.8838 179.853 49.6452 180.375 49.6451 180.919ZM50.6517 181.817V180.919C50.6518 180.616 50.7844 180.327 51.0204 180.113C51.2563 179.899 51.5762 179.779 51.9099 179.779H68.3972V150.985C68.3986 150.099 68.7878 149.25 69.4793 148.623C70.1708 147.997 71.1083 147.645 72.0863 147.643H129.495C130.474 147.644 131.413 147.996 132.105 148.622C132.798 149.249 133.188 150.098 133.189 150.985V179.615C133.188 180.501 132.798 181.351 132.105 181.978C131.413 182.604 130.474 182.956 129.495 182.957H51.9099C51.5762 182.956 51.2563 182.836 51.0204 182.623C50.7844 182.409 50.6518 182.119 50.6517 181.817V181.817Z" fill="#3F3D56"/>
<path d="M100.793 168.806C102.93 168.806 104.663 167.237 104.663 165.3C104.663 163.364 102.93 161.794 100.793 161.794C98.6553 161.794 96.9225 163.364 96.9225 165.3C96.9225 167.237 98.6553 168.806 100.793 168.806Z" fill="#6C63FF"/>
<path d="M68.4124 179.35H67.4059V183.453H68.4124V179.35Z" fill="#3F3D56"/>
</g>
<defs>
<clipPath id="clip0_265_1499">
<rect width="257" height="236" fill="white"/>
</clipPath>
</defs>
</svg>
