<svg width="50" height="50" viewBox="0 0 50 50" fill="none" xmlns="http://www.w3.org/2000/svg">
<path d="M33.7292 4.16669H16.2708C8.6875 4.16669 4.16667 8.68752 4.16667 16.2709V33.7084C4.16667 41.3125 8.6875 45.8334 16.2708 45.8334H33.7083C41.2917 45.8334 45.8125 41.3125 45.8125 33.7292V16.2709C45.8333 8.68752 41.3125 4.16669 33.7292 4.16669ZM14.0625 29.4584C14.0625 30.3125 13.3542 31.0209 12.5 31.0209C11.6458 31.0209 10.9375 30.3125 10.9375 29.4584V20.5417C10.9375 19.6875 11.6458 18.9792 12.5 18.9792C13.3542 18.9792 14.0625 19.6875 14.0625 20.5417V29.4584ZM20.3125 32.4375C20.3125 33.2917 19.6042 34 18.75 34C17.8958 34 17.1875 33.2917 17.1875 32.4375V17.5625C17.1875 16.7084 17.8958 16 18.75 16C19.6042 16 20.3125 16.7084 20.3125 17.5625V32.4375ZM26.5625 35.4167C26.5625 36.2709 25.8542 36.9792 25 36.9792C24.1458 36.9792 23.4375 36.2709 23.4375 35.4167V14.5834C23.4375 13.7292 24.1458 13.0209 25 13.0209C25.8542 13.0209 26.5625 13.7292 26.5625 14.5834V35.4167ZM32.8125 32.4375C32.8125 33.2917 32.1042 34 31.25 34C30.3958 34 29.6875 33.2917 29.6875 32.4375V17.5625C29.6875 16.7084 30.3958 16 31.25 16C32.1042 16 32.8125 16.7084 32.8125 17.5625V32.4375ZM39.0625 29.4584C39.0625 30.3125 38.3542 31.0209 37.5 31.0209C36.6458 31.0209 35.9375 30.3125 35.9375 29.4584V20.5417C35.9375 19.6875 36.6458 18.9792 37.5 18.9792C38.3542 18.9792 39.0625 19.6875 39.0625 20.5417V29.4584Z" fill="black"/>
</svg>
