<svg width="152" height="117" viewBox="0 0 152 117" fill="none" xmlns="http://www.w3.org/2000/svg">
<g clip-path="url(#clip0_304_658)">
<path d="M69.6221 27.8036H68.8549V10.1927C68.8549 7.48943 67.5734 4.89688 65.2922 2.98538C63.011 1.07388 59.917 4.26374e-06 56.691 0H12.164C10.5666 -3.37785e-06 8.98484 0.263635 7.50904 0.775863C6.03324 1.28809 4.69229 2.03888 3.56276 2.98535C2.43323 3.93183 1.53724 5.05546 0.925936 6.29209C0.314637 7.52873 3.52726e-06 8.85414 0 10.1927V106.807C-1.25973e-06 108.146 0.314627 109.471 0.925922 110.708C1.53722 111.945 2.43321 113.068 3.56274 114.015C4.69226 114.961 6.03321 115.712 7.509 116.224C8.9848 116.736 10.5666 117 12.1639 117H56.6909C59.917 117 63.0109 115.926 65.2921 114.015C67.5733 112.103 68.8549 109.511 68.8549 106.807V40.3393H69.6221V27.8036Z" fill="#E6E6E6"/>
<path d="M57.1817 2.65181H51.3695C51.6368 3.20092 51.7388 3.79668 51.6666 4.38662C51.5944 4.97655 51.3501 5.54255 50.9554 6.03476C50.5606 6.52697 50.0275 6.93027 49.4029 7.20914C48.7783 7.48802 48.0814 7.6339 47.3737 7.63395H21.8648C21.1571 7.6339 20.4602 7.48802 19.8356 7.20914C19.211 6.93027 18.6779 6.52696 18.2831 6.03476C17.8884 5.54255 17.6441 4.97655 17.5719 4.38661C17.4997 3.79667 17.6017 3.20091 17.869 2.65179H12.4404C10.0312 2.65179 7.72063 3.45375 6.01706 4.88123C4.3135 6.30872 3.35645 8.2448 3.35645 10.2636V106.736C3.35644 107.736 3.59141 108.726 4.04791 109.649C4.50442 110.573 5.17354 111.412 6.01706 112.119C6.86057 112.826 7.86197 113.386 8.96409 113.769C10.0662 114.151 11.2474 114.348 12.4403 114.348H57.1817C58.3747 114.348 59.5559 114.151 60.658 113.769C61.7601 113.386 62.7615 112.826 63.605 112.119C64.4486 111.412 65.1177 110.573 65.5742 109.649C66.0307 108.726 66.2657 107.736 66.2657 106.736V10.2636C66.2657 9.26399 66.0307 8.27418 65.5742 7.35068C65.1177 6.42717 64.4486 5.58806 63.605 4.88124C62.7615 4.17442 61.7601 3.61374 60.658 3.23122C59.5559 2.84869 58.3747 2.65181 57.1817 2.65181Z" fill="white"/>
<path d="M8.9106 48.0567C8.85972 48.0567 8.81092 48.0398 8.77494 48.0096C8.73896 47.9795 8.71875 47.9386 8.71875 47.8959V42.2692C8.71875 42.2266 8.73896 42.1857 8.77494 42.1555C8.81092 42.1254 8.85972 42.1085 8.9106 42.1085C8.96149 42.1085 9.01029 42.1254 9.04627 42.1555C9.08225 42.1857 9.10246 42.2266 9.10246 42.2692V47.8959C9.10246 47.9386 9.08225 47.9795 9.04627 48.0096C9.01029 48.0398 8.96149 48.0567 8.9106 48.0567Z" fill="#CCCCCC"/>
<path d="M10.2536 48.9409C10.2027 48.9409 10.1539 48.9239 10.118 48.8938C10.082 48.8636 10.0618 48.8228 10.0618 48.7801V41.385C10.0618 41.3424 10.082 41.3015 10.118 41.2713C10.1539 41.2412 10.2027 41.2242 10.2536 41.2242C10.3045 41.2242 10.3533 41.2412 10.3893 41.2713C10.4253 41.3015 10.4455 41.3424 10.4455 41.385V48.7801C10.4455 48.8228 10.4253 48.8636 10.3893 48.8938C10.3533 48.9239 10.3045 48.9409 10.2536 48.9409Z" fill="#CCCCCC"/>
<path d="M11.5966 49.5036C11.5458 49.5036 11.497 49.4867 11.461 49.4565C11.425 49.4264 11.4048 49.3855 11.4048 49.3428V40.8224C11.4048 40.7797 11.425 40.7389 11.461 40.7087C11.497 40.6786 11.5458 40.6616 11.5966 40.6616C11.6475 40.6616 11.6963 40.6786 11.7323 40.7087C11.7683 40.7389 11.7885 40.7797 11.7885 40.8224V49.3428C11.7885 49.3855 11.7683 49.4264 11.7323 49.4565C11.6963 49.4867 11.6475 49.5036 11.5966 49.5036Z" fill="#CCCCCC"/>
<path d="M12.9395 50.9504C12.8887 50.9504 12.8399 50.9335 12.8039 50.9034C12.7679 50.8732 12.7477 50.8323 12.7477 50.7897V39.3755C12.7477 39.3328 12.7679 39.292 12.8039 39.2618C12.8399 39.2317 12.8887 39.2147 12.9395 39.2147C12.9904 39.2147 13.0392 39.2317 13.0752 39.2618C13.1112 39.292 13.1314 39.3328 13.1314 39.3755V50.7897C13.1314 50.8323 13.1112 50.8732 13.0752 50.9034C13.0392 50.9335 12.9904 50.9504 12.9395 50.9504Z" fill="#CCCCCC"/>
<path d="M14.2826 53.1208C14.2317 53.1208 14.1829 53.1038 14.1469 53.0737C14.1109 53.0435 14.0907 53.0026 14.0907 52.96V37.2052C14.0907 37.1626 14.1109 37.1217 14.1469 37.0915C14.1829 37.0614 14.2317 37.0444 14.2826 37.0444C14.3334 37.0444 14.3822 37.0614 14.4182 37.0915C14.4542 37.1217 14.4744 37.1626 14.4744 37.2052V52.96C14.4744 53.0026 14.4542 53.0435 14.4182 53.0737C14.3822 53.1038 14.3334 53.1208 14.2826 53.1208Z" fill="#CCCCCC"/>
<path d="M15.6256 50.9504C15.5747 50.9504 15.5259 50.9335 15.4899 50.9034C15.4539 50.8732 15.4337 50.8323 15.4337 50.7897V39.3755C15.4337 39.3328 15.4539 39.292 15.4899 39.2618C15.5259 39.2317 15.5747 39.2147 15.6256 39.2147C15.6765 39.2147 15.7253 39.2317 15.7612 39.2618C15.7972 39.292 15.8174 39.3328 15.8174 39.3755V50.7897C15.8174 50.8323 15.7972 50.8732 15.7612 50.9034C15.7253 50.9335 15.6765 50.9504 15.6256 50.9504Z" fill="#CCCCCC"/>
<path d="M16.9685 51.9954C16.9176 51.9954 16.8688 51.9785 16.8328 51.9484C16.7968 51.9182 16.7766 51.8773 16.7766 51.8347V38.3306C16.7766 38.2879 16.7968 38.247 16.8328 38.2169C16.8688 38.1867 16.9176 38.1698 16.9685 38.1698C17.0193 38.1698 17.0681 38.1867 17.1041 38.2169C17.1401 38.247 17.1603 38.2879 17.1603 38.3306V51.8347C17.1603 51.8773 17.1401 51.9182 17.1041 51.9484C17.0681 51.9785 17.0193 51.9954 16.9685 51.9954Z" fill="#CCCCCC"/>
<path d="M18.3115 49.2625C18.2606 49.2625 18.2118 49.2455 18.1758 49.2154C18.1398 49.1852 18.1196 49.1443 18.1196 49.1017V41.0635C18.1196 41.0209 18.1398 40.98 18.1758 40.9499C18.2118 40.9197 18.2606 40.9028 18.3115 40.9028C18.3624 40.9028 18.4112 40.9197 18.4471 40.9499C18.4831 40.98 18.5033 41.0209 18.5033 41.0635V49.1017C18.5033 49.1443 18.4831 49.1852 18.4471 49.2154C18.4112 49.2455 18.3624 49.2625 18.3115 49.2625Z" fill="#CCCCCC"/>
<path d="M19.6545 49.9055C19.6036 49.9055 19.5548 49.8886 19.5188 49.8584C19.4829 49.8283 19.4626 49.7874 19.4626 49.7447V40.4205C19.4626 40.3778 19.4829 40.3369 19.5188 40.3068C19.5548 40.2766 19.6036 40.2597 19.6545 40.2597C19.7054 40.2597 19.7542 40.2766 19.7902 40.3068C19.8261 40.3369 19.8464 40.3778 19.8464 40.4205V49.7447C19.8464 49.7874 19.8261 49.8283 19.7902 49.8584C19.7542 49.8886 19.7054 49.9055 19.6545 49.9055Z" fill="#CCCCCC"/>
<path d="M20.9975 48.0567C20.9466 48.0567 20.8978 48.0398 20.8619 48.0096C20.8259 47.9795 20.8057 47.9386 20.8057 47.8959V42.2692C20.8057 42.2266 20.8259 42.1857 20.8619 42.1555C20.8978 42.1254 20.9466 42.1085 20.9975 42.1085C21.0484 42.1085 21.0972 42.1254 21.1332 42.1555C21.1692 42.1857 21.1894 42.2266 21.1894 42.2692V47.8959C21.1894 47.9386 21.1692 47.9795 21.1332 48.0096C21.0972 48.0398 21.0484 48.0567 20.9975 48.0567Z" fill="#CCCCCC"/>
<path d="M22.1486 48.0567C22.0978 48.0567 22.049 48.0398 22.013 48.0096C21.977 47.9795 21.9568 47.9386 21.9568 47.8959V42.2692C21.9568 42.2266 21.977 42.1857 22.013 42.1555C22.049 42.1254 22.0978 42.1085 22.1486 42.1085C22.1995 42.1085 22.2483 42.1254 22.2843 42.1555C22.3203 42.1857 22.3405 42.2266 22.3405 42.2692V47.8959C22.3405 47.9386 22.3203 47.9795 22.2843 48.0096C22.2483 48.0398 22.1995 48.0567 22.1486 48.0567Z" fill="#CCCCCC"/>
<path d="M23.4915 48.9409C23.4407 48.9409 23.3919 48.9239 23.3559 48.8938C23.3199 48.8636 23.2997 48.8228 23.2997 48.7801V41.385C23.2997 41.3424 23.3199 41.3015 23.3559 41.2713C23.3919 41.2412 23.4407 41.2242 23.4915 41.2242C23.5424 41.2242 23.5912 41.2412 23.6272 41.2713C23.6632 41.3015 23.6834 41.3424 23.6834 41.385V48.7801C23.6834 48.8228 23.6632 48.8636 23.6272 48.8938C23.5912 48.9239 23.5424 48.9409 23.4915 48.9409Z" fill="#CCCCCC"/>
<path d="M24.8346 49.5036C24.7837 49.5036 24.7349 49.4867 24.6989 49.4565C24.6629 49.4264 24.6427 49.3855 24.6427 49.3428V40.8224C24.6427 40.7797 24.6629 40.7389 24.6989 40.7087C24.7349 40.6786 24.7837 40.6616 24.8346 40.6616C24.8854 40.6616 24.9342 40.6786 24.9702 40.7087C25.0062 40.7389 25.0264 40.7797 25.0264 40.8224V49.3428C25.0264 49.3855 25.0062 49.4264 24.9702 49.4565C24.9342 49.4867 24.8854 49.5036 24.8346 49.5036Z" fill="#CCCCCC"/>
<path d="M26.1776 50.9504C26.1267 50.9504 26.0779 50.9335 26.0419 50.9034C26.0059 50.8732 25.9857 50.8323 25.9857 50.7897V39.3755C25.9857 39.3328 26.0059 39.292 26.0419 39.2618C26.0779 39.2317 26.1267 39.2147 26.1776 39.2147C26.2285 39.2147 26.2773 39.2317 26.3132 39.2618C26.3492 39.292 26.3694 39.3328 26.3694 39.3755V50.7897C26.3694 50.8323 26.3492 50.8732 26.3132 50.9034C26.2773 50.9335 26.2285 50.9504 26.1776 50.9504Z" fill="#CCCCCC"/>
<path d="M27.5206 55.693C27.4697 55.693 27.4209 55.676 27.3849 55.6459C27.3489 55.6157 27.3287 55.5749 27.3287 55.5322V34.633C27.3287 34.5904 27.3489 34.5495 27.3849 34.5193C27.4209 34.4892 27.4697 34.4722 27.5206 34.4722C27.5715 34.4722 27.6203 34.4892 27.6562 34.5193C27.6922 34.5495 27.7124 34.5904 27.7124 34.633V55.5322C27.7124 55.5749 27.6922 55.6157 27.6562 55.6459C27.6203 55.676 27.5715 55.693 27.5206 55.693Z" fill="#CCCCCC"/>
<path d="M28.8635 50.9504C28.8126 50.9504 28.7638 50.9335 28.7278 50.9034C28.6918 50.8732 28.6716 50.8323 28.6716 50.7897V39.3755C28.6716 39.3328 28.6918 39.292 28.7278 39.2618C28.7638 39.2317 28.8126 39.2147 28.8635 39.2147C28.9144 39.2147 28.9632 39.2317 28.9991 39.2618C29.0351 39.292 29.0553 39.3328 29.0553 39.3755V50.7897C29.0553 50.8323 29.0351 50.8732 28.9991 50.9034C28.9632 50.9335 28.9144 50.9504 28.8635 50.9504Z" fill="#CCCCCC"/>
<path d="M30.2065 51.9954C30.1556 51.9954 30.1068 51.9785 30.0708 51.9484C30.0349 51.9182 30.0146 51.8773 30.0146 51.8347V38.3306C30.0146 38.2879 30.0349 38.247 30.0708 38.2169C30.1068 38.1867 30.1556 38.1698 30.2065 38.1698C30.2574 38.1698 30.3062 38.1867 30.3422 38.2169C30.3781 38.247 30.3984 38.2879 30.3984 38.3306V51.8347C30.3984 51.8773 30.3781 51.9182 30.3422 51.9484C30.3062 51.9785 30.2574 51.9954 30.2065 51.9954Z" fill="#CCCCCC"/>
<path d="M31.5495 49.2625C31.4986 49.2625 31.4498 49.2455 31.4139 49.2154C31.3779 49.1852 31.3577 49.1443 31.3577 49.1017V41.0635C31.3577 41.0209 31.3779 40.98 31.4139 40.9499C31.4498 40.9197 31.4986 40.9028 31.5495 40.9028C31.6004 40.9028 31.6492 40.9197 31.6852 40.9499C31.7212 40.98 31.7414 41.0209 31.7414 41.0635V49.1017C31.7414 49.1443 31.7212 49.1852 31.6852 49.2154C31.6492 49.2455 31.6004 49.2625 31.5495 49.2625Z" fill="#CCCCCC"/>
<path d="M32.8925 49.9055C32.8417 49.9055 32.7929 49.8886 32.7569 49.8584C32.7209 49.8283 32.7007 49.7874 32.7007 49.7447V40.4205C32.7007 40.3778 32.7209 40.3369 32.7569 40.3068C32.7929 40.2766 32.8417 40.2597 32.8925 40.2597C32.9434 40.2597 32.9922 40.2766 33.0282 40.3068C33.0642 40.3369 33.0844 40.3778 33.0844 40.4205V49.7447C33.0844 49.7874 33.0642 49.8283 33.0282 49.8584C32.9922 49.8886 32.9434 49.9055 32.8925 49.9055Z" fill="#CCCCCC"/>
<path d="M34.2354 48.0567C34.1846 48.0567 34.1357 48.0398 34.0998 48.0096C34.0638 47.9795 34.0436 47.9386 34.0436 47.8959V42.2692C34.0436 42.2266 34.0638 42.1857 34.0998 42.1555C34.1357 42.1254 34.1846 42.1085 34.2354 42.1085C34.2863 42.1085 34.3351 42.1254 34.3711 42.1555C34.4071 42.1857 34.4273 42.2266 34.4273 42.2692V47.8959C34.4273 47.9386 34.4071 47.9795 34.3711 48.0096C34.3351 48.0398 34.2863 48.0567 34.2354 48.0567Z" fill="#CCCCCC"/>
<path d="M35.3866 48.0567C35.3357 48.0567 35.2869 48.0398 35.2509 48.0096C35.2149 47.9795 35.1947 47.9386 35.1947 47.8959V42.2692C35.1947 42.2266 35.2149 42.1857 35.2509 42.1555C35.2869 42.1254 35.3357 42.1085 35.3866 42.1085C35.4374 42.1085 35.4862 42.1254 35.5222 42.1555C35.5582 42.1857 35.5784 42.2266 35.5784 42.2692V47.8959C35.5784 47.9386 35.5582 47.9795 35.5222 48.0096C35.4862 48.0398 35.4374 48.0567 35.3866 48.0567Z" fill="#CCCCCC"/>
<path d="M36.7296 48.9409C36.6787 48.9409 36.6299 48.9239 36.5939 48.8938C36.5579 48.8636 36.5377 48.8228 36.5377 48.7801V41.385C36.5377 41.3424 36.5579 41.3015 36.5939 41.2713C36.6299 41.2412 36.6787 41.2242 36.7296 41.2242C36.7805 41.2242 36.8293 41.2412 36.8652 41.2713C36.9012 41.3015 36.9214 41.3424 36.9214 41.385V48.7801C36.9214 48.8228 36.9012 48.8636 36.8652 48.8938C36.8293 48.9239 36.7805 48.9409 36.7296 48.9409Z" fill="#CCCCCC"/>
<path d="M38.0726 49.5036C38.0217 49.5036 37.9729 49.4867 37.9369 49.4565C37.9009 49.4264 37.8807 49.3855 37.8807 49.3428V40.8224C37.8807 40.7797 37.9009 40.7389 37.9369 40.7087C37.9729 40.6786 38.0217 40.6616 38.0726 40.6616C38.1235 40.6616 38.1723 40.6786 38.2083 40.7087C38.2442 40.7389 38.2644 40.7797 38.2644 40.8224V49.3428C38.2644 49.3855 38.2442 49.4264 38.2083 49.4565C38.1723 49.4867 38.1235 49.5036 38.0726 49.5036Z" fill="#CCCCCC"/>
<path d="M39.4156 50.9504C39.3647 50.9504 39.3159 50.9335 39.2799 50.9034C39.244 50.8732 39.2238 50.8323 39.2238 50.7897V39.3755C39.2238 39.3328 39.244 39.292 39.2799 39.2618C39.3159 39.2317 39.3647 39.2147 39.4156 39.2147C39.4665 39.2147 39.5153 39.2317 39.5513 39.2618C39.5872 39.292 39.6075 39.3328 39.6075 39.3755V50.7897C39.6075 50.8323 39.5872 50.8732 39.5513 50.9034C39.5153 50.9335 39.4665 50.9504 39.4156 50.9504Z" fill="#CCCCCC"/>
<path d="M40.7585 53.1208C40.7076 53.1208 40.6588 53.1038 40.6228 53.0737C40.5869 53.0435 40.5667 53.0026 40.5667 52.96V37.2052C40.5667 37.1626 40.5869 37.1217 40.6228 37.0915C40.6588 37.0614 40.7076 37.0444 40.7585 37.0444C40.8094 37.0444 40.8582 37.0614 40.8942 37.0915C40.9301 37.1217 40.9504 37.1626 40.9504 37.2052V52.96C40.9504 53.0026 40.9301 53.0435 40.8942 53.0737C40.8582 53.1038 40.8094 53.1208 40.7585 53.1208Z" fill="#CCCCCC"/>
<path d="M41.7179 60.2346C41.667 60.2346 41.6182 60.2176 41.5822 60.1875C41.5462 60.1573 41.526 60.1164 41.526 60.0738V30.0914C41.526 30.0488 41.5462 30.0079 41.5822 29.9777C41.6182 29.9476 41.667 29.9307 41.7179 29.9307C41.7687 29.9307 41.8175 29.9476 41.8535 29.9777C41.8895 30.0079 41.9097 30.0488 41.9097 30.0914V60.0738C41.9097 60.1164 41.8895 60.1573 41.8535 60.1875C41.8175 60.2176 41.7687 60.2346 41.7179 60.2346Z" fill="#6C63FF"/>
<path d="M42.1015 50.9504C42.0506 50.9504 42.0018 50.9335 41.9659 50.9034C41.9299 50.8732 41.9097 50.8323 41.9097 50.7897V39.3755C41.9097 39.3328 41.9299 39.292 41.9659 39.2618C42.0018 39.2317 42.0506 39.2147 42.1015 39.2147C42.1524 39.2147 42.2012 39.2317 42.2372 39.2618C42.2732 39.292 42.2934 39.3328 42.2934 39.3755V50.7897C42.2934 50.8323 42.2732 50.8732 42.2372 50.9034C42.2012 50.9335 42.1524 50.9504 42.1015 50.9504Z" fill="#CCCCCC"/>
<path d="M43.4445 51.9954C43.3937 51.9954 43.3449 51.9785 43.3089 51.9484C43.2729 51.9182 43.2527 51.8773 43.2527 51.8347V38.3306C43.2527 38.2879 43.2729 38.247 43.3089 38.2169C43.3449 38.1867 43.3937 38.1698 43.4445 38.1698C43.4954 38.1698 43.5442 38.1867 43.5802 38.2169C43.6162 38.247 43.6364 38.2879 43.6364 38.3306V51.8347C43.6364 51.8773 43.6162 51.9182 43.5802 51.9484C43.5442 51.9785 43.4954 51.9954 43.4445 51.9954Z" fill="#CCCCCC"/>
<path d="M44.7874 49.2625C44.7366 49.2625 44.6878 49.2455 44.6518 49.2154C44.6158 49.1852 44.5956 49.1443 44.5956 49.1017V41.0635C44.5956 41.0209 44.6158 40.98 44.6518 40.9499C44.6878 40.9197 44.7366 40.9028 44.7874 40.9028C44.8383 40.9028 44.8871 40.9197 44.9231 40.9499C44.9591 40.98 44.9793 41.0209 44.9793 41.0635V49.1017C44.9793 49.1443 44.9591 49.1852 44.9231 49.2154C44.8871 49.2455 44.8383 49.2625 44.7874 49.2625Z" fill="#CCCCCC"/>
<path d="M46.1305 49.9055C46.0796 49.9055 46.0308 49.8886 45.9948 49.8584C45.9588 49.8283 45.9386 49.7874 45.9386 49.7447V40.4205C45.9386 40.3778 45.9588 40.3369 45.9948 40.3068C46.0308 40.2766 46.0796 40.2597 46.1305 40.2597C46.1813 40.2597 46.2301 40.2766 46.2661 40.3068C46.3021 40.3369 46.3223 40.3778 46.3223 40.4205V49.7447C46.3223 49.7874 46.3021 49.8283 46.2661 49.8584C46.2301 49.8886 46.1813 49.9055 46.1305 49.9055Z" fill="#CCCCCC"/>
<path d="M47.4735 48.0567C47.4226 48.0567 47.3738 48.0398 47.3378 48.0096C47.3018 47.9795 47.2816 47.9386 47.2816 47.8959V42.2692C47.2816 42.2266 47.3018 42.1857 47.3378 42.1555C47.3738 42.1254 47.4226 42.1085 47.4735 42.1085C47.5244 42.1085 47.5732 42.1254 47.6091 42.1555C47.6451 42.1857 47.6653 42.2266 47.6653 42.2692V47.8959C47.6653 47.9386 47.6451 47.9795 47.6091 48.0096C47.5732 48.0398 47.5244 48.0567 47.4735 48.0567Z" fill="#CCCCCC"/>
<path d="M48.6246 48.0567C48.5737 48.0567 48.5249 48.0398 48.4889 48.0096C48.4529 47.9795 48.4327 47.9386 48.4327 47.8959V42.2692C48.4327 42.2266 48.4529 42.1857 48.4889 42.1555C48.5249 42.1254 48.5737 42.1085 48.6246 42.1085C48.6755 42.1085 48.7243 42.1254 48.7603 42.1555C48.7962 42.1857 48.8164 42.2266 48.8164 42.2692V47.8959C48.8164 47.9386 48.7962 47.9795 48.7603 48.0096C48.7243 48.0398 48.6755 48.0567 48.6246 48.0567Z" fill="#CCCCCC"/>
<path d="M49.9676 48.9409C49.9167 48.9409 49.8679 48.9239 49.8319 48.8938C49.796 48.8636 49.7758 48.8228 49.7758 48.7801V41.385C49.7758 41.3424 49.796 41.3015 49.8319 41.2713C49.8679 41.2412 49.9167 41.2242 49.9676 41.2242C50.0185 41.2242 50.0673 41.2412 50.1033 41.2713C50.1393 41.3015 50.1595 41.3424 50.1595 41.385V48.7801C50.1595 48.8228 50.1393 48.8636 50.1033 48.8938C50.0673 48.9239 50.0185 48.9409 49.9676 48.9409Z" fill="#CCCCCC"/>
<path d="M51.3105 49.5036C51.2596 49.5036 51.2108 49.4867 51.1748 49.4565C51.1389 49.4264 51.1187 49.3855 51.1187 49.3428V40.8224C51.1187 40.7797 51.1389 40.7389 51.1748 40.7087C51.2108 40.6786 51.2596 40.6616 51.3105 40.6616C51.3614 40.6616 51.4102 40.6786 51.4462 40.7087C51.4821 40.7389 51.5024 40.7797 51.5024 40.8224V49.3428C51.5024 49.3855 51.4821 49.4264 51.4462 49.4565C51.4102 49.4867 51.3614 49.5036 51.3105 49.5036Z" fill="#CCCCCC"/>
<path d="M52.6535 50.9504C52.6026 50.9504 52.5538 50.9335 52.5179 50.9034C52.4819 50.8732 52.4617 50.8323 52.4617 50.7897V39.3755C52.4617 39.3328 52.4819 39.292 52.5179 39.2618C52.5538 39.2317 52.6026 39.2147 52.6535 39.2147C52.7044 39.2147 52.7532 39.2317 52.7892 39.2618C52.8252 39.292 52.8454 39.3328 52.8454 39.3755V50.7897C52.8454 50.8323 52.8252 50.8732 52.7892 50.9034C52.7532 50.9335 52.7044 50.9504 52.6535 50.9504Z" fill="#CCCCCC"/>
<path d="M53.9965 55.693C53.9457 55.693 53.8969 55.676 53.8609 55.6459C53.8249 55.6157 53.8047 55.5749 53.8047 55.5322V34.633C53.8047 34.5904 53.8249 34.5495 53.8609 34.5193C53.8969 34.4892 53.9457 34.4722 53.9965 34.4722C54.0474 34.4722 54.0962 34.4892 54.1322 34.5193C54.1682 34.5495 54.1884 34.5904 54.1884 34.633V55.5322C54.1884 55.5749 54.1682 55.6157 54.1322 55.6459C54.0962 55.676 54.0474 55.693 53.9965 55.693Z" fill="#CCCCCC"/>
<path d="M55.3396 50.9504C55.2887 50.9504 55.2399 50.9335 55.2039 50.9034C55.1679 50.8732 55.1477 50.8323 55.1477 50.7897V39.3755C55.1477 39.3328 55.1679 39.292 55.2039 39.2618C55.2399 39.2317 55.2887 39.2147 55.3396 39.2147C55.3904 39.2147 55.4392 39.2317 55.4752 39.2618C55.5112 39.292 55.5314 39.3328 55.5314 39.3755V50.7897C55.5314 50.8323 55.5112 50.8732 55.4752 50.9034C55.4392 50.9335 55.3904 50.9504 55.3396 50.9504Z" fill="#CCCCCC"/>
<path d="M56.6825 51.9954C56.6316 51.9954 56.5828 51.9785 56.5468 51.9484C56.5108 51.9182 56.4906 51.8773 56.4906 51.8347V38.3306C56.4906 38.2879 56.5108 38.247 56.5468 38.2169C56.5828 38.1867 56.6316 38.1698 56.6825 38.1698C56.7333 38.1698 56.7821 38.1867 56.8181 38.2169C56.8541 38.247 56.8743 38.2879 56.8743 38.3306V51.8347C56.8743 51.8773 56.8541 51.9182 56.8181 51.9484C56.7821 51.9785 56.7333 51.9954 56.6825 51.9954Z" fill="#CCCCCC"/>
<path d="M58.0255 49.2625C57.9746 49.2625 57.9258 49.2455 57.8898 49.2154C57.8538 49.1852 57.8336 49.1443 57.8336 49.1017V41.0635C57.8336 41.0209 57.8538 40.98 57.8898 40.9499C57.9258 40.9197 57.9746 40.9028 58.0255 40.9028C58.0764 40.9028 58.1252 40.9197 58.1611 40.9499C58.1971 40.98 58.2173 41.0209 58.2173 41.0635V49.1017C58.2173 49.1443 58.1971 49.1852 58.1611 49.2154C58.1252 49.2455 58.0764 49.2625 58.0255 49.2625Z" fill="#CCCCCC"/>
<path d="M59.3685 49.9055C59.3176 49.9055 59.2688 49.8886 59.2328 49.8584C59.1969 49.8283 59.1766 49.7874 59.1766 49.7447V40.4205C59.1766 40.3778 59.1969 40.3369 59.2328 40.3068C59.2688 40.2766 59.3176 40.2597 59.3685 40.2597C59.4194 40.2597 59.4682 40.2766 59.5042 40.3068C59.5401 40.3369 59.5603 40.3778 59.5603 40.4205V49.7447C59.5603 49.7874 59.5401 49.8283 59.5042 49.8584C59.4682 49.8886 59.4194 49.9055 59.3685 49.9055Z" fill="#CCCCCC"/>
<path d="M60.7114 48.0567C60.6605 48.0567 60.6117 48.0398 60.5757 48.0096C60.5397 47.9795 60.5195 47.9386 60.5195 47.8959V42.2692C60.5195 42.2266 60.5397 42.1857 60.5757 42.1555C60.6117 42.1254 60.6605 42.1085 60.7114 42.1085C60.7623 42.1085 60.8111 42.1254 60.8471 42.1555C60.883 42.1857 60.9032 42.2266 60.9032 42.2692V47.8959C60.9032 47.9386 60.883 47.9795 60.8471 48.0096C60.8111 48.0398 60.7623 48.0567 60.7114 48.0567Z" fill="#CCCCCC"/>
<path d="M14.2826 86.8846V92.6239L19.6545 89.7543L14.2826 86.8846Z" fill="#3F3D56"/>
<path d="M37.1436 92.0308C38.6398 90.7783 38.6366 88.7429 37.1364 87.4847C35.6363 86.2265 33.2073 86.2219 31.7111 87.4745C30.2149 88.727 30.2181 90.7624 31.7182 92.0206C33.2184 93.2788 35.6474 93.2834 37.1436 92.0308Z" fill="#6C63FF"/>
<path d="M51.1743 92.3248H49.8601C49.6859 92.3248 49.5188 92.267 49.3954 92.1639C49.2721 92.0608 49.2025 91.921 49.202 91.775V87.7334C49.2025 87.5873 49.272 87.4473 49.3953 87.344C49.5186 87.2407 49.6857 87.1824 49.8601 87.182H51.1743C51.3488 87.182 51.5162 87.2401 51.6396 87.3435C51.763 87.4469 51.8324 87.5872 51.8324 87.7334V91.7766C51.8321 91.8488 51.8149 91.9203 51.7817 91.9869C51.7485 92.0535 51.6999 92.114 51.6388 92.1649C51.5777 92.2158 51.5052 92.2562 51.4255 92.2836C51.3458 92.311 51.2605 92.325 51.1743 92.3248ZM55.3395 91.7766V87.7334C55.3395 87.5875 55.2704 87.4474 55.1474 87.3441C55.0244 87.2407 54.8575 87.1824 54.6833 87.182H53.3672C53.1928 87.1824 53.0257 87.2407 52.9024 87.344C52.7791 87.4473 52.7096 87.5873 52.7091 87.7334V91.7766C52.7096 91.9226 52.7792 92.0624 52.9026 92.1655C53.0259 92.2686 53.193 92.3264 53.3672 92.3264H54.6833C54.7695 92.3264 54.8548 92.3122 54.9344 92.2846C55.014 92.257 55.0864 92.2165 55.1473 92.1654C55.2082 92.1144 55.2566 92.0537 55.2895 91.987C55.3225 91.9203 55.3395 91.8488 55.3395 91.7766H55.3395Z" fill="#3F3D56"/>
<path d="M51.6265 64.5371H17.9955C17.935 64.537 17.8771 64.5168 17.8344 64.4809C17.7917 64.445 17.7677 64.3964 17.7677 64.3457C17.7677 64.295 17.7917 64.2464 17.8344 64.2106C17.8771 64.1747 17.935 64.1544 17.9955 64.1543H51.6265C51.6871 64.1543 51.7452 64.1745 51.788 64.2104C51.8309 64.2463 51.8549 64.2949 51.8549 64.3457C51.8549 64.3965 51.8309 64.4452 51.788 64.4811C51.7452 64.517 51.6871 64.5371 51.6265 64.5371Z" fill="#CCCCCC"/>
<path d="M51.6265 25.9539H17.9955C17.935 25.9538 17.8771 25.9336 17.8344 25.8977C17.7917 25.8618 17.7677 25.8132 17.7677 25.7625C17.7677 25.7119 17.7917 25.6632 17.8344 25.6274C17.8771 25.5915 17.935 25.5713 17.9955 25.5711H51.6265C51.687 25.5713 51.7449 25.5915 51.7876 25.6274C51.8303 25.6632 51.8543 25.7119 51.8543 25.7625C51.8543 25.8132 51.8303 25.8618 51.7876 25.8977C51.7449 25.9336 51.687 25.9538 51.6265 25.9539Z" fill="#CCCCCC"/>
<path d="M106.025 51.0378C106.001 51.0378 105.978 51.0365 105.955 51.034L99.3944 50.3123C99.2982 50.3016 99.2072 50.2694 99.1309 50.2192C99.0546 50.1689 98.9957 50.1025 98.9605 50.0267C98.9253 49.9509 98.915 49.8686 98.9307 49.7884C98.9464 49.7081 98.9875 49.6329 99.0497 49.5705L103.622 45.0043C103.685 44.9413 103.766 44.8936 103.858 44.8662C103.949 44.8387 104.048 44.8325 104.144 44.8483C104.24 44.8641 104.328 44.9012 104.401 44.9557C104.474 45.0102 104.527 45.0802 104.556 45.1581L106.542 50.4463C106.567 50.5144 106.573 50.5866 106.56 50.657C106.546 50.7275 106.512 50.7942 106.462 50.8518C106.412 50.9094 106.346 50.9563 106.27 50.9886C106.194 51.0209 106.11 51.0378 106.025 51.0378L106.025 51.0378Z" fill="#F2F2F2"/>
<path d="M93.7382 75.7866C93.5957 75.7865 93.459 75.7395 93.3575 75.6557C93.2561 75.5718 93.1982 75.4579 93.1962 75.3385L93.1115 69.3782C93.1097 69.2965 93.1342 69.216 93.1825 69.145C93.2307 69.0741 93.3009 69.0153 93.3857 68.975C93.4705 68.9347 93.5666 68.9144 93.6641 68.9161C93.7615 68.9177 93.8566 68.9415 93.9393 68.9847L99.5588 71.9105C99.6363 71.9507 99.7005 72.0067 99.7453 72.0731C99.7902 72.1396 99.8144 72.2145 99.8156 72.2909C99.8168 72.3673 99.795 72.4426 99.7522 72.5101C99.7095 72.5776 99.6471 72.6349 99.5709 72.6768L94.0346 75.7129C93.9487 75.7599 93.8486 75.7854 93.746 75.7866H93.7382Z" fill="#F2F2F2"/>
<path d="M145.923 84.9501C145.78 84.95 145.644 84.903 145.542 84.8192C145.441 84.7353 145.383 84.6214 145.381 84.502L145.296 78.5417C145.294 78.46 145.319 78.3795 145.367 78.3085C145.415 78.2376 145.485 78.1788 145.57 78.1385C145.655 78.0982 145.751 78.0779 145.849 78.0796C145.946 78.0813 146.041 78.105 146.124 78.1482L151.743 81.074C151.821 81.1142 151.885 81.1702 151.93 81.2367C151.975 81.3031 151.999 81.378 152 81.4544C152.001 81.5308 151.98 81.6062 151.937 81.6736C151.894 81.7411 151.832 81.7984 151.755 81.8403L146.219 84.8764C146.133 84.9234 146.033 84.949 145.931 84.9501H145.923Z" fill="#F2F2F2"/>
<path d="M118.603 64.892C117.047 64.293 116.024 62.5807 116.082 60.892C116.141 59.2032 117.201 57.6238 118.664 56.8185C119.377 56.4356 120.192 56.2072 121.037 56.1537C121.881 56.1002 122.729 56.2234 123.502 56.5121C125.072 57.0721 127.18 57.2246 128.124 58.6164C128.849 59.6859 128.587 62.0719 128.074 63.2612C127.63 64.2891 126.545 64.8683 125.487 65.1924C124.316 65.5479 123.067 65.6885 121.826 65.6047C120.584 65.5209 119.379 65.2146 118.291 64.7066" fill="#2F2E41"/>
<path d="M135.813 112.117L133.609 112.804L129.395 106.007L132.648 104.992L135.813 112.117Z" fill="#FFB8B8"/>
<path d="M131.8 112.768L136.051 111.442L137.047 113.685L130.119 115.845C129.988 115.551 129.928 115.238 129.942 114.924C129.955 114.61 130.043 114.301 130.199 114.015C130.355 113.729 130.576 113.472 130.851 113.258C131.126 113.044 131.448 112.877 131.8 112.768Z" fill="#2F2E41"/>
<path d="M114.667 114.015H112.315L111.196 106.413H114.667L114.667 114.015Z" fill="#FFB8B8"/>
<path d="M110.635 113.452H115.171V115.845H107.779C107.779 115.531 107.853 115.22 107.996 114.929C108.14 114.639 108.35 114.375 108.615 114.153C108.881 113.931 109.195 113.754 109.542 113.634C109.888 113.514 110.26 113.452 110.635 113.452Z" fill="#2F2E41"/>
<path d="M107.515 86.6125C107.815 86.5855 108.104 86.5038 108.362 86.3732C108.62 86.2425 108.84 86.0661 109.008 85.8563C109.175 85.6465 109.286 85.4085 109.332 85.159C109.378 84.9094 109.358 84.6545 109.274 84.4121L117.011 73.2274L114.305 72.3206L106.571 83.256C106.094 83.4017 105.698 83.6888 105.457 84.0629C105.216 84.437 105.147 84.8722 105.264 85.2859C105.38 85.6996 105.674 86.0632 106.089 86.3077C106.504 86.5522 107.011 86.6606 107.515 86.6125V86.6125Z" fill="#FFB8B8"/>
<path d="M115.273 77.2034L111.161 75.0625L115.039 69.1418C115.209 68.8813 115.44 68.6521 115.719 68.4678C115.997 68.2835 116.316 68.1478 116.658 68.0688C117 67.9898 117.357 67.969 117.709 68.0077C118.061 68.0464 118.399 68.1438 118.705 68.2941C119.011 68.4444 119.278 68.6447 119.49 68.8829C119.702 69.1212 119.855 69.3926 119.939 69.6812C120.024 69.9698 120.038 70.2697 119.982 70.5631C119.926 70.8565 119.8 71.1375 119.612 71.3894L115.273 77.2034Z" fill="#2F2E41"/>
<path d="M130.974 108.857C130.814 108.857 130.658 108.82 130.522 108.749C130.386 108.679 130.277 108.578 130.205 108.459L119.975 90.8142C119.913 90.7102 119.813 90.6251 119.69 90.5708C119.566 90.5164 119.426 90.4955 119.288 90.5108C119.15 90.5261 119.021 90.5769 118.92 90.6563C118.818 90.7356 118.748 90.8395 118.719 90.9537L115.075 107.77C115.034 107.933 114.928 108.08 114.774 108.185C114.62 108.29 114.428 108.347 114.229 108.348H111.907C111.692 108.349 111.483 108.282 111.324 108.16C111.165 108.038 111.066 107.871 111.047 107.691C109.621 94.5748 110.393 85.0303 113.341 79.3225C113.425 79.1639 113.573 79.0355 113.76 78.9603C113.946 78.8852 114.158 78.8683 114.358 78.9127L126.146 81.5662C126.294 81.5997 126.429 81.6657 126.537 81.7575C126.645 81.8493 126.721 81.9635 126.759 82.0884L134.147 107.34C134.2 107.518 134.17 107.707 134.063 107.868C133.956 108.029 133.779 108.15 133.569 108.205L131.236 108.823C131.151 108.845 131.063 108.857 130.974 108.857Z" fill="#2F2E41"/>
<path d="M121.818 66.4931C124.42 66.4931 126.53 64.7253 126.53 62.5446C126.53 60.3639 124.42 58.5961 121.818 58.5961C119.215 58.5961 117.106 60.3639 117.106 62.5446C117.106 64.7253 119.215 66.4931 121.818 66.4931Z" fill="#FFB8B8"/>
<path d="M126.268 68.3181C126.268 68.3181 122.047 66.3889 118.786 68.4789C118.786 68.4789 114.661 71.9353 116.004 75.3113L112.646 83.2691C115.303 87.4901 123.08 86.8067 126.844 83.2691L126.556 75.6328L126.268 68.3181Z" fill="#6C63FF"/>
<path d="M128.94 89.5751C128.206 89.5919 127.478 89.4563 126.822 89.1805C125.785 88.7146 125.148 87.8384 124.926 86.5764C124.556 84.4684 124.861 81.5707 125.184 78.503C125.603 74.5132 126.037 70.3876 124.875 68.1172C124.815 67.9977 124.794 67.8666 124.815 67.738C124.835 67.6093 124.897 67.4877 124.993 67.3859C125.09 67.2842 125.217 67.2062 125.362 67.16C125.507 67.1138 125.664 67.1012 125.817 67.1235L129.121 67.601C129.293 67.6264 129.452 67.6947 129.577 67.797C129.702 67.8992 129.787 68.0307 129.822 68.1742L134.403 87.6757C134.441 87.8337 134.414 87.9977 134.327 88.1415C134.241 88.2854 134.099 88.4008 133.925 88.4694C132.928 88.863 130.856 89.5751 128.94 89.5751Z" fill="#2F2E41"/>
<path d="M111.635 89.3158C111.517 89.3158 111.399 89.2954 111.291 89.2559C110.747 89.059 109.995 88.773 109.057 88.406C106.464 87.3922 113.301 73.3862 114.698 70.5889C114.747 70.4915 114.82 70.4043 114.914 70.3334L118.656 67.4789C118.801 67.3847 118.977 67.3314 119.16 67.3266C119.343 67.3218 119.523 67.3658 119.674 67.4522C119.825 67.5387 119.939 67.6631 120 67.8076C120.061 67.952 120.066 68.109 120.014 68.2559C119.357 70.1004 118.194 73.1924 116.962 76.4659C115.018 81.6321 113.008 86.9742 112.471 88.7696C112.424 88.9257 112.317 89.0642 112.165 89.1632C112.014 89.2621 111.827 89.3159 111.635 89.3158L111.635 89.3158Z" fill="#2F2E41"/>
<path d="M137.942 85.9283C138.097 85.7116 138.193 85.4692 138.224 85.2181C138.255 84.9669 138.22 84.7132 138.121 84.4746C138.022 84.2361 137.862 84.0186 137.652 83.8376C137.442 83.6565 137.188 83.5161 136.906 83.4265L130.914 71.5133L128.42 72.7768L134.176 84.5379C134.028 84.9444 134.062 85.3824 134.274 85.7688C134.485 86.1553 134.858 86.4634 135.322 86.6348C135.786 86.8062 136.309 86.8289 136.792 86.6987C137.275 86.5685 137.684 86.2943 137.942 85.9283Z" fill="#FFB8B8"/>
<path d="M129.138 76.5313L125.834 70.3709C125.689 70.0998 125.61 69.8071 125.602 69.51C125.594 69.2129 125.657 68.9175 125.788 68.6412C125.919 68.365 126.114 68.1135 126.363 67.9016C126.612 67.6898 126.909 67.5218 127.236 67.4078C127.564 67.2938 127.915 67.236 128.27 67.2378C128.624 67.2396 128.975 67.3009 129.301 67.4183C129.627 67.5356 129.921 67.7065 130.167 67.9208C130.412 68.1352 130.604 68.3886 130.731 68.6662L133.654 75.0711L129.138 76.5313Z" fill="#2F2E41"/>
<path d="M125.168 57.6299C125.338 57.6506 125.511 57.6239 125.661 57.5539C125.81 57.4839 125.928 57.3744 125.996 57.2425C126.059 57.1089 126.085 56.965 126.071 56.8218C126.057 56.6786 126.004 56.54 125.916 56.4166C125.738 56.1706 125.489 55.9659 125.192 55.8212C124.85 55.6297 124.455 55.5157 124.044 55.4904C123.84 55.4791 123.635 55.5049 123.443 55.5659C123.251 55.6269 123.077 55.7217 122.933 55.8439C122.792 55.9692 122.699 56.1268 122.666 56.2965C122.633 56.4663 122.661 56.6405 122.746 56.7969C122.919 57.0753 123.28 57.2314 123.633 57.3374C124.331 57.5472 125.076 57.6291 125.815 57.5777" fill="#2F2E41"/>
<path d="M126.844 61.8876C126.109 62.0667 126.149 61.7352 125.747 61.1904C125.344 60.6455 124.821 60.0044 124.057 60.0385C123.431 60.0665 122.996 60.5428 122.55 60.9117C121.754 61.5691 120.6 61.9855 119.509 61.7848C118.418 61.5841 117.519 60.6409 117.758 59.7267C117.838 59.4726 117.98 59.2349 118.174 59.0284C118.368 58.8219 118.61 58.651 118.887 58.5263C119.441 58.2797 120.05 58.1306 120.676 58.0881C122.06 57.9547 123.463 58.0777 124.785 58.4483C125.697 58.7048 126.615 59.1197 127.069 59.8308C127.523 60.5418 127.921 61.5707 127.036 61.8876L126.844 61.8876Z" fill="#2F2E41"/>
<path d="M124.52 55.5932C123.898 54.9323 124.132 53.8911 124.857 53.3085C125.582 52.726 126.661 52.5444 127.661 52.6185C128.653 52.7022 129.6 53.0028 130.409 53.4903C131.218 53.9777 131.86 54.6348 132.27 55.3957C132.903 56.6077 132.897 57.9941 133.469 59.2271C133.774 59.8843 134.236 60.4823 134.827 60.9842C135.418 61.4862 136.126 61.8814 136.906 62.1456C137.686 62.4098 138.523 62.5374 139.364 62.5205C140.205 62.5035 141.034 62.3425 141.798 62.0473C142.793 61.6627 143.741 60.9096 143.684 59.9924C144.313 62.0255 143.18 64.3511 141.032 65.4338C139.774 66.068 138.284 66.2833 136.827 66.4314C135.877 66.528 134.901 66.5998 133.974 66.4009C132.677 66.1226 131.591 65.3206 130.934 64.3435C130.276 63.3664 130.018 62.2278 130.008 61.1061C130 60.2323 130.136 59.3581 130.064 58.4863C129.992 57.6146 129.679 56.7129 128.925 56.1094C128.171 55.5058 126.899 55.3072 126.071 55.8388C125.738 56.0525 125.495 56.3645 125.12 56.5221C124.746 56.6797 124.154 56.5571 124.129 56.2066L124.52 55.5932Z" fill="#2F2E41"/>
<path d="M149.704 116.076H90.7479C90.6875 116.076 90.6295 116.056 90.5868 116.02C90.5441 115.984 90.5201 115.936 90.5201 115.885C90.5201 115.834 90.5441 115.786 90.5868 115.75C90.6295 115.714 90.6875 115.694 90.7479 115.693H149.704C149.764 115.694 149.822 115.714 149.865 115.75C149.908 115.786 149.932 115.834 149.932 115.885C149.932 115.936 149.908 115.984 149.865 116.02C149.822 116.056 149.764 116.076 149.704 116.076Z" fill="#3F3D56"/>
</g>
<defs>
<clipPath id="clip0_304_658">
<rect width="152" height="117" fill="white"/>
</clipPath>
</defs>
</svg>
