<svg width="213" height="222" viewBox="0 0 213 222" fill="none" xmlns="http://www.w3.org/2000/svg">
<path d="M90.4588 7.31828C90.4471 7.29338 90.4365 7.26731 90.4275 7.24093L90.4412 7.22342C90.4488 7.25444 90.4549 7.28606 90.4588 7.31828Z" fill="#3FBDF1"/>
<path d="M90.5196 7.66345C90.4968 7.56954 90.4799 7.47324 90.4693 7.37598C90.5082 7.46388 90.5256 7.56363 90.5196 7.66345Z" fill="#3FBDF1"/>
<path d="M102.423 106.722C102.367 106.887 102.32 107.049 102.264 107.22C98.1461 120.237 95.3656 135.778 94.9352 154.334C82.4634 118.34 62.3851 101.128 44.6043 92.9865C44.7475 80.8941 45.8045 59.8537 51.1709 46.8555C51.1709 46.8555 60.6125 49.431 72.612 60.7093C82.0792 69.6076 93.1524 83.9404 102.423 106.722Z" fill="#6C63FF"/>
<path d="M104.183 106.5L103.778 106.394C103.834 106.22 103.883 106.055 103.936 105.887C104.018 106.087 104.103 106.314 104.183 106.5Z" fill="#3FBDF1"/>
<path d="M104.183 106.5L103.778 106.394C103.834 106.22 103.883 106.055 103.936 105.887C104.018 106.087 104.103 106.314 104.183 106.5Z" fill="#3FBDF1"/>
<path d="M97.6499 189.646C97.5357 189.648 97.4167 189.65 97.3048 189.651C52.7133 190.323 15.1743 149.125 7.77107 94.6733C7.25865 90.0236 7.151 87.244 7.151 87.244C7.151 87.244 23.2124 84.9846 41.9986 93.7772C58.6596 101.576 77.4677 118.052 89.1569 152.495L89.1573 152.521C89.2279 152.727 89.2984 152.931 89.3622 153.146C92.8569 163.569 95.6942 175.628 97.6348 189.569C97.6422 189.594 97.6495 189.62 97.6499 189.646Z" fill="#6C63FF"/>
<path d="M199.983 86.0113C196.612 147.862 156.746 196.988 107.289 197.98C107.276 195.174 107.531 163.447 122.611 134.46C129.349 121.38 138.497 110.465 149.313 102.6C149.62 102.373 149.918 102.159 150.237 101.943C150.613 101.67 150.999 101.407 151.392 101.145C151.491 101.071 151.597 101.003 151.706 100.93C152.082 100.676 152.459 100.423 152.845 100.178C153.044 100.048 153.242 99.9152 153.45 99.7939C153.862 99.5226 154.282 99.2568 154.703 99.0026C155.124 98.7484 155.494 98.5238 155.894 98.2901L156.035 98.2044C156.336 98.0241 156.634 97.8553 156.94 97.6864C157.319 97.4588 157.696 97.2514 158.08 97.0438C159.2 96.4217 160.356 95.8279 161.535 95.2626L161.943 95.0633C162.44 94.8166 162.941 94.5814 163.448 94.3518C173.644 89.7022 185.718 86.6642 199.983 86.0113Z" fill="#6C63FF"/>
<path d="M132.254 58.3611C122.286 67.9702 111.119 83.0473 103.937 105.886C94.6667 82.6524 83.6197 68.0281 74.1685 58.9508C79.4895 46.1896 91.5921 20.2331 102.766 8.00917C102.766 8.00917 120.247 28.7185 132.254 58.3611Z" fill="#6C63FF"/>
<path d="M162.395 91.9555C161.899 92.1792 161.408 92.4114 160.917 92.6522L160.518 92.8484C159.36 93.4048 158.23 93.9896 157.131 94.5998C156.754 94.8044 156.383 95.0059 156.013 95.2277C155.713 95.3965 155.419 95.5623 155.125 95.7368L154.984 95.8196C154.593 96.0503 154.202 96.281 153.828 96.5229C153.454 96.7649 153.003 97.0282 152.596 97.2966C152.395 97.4149 152.198 97.5447 152.004 97.6744C151.625 97.9136 151.255 98.1612 150.886 98.4118C150.782 98.4854 150.676 98.5475 150.579 98.621C150.202 98.8803 149.826 99.1367 149.454 99.4046C149.147 99.6167 148.854 99.8258 148.554 100.046C137.94 107.761 128.961 118.468 122.346 131.299C107.557 159.732 107.305 190.856 107.317 193.608L107.281 193.528C105.251 178.952 102.287 166.345 98.6319 155.448L98.891 154.329L98.4195 154.794C98.4195 154.794 98.4195 154.794 98.4193 154.777C98.8356 136.216 101.551 120.661 105.58 107.651L105.976 107.752L105.734 107.153C112.78 84.7485 123.735 69.9599 133.519 60.5352C145.043 49.4386 154.949 45.7531 154.949 45.7531C160.378 53.7872 161.948 78.5895 162.395 91.9555Z" fill="#6C63FF"/>
<path d="M96.0569 157.548L96.0565 157.519C96.0565 157.519 96.0568 157.536 96.0569 157.548Z" stroke="#CCDDE2" stroke-width="3.97" stroke-miterlimit="10"/>
<path d="M103.938 106.168C103.88 106.345 103.829 106.518 103.771 106.704C99.4271 120.736 96.4987 137.51 96.0474 157.527C82.8699 118.694 61.6641 100.116 42.8804 91.3288C43.0261 78.2825 44.1363 55.5869 49.8029 41.5639C49.8029 41.5639 59.7722 44.3448 72.447 56.5178C82.4468 66.1201 94.1427 81.5876 103.938 106.168Z" stroke="#CCDDE2" stroke-width="3.97" stroke-miterlimit="10"/>
<path d="M104.199 106.815L103.77 106.704C103.828 106.518 103.88 106.345 103.938 106.168C104.025 106.38 104.107 106.601 104.199 106.815Z" stroke="#CCDDE2" stroke-width="3.97" stroke-miterlimit="10"/>
<path d="M96.0569 157.548L96.0565 157.519C96.0565 157.519 96.0568 157.536 96.0569 157.548Z" stroke="#CCDDE2" stroke-width="3.97" stroke-miterlimit="10"/>
<path d="M104.199 106.815L103.77 106.704C103.828 106.518 103.88 106.345 103.938 106.168C104.025 106.38 104.107 106.601 104.199 106.815Z" stroke="#CCDDE2" stroke-width="3.97" stroke-miterlimit="10"/>
<path opacity="0.9" d="M27.7113 154.481C26.8703 153.252 26.0428 151.993 25.2453 150.714C14.5126 133.637 7.31602 113.593 4.28538 92.3368C3.53168 87.1288 3.59108 83.9634 3.59108 83.9634C3.59108 83.9634 21.6893 81.4197 42.8823 91.3288C61.6684 100.119 82.867 118.682 96.047 157.527L96.0475 157.559C96.1278 157.791 96.2104 158.023 96.2769 158.264C100.225 170.021 103.42 183.611 105.61 199.337C105.61 199.366 105.611 199.395 105.611 199.426C105.478 199.428 105.352 199.43 105.22 199.432C79.2014 199.778 55.2893 187.313 37.0971 166.635C35.2001 164.482 33.3508 162.23 31.5818 159.896" stroke="#CCDDE2" stroke-width="3.97" stroke-miterlimit="10"/>
<path d="M96.0569 157.548L96.0565 157.519C96.0565 157.519 96.0568 157.536 96.0569 157.548Z" stroke="#CCDDE2" stroke-width="3.97" stroke-miterlimit="10"/>
<path opacity="0.9" d="M203.712 80.9576C200.145 146.391 157.976 198.352 105.653 199.403C105.641 196.435 105.911 162.872 121.86 132.206C128.991 118.37 138.67 106.824 150.113 98.504C150.438 98.2657 150.755 98.039 151.085 97.8121C151.484 97.5179 151.891 97.2466 152.297 96.9667C152.401 96.8873 152.514 96.8193 152.628 96.7398C153.027 96.4715 153.427 96.2032 153.834 95.9464C154.044 95.8049 154.254 95.6518 154.474 95.5361C154.91 95.2413 155.354 94.9724 155.801 94.7034C156.247 94.4344 156.635 94.1951 157.059 93.9466L157.209 93.855C157.526 93.6658 157.843 93.4881 158.167 93.3074C158.567 93.0679 158.965 92.8487 159.372 92.6293C160.557 91.9716 161.779 91.3422 163.026 90.7412L163.456 90.5301C163.984 90.2714 164.513 90.0185 165.05 89.7798C175.851 84.8502 188.624 81.6489 203.712 80.9576Z" stroke="#CCDDE2" stroke-width="3.97" stroke-miterlimit="10"/>
<path d="M133.893 55.8963C123.35 66.0587 111.535 82.0073 103.938 106.17C94.1427 81.5891 82.4467 66.1216 72.4469 56.5193C78.0837 43.0127 90.8809 15.5615 102.693 2.63043C102.7 2.63032 121.178 24.538 133.893 55.8963Z" stroke="#CCDDE2" stroke-width="3.97" stroke-miterlimit="10"/>
<path d="M34.2811 128.819C34.2831 128.8 34.2828 128.78 34.2803 128.761C34.28 128.741 34.2797 128.721 34.2791 128.683C34.275 128.651 34.2745 128.618 34.2777 128.585C34.2852 128.654 34.297 128.723 34.313 128.79C34.3096 128.797 34.3051 128.803 34.2996 128.808C34.2939 128.813 34.2878 128.817 34.2811 128.819Z" fill="white"/>
<path d="M34.6358 147.446C34.2966 148.886 33.8571 150.286 33.3222 151.631C33.1691 152.01 33.0181 152.382 32.8509 152.753C32.2815 154.128 31.5769 155.411 30.753 156.572C30.6029 156.513 30.4525 156.438 30.3186 156.374C30.2883 156.374 30.2623 156.346 30.2388 156.334C27.501 154.912 25.421 152.196 24.7703 149.119C24.1902 146.41 24.6352 143.464 23.5538 140.93C22.2214 137.808 18.7232 135.895 18.2383 132.352C17.7988 129.039 20.1732 125.956 19.7323 122.712C19.2316 119.039 15.5414 116.913 14.8135 113.333C14.3499 111.109 14.6977 108.53 14.5083 106.233C14.2909 103.666 13.9016 101.124 13.3447 98.6337C13.5963 98.6098 13.848 98.5973 14.0997 98.582C19.2284 98.3981 24.3564 101.886 26.0937 106.883C27.4953 110.92 26.8794 115.616 28.7158 119.392C28.8273 119.636 28.9513 119.871 29.0874 120.096C29.3269 120.493 29.584 120.874 29.8572 121.237L30.4344 121.957C30.5293 122.071 30.6335 122.176 30.7286 122.302C30.8237 122.427 30.9278 122.532 31.0252 122.657C31.9264 123.69 32.8465 124.734 33.4522 125.978C33.508 126.086 33.557 126.199 33.5993 126.316C33.656 126.429 33.7043 126.548 33.7444 126.671C33.7968 126.797 33.8439 126.926 33.8852 127.058C33.9339 127.202 33.9756 127.345 34.0152 127.503C34.0745 127.736 34.1337 127.957 34.1744 128.19C34.1752 128.247 34.1759 128.296 34.1929 128.345C34.21 128.394 34.1935 128.382 34.1938 128.403C34.1975 128.421 34.1978 128.441 34.1946 128.46C34.1983 128.493 34.2044 128.526 34.2123 128.558L34.2126 128.578C34.2141 128.614 34.2193 128.65 34.2282 128.684C34.2287 128.722 34.229 128.742 34.2293 128.762C34.2319 128.781 34.2322 128.801 34.2301 128.82L34.2304 128.84L33.7823 139.678C34.2071 142.291 35.2124 144.887 34.6358 147.446Z" fill="white"/>
<path d="M38.8187 121.092C39.179 118.738 39.1739 116.274 40.0371 114.019C41.6426 109.862 46.4639 106.789 51.5611 106.519L51.6544 106.517C52.1208 106.51 52.5871 106.503 53.054 106.525C52.5572 108.681 52.2291 110.892 52.0737 113.128C51.9298 115.119 52.3676 117.337 51.9497 119.255C51.2784 122.369 47.4975 124.31 47.0814 127.49C46.7115 130.308 49.2702 132.901 48.8963 135.769C48.4926 138.841 44.9049 140.593 43.6103 143.342C42.5647 145.562 43.1048 148.084 42.5811 150.433C41.9666 153.111 39.8554 155.52 37.0494 156.813C36.8686 156.894 36.7065 156.974 36.5256 157.046C36.4304 157.076 36.3215 157.127 36.2287 157.157C36.1956 157.129 36.1647 157.089 36.1245 157.052C35.1989 156.106 34.1542 154.502 33.2826 152.772L33.3297 151.664C33.8645 150.319 34.3041 148.919 34.6433 147.48C35.2199 144.921 34.2145 142.325 33.8317 139.711L34.2798 128.873L34.4659 128.677C34.5341 128.613 34.5984 128.544 34.6589 128.47C35.5783 127.525 36.5728 126.616 37.2782 125.548C38.1549 124.235 38.5518 122.802 38.7961 121.303" fill="white"/>
<path d="M38.7977 121.249C38.797 121.2 38.8123 121.154 38.8182 121.093L38.7977 121.249Z" fill="white"/>
<path d="M38.8183 121.085C38.8192 121.146 38.8035 121.192 38.7972 121.241C38.5529 122.741 38.156 124.173 37.2793 125.486C36.5739 126.555 35.5817 127.463 34.66 128.408C34.5997 128.482 34.5352 128.551 34.467 128.615L34.281 128.82C34.2841 128.807 34.2839 128.794 34.2805 128.782C34.2728 128.749 34.2639 128.717 34.2534 128.685C34.2492 128.652 34.2488 128.619 34.252 128.587L34.2517 128.567C34.2438 128.534 34.238 128.502 34.234 128.469C34.2372 128.45 34.237 128.43 34.2332 128.411C34.2365 128.402 34.2383 128.392 34.2381 128.382C34.238 128.372 34.236 128.362 34.2324 128.354C34.2258 128.301 34.2164 128.249 34.2045 128.198C34.1638 127.966 34.1046 127.745 34.0453 127.512C34.0059 127.366 33.964 127.211 33.9153 127.067C33.874 126.935 33.8269 126.806 33.7744 126.68C33.7395 126.554 33.6907 126.435 33.6294 126.325C33.5873 126.208 33.5381 126.095 33.4822 125.987C32.8765 124.743 31.9566 123.705 31.0553 122.666C30.9579 122.541 30.8558 122.416 30.7587 122.31C30.6615 122.205 30.5594 122.08 30.4645 121.966L29.8873 121.246C29.6141 120.883 29.3572 120.502 29.1175 120.104C29.1175 120.104 29.4784 108.879 34.0701 105.415C38.4053 102.116 38.7911 119.192 38.8183 121.085Z" fill="white"/>
<path d="M38.7977 121.249C38.797 121.2 38.8123 121.154 38.8182 121.093L38.7977 121.249Z" fill="white"/>
<path d="M34.2736 128.781L34.2742 128.828C34.2762 128.809 34.276 128.789 34.2734 128.77C34.2731 128.75 34.2728 128.73 34.2723 128.692C34.2682 128.66 34.2677 128.627 34.2709 128.594C34.2684 128.657 34.2693 128.719 34.2736 128.781Z" fill="white"/>
<path d="M49.7148 110.138C41.5102 121.387 37.9161 144.901 36.5582 157.026C36.447 158.05 36.3532 158.986 36.2627 159.829" fill="white"/>
<path d="M51.2965 166.418L47.8525 194.53C47.7724 195.298 47.4751 196.004 47.0134 196.525C46.5513 197.046 45.9543 197.347 45.3278 197.375L25.2124 197.678C24.5802 197.668 23.9703 197.379 23.4924 196.864C23.0148 196.348 22.7004 195.64 22.6063 194.867L18.6539 166.91L51.2965 166.418Z" fill="white"/>
<path d="M54.9054 163.235C54.8824 164.066 54.6062 164.854 54.132 165.441C53.6579 166.029 53.0207 166.372 52.348 166.403L17.6557 166.926C16.9889 166.916 16.3481 166.598 15.8588 166.036C15.3693 165.473 15.0671 164.706 15.0112 163.885C14.8355 161.887 16.016 160.123 17.5574 160.1L52.2498 159.577C53.7751 159.568 55.0003 161.236 54.9054 163.235Z" fill="white"/>
<path d="M34.2971 128.839C34.2957 128.776 34.2865 128.714 34.2695 128.655L34.2971 128.839Z" fill="white"/>
<path d="M16.7272 102.704C24.9415 115.469 29.1103 142.578 30.7976 156.58C30.941 157.794 31.0643 158.907 31.1743 159.903" fill="white"/>
<path d="M34.8217 116.127C33.8716 119.966 33.8782 123.827 34.0347 126.272C34.0783 127.061 34.1572 127.847 34.2715 128.626" fill="white"/>
<path d="M34.2811 128.819C34.2831 128.8 34.2828 128.78 34.2803 128.761C34.28 128.741 34.2797 128.721 34.2791 128.683C34.275 128.651 34.2745 128.618 34.2777 128.585C34.2852 128.654 34.297 128.723 34.313 128.79C34.3096 128.797 34.3051 128.803 34.2996 128.808C34.2939 128.813 34.2878 128.817 34.2811 128.819Z" stroke="#CCDDE2" stroke-width="3.97" stroke-miterlimit="10"/>
<path d="M34.6358 147.446C34.2966 148.886 33.8571 150.286 33.3222 151.631C33.1691 152.01 33.0181 152.382 32.8509 152.753C32.2815 154.128 31.5769 155.411 30.753 156.572C30.6029 156.513 30.4525 156.438 30.3186 156.374C30.2883 156.374 30.2623 156.346 30.2388 156.334C27.501 154.912 25.421 152.196 24.7703 149.119C24.1902 146.41 24.6352 143.464 23.5538 140.93C22.2214 137.808 18.7232 135.895 18.2383 132.352C17.7988 129.039 20.1732 125.956 19.7323 122.712C19.2316 119.039 15.5414 116.913 14.8135 113.333C14.3499 111.109 14.6977 108.53 14.5083 106.233C14.2909 103.666 13.9016 101.124 13.3447 98.6337C13.5963 98.6098 13.848 98.5973 14.0997 98.582C19.2284 98.3981 24.3564 101.886 26.0937 106.883C27.4953 110.92 26.8794 115.616 28.7158 119.392C28.8273 119.636 28.9513 119.871 29.0874 120.096C29.3269 120.493 29.584 120.874 29.8572 121.237L30.4344 121.957C30.5293 122.071 30.6335 122.176 30.7286 122.302C30.8237 122.427 30.9278 122.532 31.0252 122.657C31.9264 123.69 32.8465 124.734 33.4522 125.978C33.508 126.086 33.557 126.199 33.5993 126.316C33.656 126.429 33.7043 126.548 33.7444 126.671C33.7968 126.797 33.8439 126.926 33.8852 127.058C33.9339 127.202 33.9756 127.345 34.0152 127.503C34.0745 127.736 34.1337 127.957 34.1744 128.19C34.1752 128.247 34.1759 128.296 34.1929 128.345C34.21 128.394 34.1935 128.382 34.1938 128.403C34.1975 128.421 34.1978 128.441 34.1946 128.46C34.1983 128.493 34.2044 128.526 34.2123 128.558L34.2126 128.578C34.2141 128.614 34.2193 128.65 34.2282 128.684C34.2287 128.722 34.229 128.742 34.2293 128.762C34.2319 128.781 34.2322 128.801 34.2301 128.82L34.2304 128.84L33.7823 139.678C34.2071 142.291 35.2124 144.887 34.6358 147.446Z" stroke="#CCDDE2" stroke-width="3.97" stroke-miterlimit="10"/>
<path d="M38.8187 121.092C39.179 118.738 39.1739 116.274 40.0371 114.019C41.6426 109.862 46.4639 106.789 51.5611 106.519L51.6544 106.517C52.1208 106.51 52.5871 106.503 53.054 106.525C52.5572 108.681 52.2291 110.892 52.0737 113.128C51.9298 115.119 52.3676 117.337 51.9497 119.255C51.2784 122.369 47.4975 124.31 47.0814 127.49C46.7115 130.308 49.2702 132.901 48.8963 135.769C48.4926 138.841 44.9049 140.593 43.6103 143.342C42.5647 145.562 43.1048 148.084 42.5811 150.433C41.9666 153.111 39.8554 155.52 37.0494 156.813C36.8686 156.894 36.7065 156.974 36.5256 157.046C36.4304 157.076 36.3215 157.127 36.2287 157.157C36.1956 157.129 36.1647 157.089 36.1245 157.052C35.1989 156.106 34.1542 154.502 33.2826 152.772L33.3297 151.664C33.8645 150.319 34.3041 148.919 34.6433 147.48C35.2199 144.921 34.2145 142.325 33.8317 139.711L34.2798 128.873L34.4659 128.677C34.5341 128.613 34.5984 128.544 34.6589 128.47C35.5783 127.525 36.5728 126.616 37.2782 125.548C38.1549 124.235 38.5518 122.802 38.7961 121.303" stroke="#CCDDE2" stroke-width="3.97" stroke-miterlimit="10"/>
<path d="M38.7977 121.249C38.797 121.2 38.8123 121.154 38.8182 121.093" stroke="#CCDDE2" stroke-width="3.97" stroke-miterlimit="10"/>
<path d="M38.8183 121.085C38.8192 121.146 38.8035 121.192 38.7972 121.241C38.5529 122.741 38.156 124.173 37.2793 125.486C36.5739 126.555 35.5817 127.463 34.66 128.408C34.5997 128.482 34.5352 128.551 34.467 128.615L34.281 128.82C34.2841 128.807 34.2839 128.794 34.2805 128.782C34.2728 128.749 34.2639 128.717 34.2534 128.685C34.2492 128.652 34.2488 128.619 34.252 128.587L34.2517 128.567C34.2438 128.534 34.238 128.502 34.234 128.469C34.2372 128.45 34.237 128.43 34.2332 128.411C34.2366 128.402 34.2383 128.392 34.2381 128.382C34.238 128.372 34.236 128.362 34.2324 128.354C34.2258 128.301 34.2164 128.249 34.2045 128.198C34.1638 127.966 34.1046 127.745 34.0453 127.512C34.0059 127.366 33.964 127.211 33.9153 127.067C33.874 126.935 33.8269 126.806 33.7744 126.68C33.7395 126.554 33.6907 126.435 33.6294 126.325C33.5873 126.208 33.5381 126.095 33.4822 125.987C32.8765 124.743 31.9566 123.705 31.0553 122.666C30.9579 122.541 30.8558 122.416 30.7587 122.31C30.6615 122.205 30.5594 122.08 30.4645 121.966L29.8873 121.246C29.6141 120.883 29.3572 120.502 29.1175 120.104C29.1175 120.104 29.4784 108.879 34.0701 105.415C38.4053 102.116 38.7911 119.192 38.8183 121.085Z" stroke="#CCDDE2" stroke-width="3.97" stroke-miterlimit="10"/>
<path d="M38.7977 121.249C38.797 121.2 38.8123 121.154 38.8182 121.093" stroke="#CCDDE2" stroke-width="3.97" stroke-miterlimit="10"/>
<path d="M34.2736 128.781L34.2742 128.828C34.2762 128.809 34.276 128.789 34.2734 128.77C34.2731 128.75 34.2728 128.73 34.2723 128.692C34.2682 128.66 34.2677 128.627 34.2709 128.594C34.2684 128.657 34.2693 128.719 34.2736 128.781Z" stroke="#CCDDE2" stroke-width="3.97" stroke-miterlimit="10"/>
<path d="M49.7148 110.138C41.5102 121.387 37.9161 144.901 36.5582 157.026C36.447 158.05 36.3532 158.986 36.2627 159.829" stroke="#CCDDE2" stroke-width="3.97" stroke-miterlimit="10"/>
<path d="M51.2965 166.418L47.8525 194.53C47.7724 195.298 47.4751 196.004 47.0134 196.525C46.5513 197.046 45.9543 197.347 45.3278 197.375L25.2124 197.678C24.5802 197.668 23.9703 197.379 23.4924 196.864C23.0148 196.348 22.7004 195.64 22.6063 194.867L18.6539 166.91L51.2965 166.418Z" stroke="#CCDDE2" stroke-width="3.97" stroke-miterlimit="10"/>
<path d="M54.9054 163.235C54.8824 164.066 54.6062 164.854 54.132 165.441C53.6579 166.029 53.0207 166.372 52.348 166.403L17.6557 166.926C16.9889 166.916 16.3481 166.598 15.8588 166.036C15.3693 165.473 15.0671 164.706 15.0112 163.885C14.8355 161.887 16.016 160.123 17.5574 160.1L52.2498 159.577C53.7751 159.568 55.0003 161.236 54.9054 163.235Z" stroke="#CCDDE2" stroke-width="3.97" stroke-miterlimit="10"/>
<path d="M34.2971 128.839C34.2957 128.776 34.2865 128.714 34.2695 128.655L34.2971 128.839Z" stroke="#CCDDE2" stroke-width="3.97" stroke-miterlimit="10"/>
<path d="M16.7272 102.704C24.9415 115.469 29.1103 142.578 30.7976 156.58C30.941 157.794 31.0643 158.907 31.1743 159.903" stroke="#CCDDE2" stroke-width="3.97" stroke-miterlimit="10"/>
<path d="M34.8217 116.127C33.8716 119.966 33.8782 123.827 34.0347 126.272C34.0783 127.061 34.1572 127.847 34.2715 128.626" stroke="#CCDDE2" stroke-width="3.97" stroke-miterlimit="10"/>
<path d="M165.05 89.78C164.513 90.0187 163.984 90.2716 163.456 90.5303L163.026 90.7414C161.779 91.3366 160.557 91.9718 159.372 92.6295C158.965 92.8489 158.567 93.0681 158.167 93.3076C157.843 93.4883 157.526 93.666 157.209 93.8552L157.059 93.9468C156.635 94.1953 156.214 94.4437 155.801 94.7036C155.387 94.9634 154.911 95.2502 154.474 95.5363C154.242 95.6666 154.044 95.8051 153.834 95.9466C153.427 96.2034 153.027 96.4717 152.628 96.74C152.514 96.8195 152.396 96.8876 152.297 96.9669C151.891 97.2468 151.484 97.5239 151.085 97.8123C150.755 98.0392 150.438 98.2659 150.113 98.5042C138.67 106.824 128.991 118.371 121.86 132.206C105.911 162.872 105.641 196.432 105.653 199.403L105.612 199.318C103.424 183.6 100.227 170.001 96.2861 158.244L96.565 157.038L96.0567 157.542C96.0567 157.542 96.0567 157.542 96.0564 157.522C96.5077 137.505 99.4361 120.73 103.78 106.698L104.209 106.81C104.121 106.595 104.034 106.375 103.947 106.163C111.544 82.0004 123.359 66.0519 133.902 55.8894C146.325 43.9205 157.014 39.9436 157.014 39.9436C162.876 48.6167 164.568 75.3655 165.05 89.78Z" stroke="#CCDDE2" stroke-width="3.97" stroke-miterlimit="10"/>
<path d="M167.302 193.263C165.623 192.873 163.978 192.403 162.365 191.85C155.75 189.572 148.048 185.63 145.304 177.141C144.616 174.947 144.375 172.581 144.603 170.252C144.83 167.922 145.518 165.7 146.607 163.783C147.76 161.739 149.4 160.19 151.301 159.352C155.44 157.627 160.082 160.148 163.225 163.933C166.368 167.719 168.426 172.622 170.909 177.092C168.634 171.074 166.325 164.881 165.928 158.27C165.621 153.116 166.674 147.506 169.496 143.587C172.093 139.98 178.247 137.094 181.932 139.653C184.363 141.345 185.377 145.008 185.839 148.401C187.106 157.689 185.787 167.164 184.472 176.424C185.373 171.471 186.346 166.47 188.264 161.986C190.182 157.501 193.164 153.519 197.032 151.809C199.741 150.616 202.98 150.691 205.294 152.838C207.452 154.823 208.453 158.246 208.795 161.544C209.364 167.074 208.391 172.706 206.65 177.831C200.154 196.959 181.369 196.51 167.302 193.263Z" fill="white"/>
<path d="M182.441 183.614C182.441 183.614 192.928 187.038 196.355 169.06L182.441 183.614Z" fill="white"/>
<path d="M177.358 153.092C174.574 161.261 177.826 185.598 177.826 185.598L177.358 153.092Z" fill="white"/>
<path d="M168.12 183.276C167.683 183.19 163.486 182.53 159.889 180.558C157.103 179.032 154.675 176.717 154.625 173.277" fill="white"/>
<path d="M160.621 173.19C160.621 173.19 156.627 179.126 159.889 180.561L160.621 173.19Z" fill="white"/>
<path d="M158.096 185.935C158.662 184.929 161.711 186.883 163.616 182.148L158.096 185.935Z" fill="white"/>
<path d="M176.223 163.869C175.179 162.928 172.492 163.925 171.986 156.281L176.223 163.869Z" fill="white"/>
<path d="M176.777 171.03C176.777 171.03 181.262 168.945 181.2 164.579L176.777 171.03Z" fill="white"/>
<path d="M186.664 183.654C186.664 183.654 188.911 176.106 189.831 172.746L186.664 183.654Z" fill="white"/>
<path d="M193.874 176.366C193.874 176.366 196.496 178.86 199.532 174.751L193.874 176.366Z" fill="white"/>
<path d="M193.821 172.69C193.821 172.69 192.138 171.819 192.838 166.652L193.821 172.69Z" fill="white"/>
<path d="M167.302 193.263C165.61 193 163.975 192.405 162.365 191.85C155.75 189.572 148.048 185.631 145.304 177.141C144.616 174.947 144.375 172.581 144.603 170.252C144.83 167.922 145.518 165.7 146.607 163.783C147.76 161.739 149.4 160.19 151.301 159.352C155.44 157.627 160.082 160.148 163.225 163.933C166.368 167.719 168.426 172.622 170.909 177.092C168.634 171.074 166.325 164.881 165.928 158.27C165.621 153.116 166.674 147.506 169.496 143.587C172.093 139.98 178.247 137.094 181.932 139.653C184.363 141.345 185.377 145.008 185.839 148.401C187.106 157.689 185.787 167.164 184.472 176.424C185.373 171.471 186.346 166.47 188.264 161.986C190.182 157.501 193.164 153.519 197.032 151.809C199.742 150.616 202.98 150.691 205.294 152.838C207.453 154.823 208.453 158.246 208.795 161.544C209.364 167.074 208.454 172.743 206.65 177.831C200.037 196.459 181.098 195.344 167.302 193.263Z" stroke="#CCDDE2" stroke-width="3.97" stroke-miterlimit="10"/>
<path d="M182.441 183.614C182.441 183.614 192.928 187.038 196.355 169.06" stroke="#CCDDE2" stroke-width="3.97" stroke-miterlimit="10"/>
<path d="M177.358 153.092C174.574 161.261 177.826 185.598 177.826 185.598" stroke="#CCDDE2" stroke-width="3.97" stroke-miterlimit="10"/>
<path d="M168.12 183.276C167.683 183.19 163.486 182.53 159.889 180.558C157.103 179.032 154.675 176.717 154.625 173.277" stroke="#CCDDE2" stroke-width="3.97" stroke-miterlimit="10"/>
<path d="M160.621 173.19C160.621 173.19 156.627 179.126 159.889 180.561" stroke="#CCDDE2" stroke-width="3.97" stroke-miterlimit="10"/>
<path d="M158.096 185.935C158.662 184.929 161.711 186.883 163.616 182.148" stroke="#CCDDE2" stroke-width="3.97" stroke-miterlimit="10"/>
<path d="M176.223 163.869C175.179 162.928 172.492 163.925 171.986 156.281" stroke="#CCDDE2" stroke-width="3.97" stroke-miterlimit="10"/>
<path d="M176.777 171.03C176.777 171.03 181.262 168.945 181.2 164.579" stroke="#CCDDE2" stroke-width="3.97" stroke-miterlimit="10"/>
<path d="M186.664 183.654C186.664 183.654 188.911 176.106 189.831 172.746" stroke="#CCDDE2" stroke-width="3.97" stroke-miterlimit="10"/>
<path d="M193.874 176.366C193.874 176.366 196.496 178.86 199.532 174.751" stroke="#CCDDE2" stroke-width="3.97" stroke-miterlimit="10"/>
<path d="M193.821 172.69C193.821 172.69 192.138 171.819 192.838 166.652" stroke="#CCDDE2" stroke-width="3.97" stroke-miterlimit="10"/>
<path d="M193.887 127.853C196.004 130.041 197.901 132.536 199.538 135.281C202.545 140.196 204.291 146.107 204.549 152.245" stroke="#CCDDE2" stroke-width="3.97" stroke-miterlimit="10"/>
<path d="M119.698 27.3639C123.85 24.1772 128.188 21.3364 132.814 19.3069C144.349 14.2336 157.305 15.125 166.655 25.7371C174.759 34.9269 178.727 48.701 179.687 61.944C179.69 62.137 179.718 62.3412 179.728 62.5457C180.179 69.3694 179.998 76.9144 180.067 84.4615" stroke="#CCDDE2" stroke-width="3.97" stroke-miterlimit="10"/>
<path d="M29.0326 86.3187C29.9649 78.0072 28.5677 70.2236 27.7452 61.6965C25.6248 39.479 30.9666 12.777 51.6567 9.13655C62.8986 7.15151 72.1193 12.2147 79.8813 22.0754C81.6252 24.2885 83.3747 26.8935 85.2232 29.4076" stroke="#CCDDE2" stroke-width="3.97" stroke-miterlimit="10"/>
<path d="M22.0028 159.905C22.0028 159.905 6.17411 151.595 7.51472 135.514C7.88789 130.974 9.55751 126.894 11.6866 123.136" stroke="#CCDDE2" stroke-width="3.97" stroke-miterlimit="10"/>
<path d="M164.009 168.475C163.405 167.952 162.775 167.456 162.122 166.988C155.604 162.368 146.788 160.671 139.412 160.234C138.961 160.201 138.517 160.179 138.079 160.162C137.497 160.14 136.927 159.96 136.406 159.637C135.866 159.312 135.395 158.836 135.028 158.248C134.642 156.498 134.182 154.774 133.652 153.081L132.534 147.334C132.124 145.673 131.797 143.983 131.554 142.274C130.357 133.625 129.409 122.869 129.071 118.842C129.105 118.86 129.14 118.872 129.176 118.878L132.396 120.098C132.408 120.097 132.42 120.096 132.431 120.097L133.573 120.492C137.998 121.97 142.634 123.059 147.223 123.114C151.548 123.161 156.278 122.214 159.93 119.202C160.237 118.955 160.535 118.691 160.823 118.41C163.635 115.716 165.556 111.618 166.618 107.472C168.572 99.8037 168.9 91.6336 167.571 83.7413C167.195 81.5684 166.68 79.4348 166.031 77.3606C164.319 71.8384 161.886 66.6758 159.785 61.3152C159.3 60.0659 158.614 58.7591 158.513 57.3657C158.391 55.7046 159.058 54.095 159.252 52.4753C159.476 50.5291 159.565 48.5616 159.517 46.5948C159.48 44.2615 159.085 41.9554 158.353 39.7992C157.723 37.9872 156.606 34.949 154.703 35.0901C154.057 32.6847 152.995 29.9051 151.193 29.6181C150.725 29.5367 150.251 29.6868 149.874 30.0357C149.739 29.804 149.593 29.5819 149.438 29.3707C148.672 28.339 147.238 27.421 146.106 27.9799C143.859 29.1204 144.95 32.9516 146.114 35.8535C145.534 35.7087 144.941 35.6692 144.354 35.736C143.038 35.8999 141.522 36.5798 141.034 38.155C140.769 39.0236 140.89 40.581 141.606 41.0602C142.514 41.6546 143.614 41.2345 144.522 41.7915C145.537 42.416 145.955 44.1245 145.827 45.4234C145.806 45.9321 145.649 46.4169 145.38 46.802C143.818 48.7911 142.649 43.3847 142.032 42.5005C141.194 41.294 139.994 41.534 139.153 42.5756C137.491 44.6181 138.284 48.6698 139.028 51.0968C139.836 53.7534 140.877 56.5449 142.504 58.5983C145.21 62.0016 145.58 67.4863 146.346 71.9161C146.662 73.7472 146.966 75.5957 147.216 77.4422C147.711 81.0258 148.02 84.6353 147.839 88.2636C147.794 89.2595 147.583 90.2322 147.219 91.1204C146.855 92.0087 146.346 92.7931 145.724 93.425C145.102 94.0569 144.38 94.5222 143.604 94.7919C142.828 95.0615 142.014 95.1297 141.213 94.9922C139.308 94.6635 137.077 94.2706 134.701 93.8481C134.701 93.8481 134.719 93.8248 134.731 93.8188C131.482 92.5103 128.622 92.3862 125.777 92.2447C117.736 90.8325 110.514 89.5003 110.514 89.5003C110.349 89.4653 110.199 89.3609 110.09 89.2047C109.981 89.0487 109.918 88.8507 109.914 88.6447L109.657 77.6449C110.217 78.4665 111.408 78.5639 112.129 78.0717C112.415 77.8852 112.649 77.5955 112.799 77.2411C112.949 76.8863 113.009 76.4834 112.97 76.0848C113.442 76.0728 113.903 75.9186 114.314 75.6351C114.436 75.5483 114.553 75.4503 114.662 75.3417C114.889 75.0832 115.07 74.7701 115.195 74.4212C115.319 74.0723 115.384 73.6953 115.387 73.3133C115.394 73.1023 115.382 72.8909 115.352 72.6827C115.351 72.6049 115.331 72.5303 115.318 72.4469C115.29 72.2859 115.257 72.1279 115.218 71.9584C115.198 71.8608 115.173 71.7631 115.146 71.6713C115.081 71.3841 115.009 71.097 114.954 70.8096C114.981 70.8135 115.009 70.8131 115.036 70.8084C115.266 70.7888 115.493 70.745 115.717 70.6771C115.93 70.611 116.137 70.5209 116.336 70.4083C116.448 70.345 116.557 70.2742 116.662 70.1959C116.68 70.1879 116.697 70.1747 116.71 70.1577C116.889 70.0184 117.057 69.8606 117.214 69.6861C117.268 69.6306 117.318 69.571 117.366 69.5081C117.455 69.4009 117.54 69.2881 117.62 69.1699C117.722 69.0176 117.817 68.8583 117.904 68.693C117.947 68.6226 117.985 68.5479 118.018 68.4693C118.332 67.8231 118.558 67.1167 118.687 66.3784C118.698 66.3091 118.711 66.2397 118.722 66.1733C119.149 63.4231 118.404 60.3015 116.44 59.308C116.047 59.1093 114.664 58.9313 114.654 58.208C114.654 58.1564 114.659 58.1048 114.67 58.055C114.668 58.0447 114.668 58.0337 114.67 58.0233C114.705 57.9153 114.756 57.8168 114.822 57.7328C114.851 57.6863 114.893 57.6395 114.929 57.5929C115.01 57.5023 115.099 57.4174 115.184 57.3296C115.272 57.256 115.356 57.1761 115.435 57.0895C115.469 57.0539 115.501 57.0156 115.532 56.9757C115.591 56.8912 115.653 56.8067 115.708 56.7223C115.762 56.6391 115.812 56.5516 115.858 56.4607C115.905 56.3677 115.953 56.2748 115.996 56.1704C116.043 56.0789 116.083 55.9817 116.115 55.8804C116.183 55.7084 116.238 55.5292 116.28 55.3447C116.354 55.0415 116.399 54.7285 116.414 54.4118C116.412 54.2994 116.41 54.1842 116.409 54.0689C116.372 51.539 114.665 48.9449 112.551 48.7001C112.209 48.6592 111.864 48.7145 111.543 48.8623C111.385 48.9327 111.23 49.014 111.08 49.1056L110.849 49.2445C110.691 49.3391 110.532 49.4395 110.368 49.54C110.229 49.6242 110.079 49.6734 109.924 49.685C109.889 49.6841 109.854 49.6789 109.819 49.6693L109.751 49.6472C109.702 49.6347 109.657 49.6043 109.622 49.5599C109.58 49.5236 109.545 49.4771 109.519 49.4231C109.498 49.3707 109.482 49.3144 109.473 49.2566C109.471 49.2532 109.47 49.2492 109.47 49.2451C109.47 49.2411 109.471 49.237 109.472 49.2336C109.46 49.1666 109.453 49.0981 109.453 49.0292C109.451 48.8869 109.465 48.7449 109.496 48.6078C109.558 48.3091 109.586 48.0015 109.581 47.6929C109.579 47.5811 109.571 47.4697 109.557 47.3589C109.543 47.2053 109.522 47.0525 109.495 46.9016C109.25 45.7905 108.694 44.821 107.925 44.1672C105.76 42.3322 101.751 42.384 100.696 45.8612C100.673 45.9134 100.662 45.9683 100.644 46.0205C100.499 45.818 100.354 45.607 100.209 45.3959C100.109 45.3193 100.005 45.2514 99.8978 45.1931C98.4055 44.4172 96.2908 44.792 95.2335 46.37C94.3567 47.6802 94.0917 49.6872 94.9081 51.1447C94.452 50.4397 93.8396 49.914 93.1463 49.6323C93.2327 49.916 93.3462 50.1863 93.4844 50.437C93.4197 50.3319 93.3506 50.2309 93.2771 50.1346C93.2201 50.0577 93.1631 49.9894 93.1062 49.9239C93.0492 49.8585 92.9686 49.7646 92.9 49.6965C92.8314 49.6283 92.7557 49.5546 92.6824 49.4865C91.2768 48.2511 89.2321 48.1522 87.9605 49.7421C86.9661 50.9848 86.7807 52.6851 87.1635 54.325C87.5463 55.9649 88.4232 57.0959 89.0896 58.5038C86.9097 59.2168 85.2015 62.2428 85.9323 65.0446C86.0848 65.6242 86.345 66.1523 86.692 66.5866C87.0388 67.0206 87.4629 67.3491 87.9298 67.545C88.0969 67.594 88.2664 67.6272 88.4374 67.644C88.4946 67.6503 88.55 67.6711 88.6004 67.7052C88.651 67.7393 88.6953 67.7856 88.7306 67.8416C88.766 67.8975 88.7916 67.962 88.8061 68.0307C88.8207 68.0993 88.8235 68.1708 88.8145 68.2406C88.7825 68.4302 88.7673 68.6238 88.7692 68.8177C88.7773 69.2819 88.882 69.7366 89.0732 70.1375C89.2644 70.5383 89.5358 70.8723 89.8611 71.1069C89.9093 71.139 89.9517 71.1834 89.9858 71.2365C90.02 71.2896 90.0449 71.3509 90.0591 71.4161C90.0733 71.4816 90.0767 71.5498 90.0688 71.6165C90.0611 71.6835 90.0422 71.7475 90.0134 71.805C89.6975 72.3795 89.5166 73.0517 89.4907 73.7476C89.465 74.4431 89.5953 75.1348 89.8672 75.7469C90.6135 77.5197 92.401 79.0404 94.0572 78.4045C94.59 78.1959 95.0475 77.7665 95.3529 77.1889C95.3859 77.1452 95.4141 77.0963 95.4371 77.0435C95.4429 77.0261 95.4513 77.0105 95.4621 76.997C95.6955 76.5511 95.8475 76.0474 95.9073 75.5205C96.3291 76.3179 96.7992 77.0749 97.3137 77.7848L97.6229 78.198L96.8028 85.231L96.6858 86.498C96.6422 86.9365 96.4716 87.3399 96.206 87.6339C95.9404 87.9281 95.5971 88.0932 95.2394 88.0992C95.0365 88.1022 94.8266 88.1054 94.6237 88.1084C94.211 88.1147 93.8031 88.1352 93.3975 88.1557C92.1645 88.2118 90.9365 88.2995 89.7113 88.4101C88.7796 88.4991 87.869 88.5964 86.954 88.7111C86.4882 88.7642 86.0413 88.8228 85.5804 88.8903C85.1195 88.9577 84.6633 89.0194 84.2071 89.0868C83.3157 89.2241 82.4174 89.3645 81.5241 89.5249C80.4469 89.7169 79.3768 89.9146 78.2999 90.1211C76.6159 90.4519 74.9371 90.8115 73.2516 91.1972C71.6103 91.5735 69.9762 91.9642 68.3352 92.3607C66.0295 92.9228 63.6993 93.3989 61.3601 93.9068C60.7458 94.0391 60.1151 94.0077 59.5101 93.8147C58.9051 93.6218 58.3393 93.2718 57.8512 92.7881C57.363 92.3046 56.9634 91.6982 56.6789 91.0099C56.3945 90.3217 56.2318 89.5673 56.2018 88.7968C55.8015 79.292 59.9102 61.8831 59.9102 61.8831C59.9911 60.533 61.2762 59.5568 62.0254 58.7789C64.1706 56.6225 65.4007 52.7997 66.1055 49.5871C66.6043 47.2941 67.0611 44.0248 65.4694 42.1754C64.5964 41.1597 63.39 40.9559 62.589 42.1871C61.9979 43.0952 60.9846 48.5287 59.3636 46.5876C59.0843 46.2108 58.9132 45.7309 58.8774 45.2231C58.7212 43.9314 59.0673 42.2113 60.0748 41.5535C60.9666 40.9636 62.0779 41.3561 62.9693 40.7346C63.6618 40.2342 63.7465 38.6651 63.4567 37.8135C62.9234 36.2537 61.3912 35.6197 60.0692 35.4955C59.4798 35.4464 58.8882 35.5038 58.313 35.666C59.3927 32.7303 60.375 28.8679 58.0948 27.7984C56.9465 27.2595 55.5352 28.2174 54.804 29.2718C54.6555 29.4878 54.5169 29.7142 54.3892 29.9495C54.0012 29.6133 53.5227 29.4775 53.0566 29.5719C51.2539 29.9132 50.2844 32.7234 49.7082 35.1501C47.82 35.0633 46.7951 38.076 46.2103 39.9034C45.5481 42.0081 45.2125 44.2502 45.2208 46.5125C45.1972 48.9196 45.3694 51.3253 45.7347 53.6926C45.9033 54.7131 46.1948 55.6829 46.4074 56.6798C46.64 57.7657 46.42 58.8498 46.1153 59.8775C44.9194 63.8122 43.2068 67.504 41.9382 71.411C40.5612 75.5464 39.4712 79.8202 38.6794 84.1872C37.1568 92.8073 36.9498 101.926 38.9971 110.47C42.868 126.614 61.2232 121.017 71.7169 116.317C76.104 114.355 79.1264 112.54 79.1264 112.54C79.1264 112.54 79.1678 113.796 79.1984 115.922L79.2025 116.21C79.2323 119.092 79.3603 142.083 76.4691 159.01L76.3674 159.233C76.3927 159.21 76.4417 159.209 76.4749 159.413C76.3095 159.877 76.0394 160.271 75.6968 160.549C75.3542 160.827 74.9538 160.977 74.5429 160.981C67.0382 161.057 35.4569 162.849 41.8108 187.989C43.0007 192.712 45.9734 195.708 50.1105 197.444C53.3959 198.835 57.4182 199.4 61.8636 199.379L61.8939 199.379C53.2343 201.544 51.4424 217.546 61.1711 219.815C64.9155 220.687 67.8271 217.657 71.1621 216.333C73.0685 215.604 75.0594 215.26 77.0579 215.316C78.3618 215.335 79.6638 215.466 80.9541 215.707C95.0826 218.345 109.392 219.089 123.633 217.929C133.261 217.129 143.064 215.486 152.153 211.363C159.003 208.251 166.492 202.873 169.77 194.67C170.931 191.783 171.507 188.587 171.448 185.356C171.328 177.677 168.376 172.257 164.009 168.475Z" fill="white"/>
<path d="M18.9798 197.48L18.6218 197.074" stroke="#CCDDE2" stroke-width="3.97" stroke-miterlimit="10"/>
<path d="M133.653 152.661L132.532 146.899C132.123 145.238 131.796 143.548 131.555 141.838C130.357 133.19 129.409 122.437 129.069 118.41L132.432 119.677L131.22 116.487C131.22 116.487 127.149 100.573 134.732 93.424C129.141 91.1708 124.707 92.4395 119.485 91.0396C117.474 90.4935 115.352 90.0211 113.008 89.5838L111.312 89.2433C111.326 94.9207 108.148 96.2569 105.526 96.9131C99.0725 98.5436 94.5041 92.7734 94.6175 87.6878C87.4296 87.8969 80.341 89.1767 73.2478 90.7765C74.2145 94.0935 76.2936 104.046 71.0184 115.93L71.7176 115.891C76.1046 113.925 79.1271 112.113 79.1271 112.113C79.1271 112.113 79.1708 113.369 79.2014 115.495L79.2056 115.784C79.2351 118.648 79.3634 141.656 76.4721 158.58C76.2468 159.134 76.419 158.454 76.4791 159.064C76.2956 159.536 76.1722 160.04 76.1134 160.56L76.2543 159.811C75.4316 161.319 77.5704 163.1 80.6361 163.967C88.6507 166.256 132.699 169.812 135.037 159.672C135.175 159.067 135.17 158.426 135.024 157.822C134.638 156.074 134.181 154.352 133.653 152.661Z" fill="#353642"/>
<path d="M77.0492 214.881C75.053 214.828 73.0647 215.173 71.1604 215.901C67.823 217.222 64.9068 220.255 61.167 219.38C51.4383 217.111 53.2326 201.109 61.8921 198.944C62.7243 198.908 63.5567 198.89 64.3822 198.878L64.4382 198.877C68.4398 198.817 72.3407 198.887 75.5205 197.473C75.2246 197.821 67.5518 206.482 77.0492 214.881Z" fill="#6C63FF"/>
<path d="M111.305 89.2329L111.305 89.2474C111.32 94.9248 108.141 96.261 105.519 96.9172C99.0656 98.5477 94.4973 92.7775 94.6107 87.6918" stroke="black" stroke-width="3.97" stroke-miterlimit="10"/>
<path d="M61.899 198.944C53.2395 201.11 51.4452 217.112 61.1739 219.38C64.9184 220.255 67.83 217.222 71.1673 215.901C73.073 215.173 75.063 214.828 77.0608 214.881C78.3619 214.906 79.6607 215.041 80.9478 215.287C95.0757 217.93 109.385 218.681 123.627 217.526C133.255 216.724 143.056 215.083 152.144 210.96C158.996 207.845 166.483 202.467 169.761 194.267C170.924 191.38 171.5 188.183 171.439 184.95C171.329 177.263 168.37 171.843 164.012 168.058C163.405 167.534 162.776 167.042 162.125 166.571C155.607 161.951 146.794 160.254 139.417 159.817C138.966 159.786 138.521 159.761 138.084 159.745C137.503 159.724 136.932 159.546 136.411 159.223C135.871 158.899 135.399 158.423 135.034 157.834C134.678 157.276 134.425 156.63 134.29 155.94L133.658 152.664L132.537 146.902L131.554 141.839C130.357 133.191 129.409 122.438 129.069 118.411" stroke="black" stroke-width="3.97" stroke-miterlimit="10"/>
<path d="M142.899 189.974C140.141 198.14 132.991 195.466 125.095 189.737C120.194 186.183 116.05 185.729 113.61 185.876C117.047 185.443 120.036 184.087 120.813 179.265C121.44 175.348 119.607 171.79 116.508 170.684C123.913 170.169 131.527 170.746 137.64 176.418C137.645 176.418 145.662 181.799 142.899 189.974Z" fill="#6C63FF"/>
<path d="M115.015 70.3543C114.988 70.359 114.962 70.3594 114.935 70.3555C115.014 70.8039 115.159 71.283 115.257 71.76C115.335 72.1205 115.372 72.4923 115.366 72.865C115.293 74.6098 114.306 75.57 112.95 75.6365C112.99 76.0359 112.931 76.4406 112.781 76.7968C112.632 77.1529 112.398 77.4441 112.111 77.632C111.39 78.1155 110.197 78.0268 109.637 77.2024C108.974 76.2469 109.279 75.0433 109.658 73.9799C109.795 73.6061 109.932 73.2524 110.044 72.9308C110.181 72.531 110.298 72.1344 110.402 71.7293C110.769 70.2306 111.048 68.7007 111.237 67.1516C111.472 65.586 111.62 64.0015 111.679 62.4097C111.587 62.0249 111.635 61.4651 111.506 61.0635C111.317 60.4436 110.985 59.9053 110.551 59.5159C109.653 58.7224 108.474 58.792 107.521 58.0916C106.659 57.4481 105.972 56.4993 105.551 55.369C105.468 55.1339 105.389 54.8296 105.273 54.5662C105.221 54.4229 105.144 54.2961 105.046 54.1949C104.616 53.7605 104.38 54.5422 104.123 54.8487C103.86 55.1581 103.546 55.3946 103.202 55.5418C102.858 55.6891 102.492 55.7439 102.129 55.703C101.855 55.6624 101.586 55.569 101.335 55.4267C101.149 55.3062 100.976 55.1601 100.818 54.9907C100.629 54.7707 100.411 54.5936 100.173 54.4672C99.7272 54.2693 99.7169 55.1744 99.6585 55.4894C99.6202 55.7615 99.5327 56.019 99.402 56.2426C99.2716 56.4662 99.1016 56.6501 98.905 56.7804C98.6674 56.9295 98.4057 57.0113 98.1387 57.0196C97.8279 57.0399 97.5161 56.9927 97.2178 56.8808C96.9297 56.7799 96.6548 56.6278 96.4019 56.4291C96.3564 56.3923 96.3038 56.372 96.2497 56.3705C96.1956 56.369 96.1424 56.3863 96.096 56.4201C96.0496 56.4542 96.0118 56.5038 95.9873 56.563C95.9624 56.6221 95.952 56.6889 95.9564 56.7557C96.0856 59.7338 93.8455 60.8051 92.9242 61.1244C92.6838 66.0463 93.727 70.9427 95.9009 75.095C95.8314 75.7016 95.6401 76.2763 95.3441 76.7663C93.8282 77.2618 92.0625 76.7754 91.3792 75.1631C90.6547 73.4448 90.7159 71.0489 91.7848 69.7993C91.0295 69.6666 90.7999 68.2953 91.2197 67.482C91.2559 67.4036 91.2715 67.3573 91.2471 67.2827C91.1493 66.97 90.0379 66.7245 89.7331 66.6138C89.2977 66.4296 88.9026 66.1225 88.5794 65.717C88.2561 65.3115 88.0134 64.8191 87.8708 64.2786C87.1919 61.6748 88.7795 58.8611 90.8038 58.1994C90.1809 56.8888 89.3703 55.8346 89.0103 54.3155C88.6502 52.7963 88.8186 51.2086 89.7441 50.0419C90.1208 49.5857 90.5844 49.2536 91.0926 49.0759C91.6009 48.8982 92.1375 48.8804 92.6544 49.0239C92.9581 49.2888 93.2286 49.6081 93.4564 49.9715C93.3159 49.7235 93.2021 49.4537 93.1183 49.1696C93.8125 49.4485 94.4256 49.9748 94.8801 50.6821C94.0637 49.2246 94.331 47.2146 95.2055 45.9045C96.2627 44.3265 98.3798 43.9517 99.8698 44.7304C99.9777 44.7882 100.082 44.8552 100.183 44.9303C100.326 45.1443 100.471 45.3554 100.616 45.5579C100.631 45.5023 100.649 45.4481 100.67 45.3957C100.976 45.7724 101.265 46.168 101.539 46.5815C102.451 43.19 106.268 43.1239 108.31 44.854C108.791 45.2655 109.188 45.8103 109.469 46.4447C109.579 47.0042 109.579 47.5876 109.468 48.1452C109.352 48.6801 109.456 49.082 109.735 49.1931C109.945 49.2528 110.164 49.2143 110.352 49.0858C111.085 48.6626 111.689 48.1492 112.548 48.2515C115.352 48.5753 117.457 53.0396 115.841 55.9979C115.746 56.1815 115.636 56.354 115.515 56.5129C115.286 56.8046 114.766 57.1496 114.656 57.5634C114.653 57.5735 114.653 57.5848 114.656 57.5951C114.459 58.4627 116.01 58.6324 116.426 58.8481C120.11 60.6976 119.472 69.9989 115.015 70.3543Z" fill="#39CD8F"/>
<path d="M51.1089 47.8828C50.2061 45.608 50.7966 42.3914 51.7528 39.9532C52.4836 38.0602 51.8362 35.0524 49.8958 34.7445C47.8809 34.4405 46.8019 37.5895 46.2019 39.4892C45.5383 41.5945 45.2018 43.8374 45.2101 46.1012C45.1932 48.5088 45.3708 50.9141 45.7403 53.281C45.9089 54.2987 46.2004 55.2713 46.4107 56.2654C46.6432 57.3513 46.4233 58.4383 46.1185 59.4631C44.9226 63.3978 43.2124 67.0895 41.9415 70.9966C40.5665 75.1326 39.4772 79.4064 38.685 83.7728C37.1623 92.3929 36.953 101.512 39.0003 110.055C42.8713 126.2 61.2287 120.603 71.7201 115.903C76.1071 113.937 79.1296 112.125 79.1296 112.125C79.1296 112.125 79.1733 113.381 79.2039 115.508C79.2053 115.606 79.2068 115.706 79.2081 115.796C79.3451 124.345 79.3768 145.83 76.5802 158.637C76.4592 159.189 76.1952 159.676 75.8284 160.025C75.4616 160.373 75.0123 160.563 74.5484 160.567C67.0437 160.642 35.4648 162.435 41.8162 187.56C43.9629 196.047 51.8446 198.992 61.8595 198.948L61.9038 198.947C62.7177 198.935 63.5502 198.922 64.394 198.881L64.4499 198.88C68.1673 198.664 71.871 198.194 75.5438 197.471C88.556 195.004 102.366 189.948 111.282 186.321C111.797 186.144 112.323 186.027 112.856 185.971C113.077 185.936 113.322 185.909 113.597 185.891L113.62 185.891C116.055 185.733 120.199 186.186 125.105 189.752C133.001 195.481 140.153 198.155 142.909 189.989C145.665 181.823 137.645 176.418 137.645 176.418C131.532 170.746 123.918 170.178 116.513 170.684C114.227 170.843 111.954 171.113 109.758 171.363C100.97 172.361 92.18 173.358 83.3886 174.354L71.8714 175.68" stroke="black" stroke-width="3.97" stroke-miterlimit="10"/>
<path d="M54.2239 46.3076C54.2239 46.3076 52.9219 43.1884 54.4066 38.2579C55.0189 36.2313 55.723 33.7798 55.388 31.5744C55.2813 30.7575 54.9188 30.0237 54.379 29.5315C53.9912 29.1949 53.5122 29.0601 53.0464 29.1567C51.246 29.4951 50.2742 32.3085 49.698 34.7323" stroke="black" stroke-width="3.97" stroke-miterlimit="10"/>
<path d="M56.8228 44.4475C56.8228 44.4475 55.5929 41.9672 57.1653 38.1018C57.429 37.458 57.876 36.4281 58.2906 35.2575C59.3726 32.3217 60.3526 28.4594 58.0724 27.3871C56.924 26.8481 55.5127 27.806 54.7815 28.8632C54.633 29.0782 54.4945 29.3036 54.3667 29.5381" stroke="black" stroke-width="3.97" stroke-miterlimit="10"/>
<path d="M58.2974 35.2402C58.8723 35.0768 59.4642 35.0191 60.0536 35.0696C61.3756 35.1938 62.9077 35.825 63.4434 37.3876C63.7333 38.2478 63.6555 39.8082 62.9536 40.3059C62.0622 40.9303 60.9534 40.5435 60.0615 41.1276C59.0657 41.7824 58.6962 43.5028 58.8618 44.7972C58.8976 45.3051 59.0684 45.7849 59.3479 46.1617C60.9666 48.1029 61.9799 42.6636 62.571 41.7613C63.3743 40.5301 64.5784 40.731 65.4514 41.7467C67.0454 43.596 66.5863 46.8626 66.0852 49.1585C65.3827 52.371 64.1526 56.1938 62.019 58.3472C61.2557 59.1138 59.9825 60.1071 59.9039 61.4571C59.9039 61.4571 55.795 78.8545 56.1932 88.3679C56.2231 89.1381 56.3856 89.8922 56.67 90.5805C56.9542 91.2685 57.3536 91.8746 57.8418 92.3581C58.3297 92.8418 58.895 93.1919 59.4998 93.3851C60.1046 93.578 60.735 93.6097 61.3491 93.478C63.6743 92.9732 66.0139 92.497 68.3242 91.9319C69.9652 91.5354 71.5993 91.1447 73.2406 90.7684C80.5384 89.1194 87.8295 87.8135 95.2282 87.6617C95.5857 87.6572 95.9293 87.4929 96.1951 87.199C96.461 86.9053 96.6313 86.5019 96.6747 86.0634L96.7965 84.8079L97.6164 77.7605" stroke="black" stroke-width="3.97" stroke-miterlimit="10"/>
<path d="M153.664 47.8626C154.501 45.5616 153.819 42.3642 152.793 39.9558C152.001 38.0858 152.568 35.0597 154.499 34.6934C154.566 34.6924 154.634 34.677 154.697 34.676C156.6 34.5321 157.717 37.5731 158.347 39.3851C159.081 41.541 159.476 43.8471 159.513 46.1807C159.56 48.1478 159.47 50.115 159.246 52.0612C159.054 53.678 158.385 55.2906 158.509 56.9487C158.608 58.3422 159.294 59.6518 159.781 60.901C161.88 66.2502 164.322 71.4098 166.025 76.9465C166.674 79.0198 167.189 81.1523 167.565 83.3243C168.898 91.2143 168.574 99.3835 166.624 107.052C165.56 111.201 163.641 115.299 160.829 117.993C160.538 118.272 160.239 118.536 159.933 118.785C156.282 121.797 151.551 122.744 147.229 122.694C142.638 122.642 138.004 121.553 133.576 120.072C132.803 119.811 132.032 119.535 131.265 119.243C130.458 118.941 129.658 118.633 128.858 118.31C128.02 117.966 127.183 117.618 126.352 117.25" stroke="black" stroke-width="3.97" stroke-miterlimit="10"/>
<path d="M154.696 34.6759C154.051 32.2704 152.989 29.488 151.189 29.2038C150.721 29.1212 150.246 29.2705 149.868 29.6186C149.342 30.1268 149.001 30.8712 148.918 31.6906C148.647 33.9053 149.421 36.3318 150.091 38.342C151.717 43.217 150.503 46.3854 150.503 46.3854" stroke="black" stroke-width="3.97" stroke-miterlimit="10"/>
<path d="M149.868 29.6181C149.734 29.3838 149.584 29.167 149.434 28.9531C148.666 27.9214 147.235 27.0063 146.1 27.5796C143.854 28.7173 144.945 32.5513 146.111 35.4532C146.57 36.5991 147.047 37.6266 147.317 38.2623C149.005 42.0844 147.84 44.595 147.84 44.595" stroke="black" stroke-width="3.97" stroke-miterlimit="10"/>
<path d="M146.11 35.4539C145.531 35.3082 144.937 35.2675 144.35 35.3335C143.032 35.5003 141.518 36.1773 141.028 37.7554C140.763 38.624 140.886 40.1814 141.602 40.6577C142.51 41.255 143.608 40.8321 144.516 41.3919C145.53 42.0164 145.949 43.725 145.821 45.0238C145.8 45.5325 145.642 46.0173 145.374 46.4024C143.812 48.3915 142.643 42.9851 142.026 42.1009C141.187 40.8916 139.99 41.1315 139.146 42.1731C137.485 44.2156 138.278 48.2673 139.022 50.6972C139.832 53.3509 140.87 56.1453 142.498 58.1959C145.206 61.6135 145.574 67.0839 146.342 71.5135C146.658 73.3475 146.962 75.1932 147.21 77.0427C147.705 80.6234 148.013 84.2357 147.832 87.864C147.787 88.8599 147.576 89.8326 147.212 90.7209C146.848 91.6091 146.339 92.3938 145.716 93.0254C145.094 93.6573 144.372 94.1227 143.596 94.3923C142.819 94.662 142.005 94.7301 141.205 94.5926C130.748 92.7759 110.507 89.0719 110.507 89.0719C110.341 89.0392 110.19 88.9355 110.079 88.7792C109.969 88.6226 109.906 88.4236 109.902 88.2164L109.646 77.2137" stroke="black" stroke-width="3.97" stroke-miterlimit="10"/>
<path d="M92.9147 61.1152C92.5695 66.7894 94.2544 73.1737 97.3001 77.3529C102.982 85.1382 107.561 77.1983 107.561 77.1983" stroke="black" stroke-width="3.97" stroke-miterlimit="10"/>
<path d="M111.743 62.5905C111.574 62.2183 111.66 61.5398 111.513 61.0664C111.323 60.4462 110.991 59.9074 110.558 59.5159C109.655 58.7254 108.478 58.7921 107.528 58.0974C106.665 57.4504 105.977 56.5002 105.553 55.3691C105.417 55.008 105.307 54.4563 105.054 54.1978C104.62 53.7634 104.384 54.5422 104.13 54.8515C103.767 55.2824 103.306 55.5678 102.809 55.6709C102.311 55.7738 101.799 55.6899 101.339 55.4297C100.916 55.1795 100.617 54.6681 100.176 54.4702C99.7343 54.2722 99.7193 55.1745 99.6585 55.4924C99.6207 55.7642 99.5337 56.0214 99.4042 56.2456C99.2744 56.4695 99.1054 56.6542 98.9098 56.7862C98.1447 57.2675 97.0862 56.9751 96.4066 56.4291C96.361 56.3912 96.3078 56.3704 96.2532 56.3683C96.1983 56.3665 96.1445 56.3838 96.0976 56.4182C96.0508 56.4529 96.0128 56.503 95.9882 56.5634C95.9637 56.6234 95.9534 56.6913 95.9588 56.7586C96.1177 60.5029 92.5362 61.2284 92.5362 61.2284" stroke="black" stroke-width="3.97" stroke-miterlimit="10"/>
<path d="M98.1008 69.2825C99.8961 69.2555 101.326 67.4353 101.294 65.2169C101.262 62.9985 99.7805 61.2221 97.9851 61.2491C96.1898 61.2762 94.7603 63.0964 94.7922 65.3148C94.8241 67.5332 96.3054 69.3096 98.1008 69.2825Z" stroke="black" stroke-width="3.97" stroke-miterlimit="10"/>
<path d="M106.521 68.7979C108.317 68.7709 109.746 66.9507 109.714 64.7322C109.682 62.5138 108.201 60.7375 106.406 60.7645C104.61 60.7916 103.181 62.6118 103.213 64.8302C103.245 67.0486 104.726 68.825 106.521 68.7979Z" stroke="black" stroke-width="3.97" stroke-miterlimit="10"/>
<path d="M96.6895 65.6897C96.6895 65.6897 98.0268 67.5285 99.3479 65.6496" stroke="black" stroke-width="3.97" stroke-miterlimit="10"/>
<path d="M105.15 65.563C105.15 65.563 106.487 67.4018 107.811 65.5229" stroke="black" stroke-width="3.97" stroke-miterlimit="10"/>
<path d="M102.78 74.4603C103.412 74.4507 103.916 73.8097 103.904 73.0282C103.893 72.2468 103.371 71.6212 102.739 71.6307C102.107 71.6402 101.603 72.2813 101.614 73.0627C101.626 73.8442 102.147 74.4698 102.78 74.4603Z" stroke="black" stroke-width="3.97" stroke-miterlimit="10"/>
<path d="M101.294 65.2176C101.294 65.2176 102.009 63.7226 103.212 64.8314" stroke="black" stroke-width="3.97" stroke-miterlimit="10"/>
<path d="M99.7132 59.2775C99.7132 59.2775 96.293 56.1414 93.5076 59.1894" stroke="black" stroke-width="3.97" stroke-miterlimit="10"/>
<path d="M109.563 57.458C109.563 57.458 105.529 55.7896 103.651 59.7519" stroke="black" stroke-width="3.97" stroke-miterlimit="10"/>
<path d="M95.7918 74.9572C95.7937 75.6252 95.6254 76.2756 95.3108 76.817C94.9962 77.3581 94.5514 77.7622 94.0392 77.9723C92.383 78.6053 90.5978 77.0874 89.8492 75.3147C89.5768 74.7024 89.4465 74.0097 89.4729 73.3133C89.499 72.6172 89.6806 71.9444 89.9977 71.3698C90.026 71.3123 90.0445 71.2484 90.0519 71.1817C90.0593 71.115 90.0558 71.047 90.0413 70.9821C90.0268 70.9169 90.0017 70.8562 89.9676 70.8034C89.9337 70.7506 89.8913 70.7068 89.8431 70.6747C89.5159 70.439 89.2433 70.103 89.0521 69.6992C88.8606 69.2955 88.757 68.8379 88.751 68.3711C88.7491 68.1775 88.7634 67.9839 88.794 67.7941C88.8037 67.7239 88.8013 67.6519 88.7872 67.5829C88.7732 67.5137 88.7475 67.4489 88.7119 67.3924C88.6764 67.3361 88.6318 67.2893 88.5812 67.2551C88.5303 67.221 88.4743 67.2006 88.4168 67.1945C88.2468 67.178 88.0779 67.146 87.9116 67.0984C87.4449 66.9019 87.021 66.5737 86.674 66.1394C86.3272 65.7054 86.067 65.1773 85.9141 64.598C85.174 61.7963 86.8914 58.7673 89.0714 58.0572C88.398 56.6494 87.5164 55.5185 87.1452 53.8784C86.7741 52.2383 86.9502 50.5353 87.9423 49.2926C89.4889 47.3642 92.1675 47.9176 93.4662 49.9875C92.5875 48.4156 92.8759 46.2497 93.819 44.8464C94.9609 43.1518 97.2292 42.7516 98.8342 43.5805C99.598 43.9812 100.098 44.8267 100.626 45.571C101.609 41.9363 105.704 41.8516 107.909 43.7147C109.057 44.6975 109.815 46.4989 109.478 48.1583C109.299 48.9997 109.658 49.4957 110.361 49.0989C111.065 48.7021 111.698 48.1623 112.558 48.2646C115.535 48.6089 117.717 53.6052 115.525 56.526C115.296 56.835 114.776 57.1627 114.665 57.5765C114.424 58.4448 116.006 58.6457 116.429 58.8613C120.145 60.719 119.471 70.1189 114.962 70.377C115.108 71.1731 115.429 72.0531 115.392 72.8779C115.319 74.6227 114.332 75.5828 112.976 75.658C113.015 76.0563 112.956 76.4592 112.806 76.8137C112.656 77.1681 112.423 77.4581 112.137 77.6449C111.416 78.1341 110.223 78.0397 109.663 77.2152C108.767 75.9203 109.643 74.1923 110.068 72.9351C110.694 71.0955 110.988 69.1169 111.256 67.1531C111.503 65.5256 111.654 63.8771 111.707 62.2208L111.706 62.1517" stroke="#39CD8F" stroke-width="3.97" stroke-miterlimit="10"/>
<path d="M2.79136 197.724L50.1835 197.01" stroke="black" stroke-width="3.97" stroke-miterlimit="10"/>
<path d="M169.437 195.214L212.666 194.563" stroke="black" stroke-width="3.97" stroke-miterlimit="10"/>
</svg>
