<svg width="220" height="204" viewBox="0 0 220 204" fill="none" xmlns="http://www.w3.org/2000/svg">
<g clip-path="url(#clip0_5_73)" filter="url(#filter0_d_5_73)">
<path d="M216 195.552C216 195.8 215.786 196 215.519 196H4.48084C4.21417 196 4 195.8 4 195.552C4 195.303 4.21417 195.103 4.48084 195.103H215.519C215.786 195.103 216 195.303 216 195.552Z" fill="#3F3D56"/>
<path d="M150.49 173.721L152.914 183.141L145.641 185.025L144.025 174.851L150.49 173.721Z" fill="#FFB6B6"/>
<path d="M162.208 143.201L154.531 149.23L149.682 156.389L156.551 160.533L168.269 148.099L162.208 143.201Z" fill="#FFB6B6"/>
<path d="M159.783 81.0315L166.248 101.378C166.248 101.378 194.937 124.739 192.108 129.637C189.28 134.535 170.289 148.1 170.289 148.1C170.289 148.1 171.699 152.437 167.559 150.645C163.42 148.853 158.975 143.955 158.975 143.955C158.975 143.955 158.975 140.187 160.996 140.941C163.016 141.694 172.309 131.521 172.309 131.521L152.106 114.189V172.144C152.106 172.144 156.955 176.098 152.106 176.417C147.257 176.735 142.813 177.489 142.813 177.489C142.813 177.489 137.156 175.605 139.176 173.721L133.115 142.825L128.671 105.146L131.903 85.5529L159.783 81.0315V81.0315Z" fill="#2F2E41"/>
<path d="M146.853 182.01C146.853 182.01 147.257 180.503 148.874 180.503H153.81C153.81 180.503 155.339 186.909 154.935 186.909C154.531 186.909 161.4 195.198 154.127 195.575C146.853 195.951 144.833 195.198 144.833 195.198L144.025 192.224C144.025 192.224 142.813 190.3 143.217 188.792C143.621 187.285 146.853 182.01 146.853 182.01V182.01Z" fill="#2F2E41"/>
<path d="M156.955 157.519C156.955 157.519 161.596 157.451 160.488 158.615C159.379 159.78 157.359 161.664 157.359 161.664C157.359 161.664 152.553 170.707 150.309 169.011C148.066 167.316 144.429 148.476 145.641 146.216C146.853 143.955 148.47 143.955 148.47 143.955L155.924 148.135C155.924 148.135 151.298 158.65 156.955 157.519Z" fill="#2F2E41"/>
<path d="M145.641 49.0045L147.257 39.5848L136.348 35.4402L134.731 49.7581L145.641 49.0045Z" fill="#FFB6B6"/>
<path opacity="0.1" d="M145.641 49.0045L147.257 39.5848L136.348 35.4402L134.731 49.7581L145.641 49.0045Z" fill="black"/>
<path d="M134.125 47.6857L147.055 44.6714L160.794 48.816C160.794 48.816 166.855 64.6411 164.834 70.2929C162.814 75.9447 162.814 86.9843 162.814 86.9843C162.814 86.9843 162.612 82.1617 150.894 85.5528C139.176 88.9439 130.691 88.5671 130.691 88.5671L130.287 75.0028L125.211 62.9543C123.041 57.8045 125.38 51.9575 130.636 49.3902L134.125 47.6857V47.6857Z" fill="#E6E6E6"/>
<path d="M193.48 92.0722C195.305 94.1105 195.656 96.6405 194.264 97.7231C192.873 98.8056 190.267 98.0306 188.442 95.9914C187.701 95.1862 187.178 94.2272 186.916 93.1946L179.302 84.4674L183.011 81.6687L190.801 90.171C191.844 90.5962 192.763 91.2481 193.48 92.0722V92.0722Z" fill="#FFB6B6"/>
<path d="M160.206 48.9365L157.557 58.724L170.526 78.0829L183.766 90.4909L188.057 87.1711L174.704 71.6789L164.583 51.7177L160.206 48.9365Z" fill="#E6E6E6"/>
<path d="M191.08 39.4894C200.316 38.853 207.104 29.5047 206.24 18.6095C205.377 7.71427 197.19 -0.602098 187.954 0.0343591C178.718 0.670817 171.931 10.0191 172.794 20.9143C173.657 31.8095 181.845 40.1259 191.08 39.4894Z" fill="#6C63FF"/>
<path d="M190.729 39.4893H189.921V114.635H190.729V39.4893Z" fill="#2F2E41"/>
<path d="M190.93 37.9026L191.027 40.5653L192.318 43.0304L186.934 42.7743L189.197 40.6516L188.941 38.2322L190.93 37.9026Z" fill="#6C63FF"/>
<path d="M142.884 42.6128C149.029 42.6128 154.01 37.9681 154.01 32.2385C154.01 26.509 149.029 21.8643 142.884 21.8643C136.74 21.8643 131.759 26.509 131.759 32.2385C131.759 37.9681 136.74 42.6128 142.884 42.6128Z" fill="#FFB6B6"/>
<path d="M141.996 18.2911C142.318 18.4664 142.749 18.2012 142.853 17.8672C142.956 17.5332 142.836 17.1786 142.716 16.8493L142.116 15.1914C141.69 14.0156 141.239 12.7987 140.317 11.9037C138.925 10.553 136.713 10.2093 134.722 10.4583C132.166 10.778 129.643 12.0689 128.454 14.2037C127.266 16.3385 127.772 19.3173 129.92 20.6492C126.858 23.9213 125.791 27.568 125.96 31.9075C126.128 36.2471 131.199 40.2409 134.507 43.298C135.245 42.8805 135.917 40.924 135.511 40.2132C135.104 39.5025 135.686 38.679 135.183 38.0243C134.68 37.3696 134.26 38.4121 134.768 37.7611C135.089 37.3504 133.837 36.4053 134.314 36.1595C136.621 34.9703 137.388 32.2888 138.837 30.2354C140.585 27.7586 143.576 26.0813 146.741 25.803C148.485 25.6497 150.327 25.9273 151.756 26.8714C153.185 27.8154 154.111 29.5023 153.779 31.106C154.638 30.2933 155.065 29.1023 154.904 27.9715C154.743 26.8407 153.997 25.7951 152.94 25.2196C153.583 23.2392 153.032 20.9611 151.542 19.4285C150.051 17.896 144.004 18.157 141.828 18.5604" fill="#2F2E41"/>
<path d="M141.658 25.863C138.776 26.1532 136.695 28.4814 134.938 30.6315C133.925 31.8708 132.864 33.2393 132.889 34.7973C132.915 36.3725 134.044 37.7235 134.584 39.2163C135.466 41.6563 134.606 44.5594 132.506 46.2312C134.581 46.5985 136.825 45.1475 137.183 43.2064C137.6 40.9467 135.763 38.7658 135.981 36.4819C136.172 34.4697 137.873 32.9211 139.318 31.4166C140.764 29.9122 142.122 27.9158 141.457 25.9932" fill="#2F2E41"/>
<path d="M131.048 88.3784H47.9449C38.521 88.3784 30.8813 95.5023 30.8813 104.29V179.434C30.8813 188.222 38.521 195.346 47.9449 195.346H131.048C140.472 195.346 148.112 188.222 148.112 179.434V104.29C148.112 95.5023 140.472 88.3784 131.048 88.3784V88.3784Z" fill="white"/>
<path d="M131.048 195.722H47.945C38.3133 195.722 30.4773 188.415 30.4773 179.434V104.29C30.4773 95.3088 38.3133 88.0017 47.945 88.0017H131.048C140.68 88.0017 148.516 95.3088 148.516 104.29V179.434C148.516 188.415 140.68 195.722 131.048 195.722ZM47.945 88.7553C38.7588 88.7553 31.2854 95.7242 31.2854 104.29V179.434C31.2854 188 38.7588 194.969 47.945 194.969H131.048C140.234 194.969 147.708 188 147.708 179.434V104.29C147.708 95.7242 140.234 88.7553 131.048 88.7553H47.945V88.7553Z" fill="#3F3D56"/>
<path d="M122.279 95.7708C123.344 95.7708 124.206 94.9663 124.206 93.9739C124.206 92.9815 123.344 92.177 122.279 92.177C121.215 92.177 120.352 92.9815 120.352 93.9739C120.352 94.9663 121.215 95.7708 122.279 95.7708Z" fill="#3F3D56"/>
<path d="M127.579 95.7708C128.643 95.7708 129.506 94.9663 129.506 93.9739C129.506 92.9815 128.643 92.177 127.579 92.177C126.514 92.177 125.652 92.9815 125.652 93.9739C125.652 94.9663 126.514 95.7708 127.579 95.7708Z" fill="#3F3D56"/>
<path d="M132.878 95.7708C133.942 95.7708 134.805 94.9663 134.805 93.9739C134.805 92.9815 133.942 92.177 132.878 92.177C131.814 92.177 130.951 92.9815 130.951 93.9739C130.951 94.9663 131.814 95.7708 132.878 95.7708Z" fill="#3F3D56"/>
<path d="M45.2207 169.038C44.622 169.038 44.135 169.492 44.135 170.051C44.135 170.323 44.2477 170.575 44.4524 170.761C44.6588 170.958 44.9291 171.063 45.2207 171.063H132.134C132.733 171.063 133.22 170.609 133.22 170.051C133.22 169.779 133.107 169.527 132.902 169.341C132.696 169.144 132.426 169.038 132.134 169.038H45.2207Z" fill="#E6E6E6"/>
<path d="M91.6938 168.701V171.401H45.2207C44.8226 171.401 44.4607 171.252 44.2002 171.002C43.9323 170.759 43.7731 170.422 43.7731 170.051C43.7731 169.308 44.4246 168.701 45.2207 168.701H91.6938V168.701Z" fill="#6C63FF"/>
<path d="M130.325 163.639H115.849C114.252 163.639 112.954 162.428 112.954 160.939C112.954 159.45 114.252 158.24 115.849 158.24H130.325C131.921 158.24 133.22 159.45 133.22 160.939C133.22 162.428 131.921 163.639 130.325 163.639Z" fill="#E6E6E6"/>
<path d="M75.9412 165.568L65.8219 133.863L65.0473 134.077L75.1311 165.672" fill="#2F2E41"/>
<path d="M76.2914 93.4118C85.5273 92.7753 92.3145 83.4271 91.4511 72.5318C90.5876 61.6366 82.4005 53.3203 73.1646 53.9567C63.9287 54.5932 57.1415 63.9414 58.005 74.8367C58.8684 85.7319 67.0556 94.0482 76.2914 93.4118Z" fill="#6C63FF"/>
<path d="M75.9402 93.4119H75.1321V168.558H75.9402V93.4119Z" fill="#2F2E41"/>
<path d="M66.2766 132.944L67.1838 135.47L69.1745 137.49L63.9359 138.676L65.4559 136.04L64.4708 133.789L66.2766 132.944Z" fill="#6C63FF"/>
<path d="M76.1414 91.825L76.2383 94.4877L77.5288 96.9527L72.1449 96.6967L74.408 94.574L74.1522 92.1545L76.1414 91.825Z" fill="#6C63FF"/>
<path d="M66.5489 133.606C75.1986 130.521 78.8173 119.748 74.6314 109.544C70.4454 99.3401 60.04 93.5696 51.3902 96.6551C42.7405 99.7406 39.1218 110.514 43.3078 120.718C47.4937 130.921 57.8991 136.692 66.5489 133.606Z" fill="#6C63FF"/>
<path d="M139.971 84.5215C142.697 85.2888 144.482 87.2223 143.958 88.8398C143.434 90.4572 140.8 91.146 138.073 90.378C136.979 90.0852 135.977 89.5523 135.149 88.8241L123.644 85.4368L125.093 81.1978L136.613 84.3065C137.735 84.127 138.886 84.2007 139.971 84.5215V84.5215Z" fill="#FFB6B6"/>
<path d="M119.983 56.7285L132.105 48.4392L131.701 64.2643L120.387 77.8286L132.509 82.3501L132.105 88.8058C132.105 88.8058 116.751 85.3644 114.326 84.9876C111.902 84.6108 109.882 79.3358 109.882 79.3358L119.983 56.7285Z" fill="#E6E6E6"/>
</g>
<defs>
<filter id="filter0_d_5_73" x="0" y="0" width="220" height="204" filterUnits="userSpaceOnUse" color-interpolation-filters="sRGB">
<feFlood flood-opacity="0" result="BackgroundImageFix"/>
<feColorMatrix in="SourceAlpha" type="matrix" values="0 0 0 0 0 0 0 0 0 0 0 0 0 0 0 0 0 0 127 0" result="hardAlpha"/>
<feOffset dy="4"/>
<feGaussianBlur stdDeviation="2"/>
<feComposite in2="hardAlpha" operator="out"/>
<feColorMatrix type="matrix" values="0 0 0 0 0 0 0 0 0 0 0 0 0 0 0 0 0 0 0.25 0"/>
<feBlend mode="normal" in2="BackgroundImageFix" result="effect1_dropShadow_5_73"/>
<feBlend mode="normal" in="SourceGraphic" in2="effect1_dropShadow_5_73" result="shape"/>
</filter>
<clipPath id="clip0_5_73">
<rect width="212" height="196" fill="white" transform="translate(4)"/>
</clipPath>
</defs>
</svg>
