<svg width="38" height="37" viewBox="0 0 38 37" fill="none" xmlns="http://www.w3.org/2000/svg">
<path d="M38 19.0223C38 17.4993 37.87 16.3879 37.5886 15.2354H19.2923V22.1094H30.0318C29.8154 23.8177 28.6462 26.3904 26.0478 28.1191L26.0114 28.3493L31.7964 32.6091L32.1972 32.6471C35.878 29.4158 38 24.6615 38 19.0223Z" fill="#4285F4"/>
<path d="M19.2122 37C24.4887 37 28.9183 35.3721 32.1538 32.5642L25.987 28.0875C24.3367 29.166 22.1218 29.9188 19.2122 29.9188C14.0442 29.9188 9.65795 26.7243 8.09438 22.3088L7.86519 22.3271L1.83274 26.7019L1.75385 26.9074C4.96752 32.8896 11.5687 37 19.2122 37Z" fill="#34A853"/>
<path d="M8.18462 22.362C7.78383 21.1618 7.55188 19.8757 7.55188 18.5469C7.55188 17.218 7.78383 15.9321 8.16353 14.7318L8.15291 14.4762L2.21917 9.79407L2.02503 9.88789C0.738318 12.5028 0 15.4392 0 18.5469C0 21.6547 0.738318 24.591 2.02503 27.2058L8.18462 22.362Z" fill="#FBBC05"/>
<path d="M19.1377 7.08103C22.7917 7.08103 25.2565 8.56642 26.662 9.80772L32.1538 4.76141C28.781 1.81097 24.3917 0 19.1377 0C11.5268 0 4.95381 4.11025 1.75385 10.0925L8.04572 14.6912C9.62424 10.2757 13.9918 7.08103 19.1377 7.08103Z" fill="#EB4335"/>
</svg>
