<svg width="53" height="49" viewBox="0 0 53 49" fill="none" xmlns="http://www.w3.org/2000/svg">
<path d="M19.875 19.9062C19.875 18.2152 18.3916 16.8438 16.5625 16.8438H14.9062C11.247 16.8438 8.28125 19.5856 8.28125 22.9688V27.5625C8.28125 30.9456 11.247 33.6875 14.9062 33.6875H16.5625C18.3916 33.6875 19.875 32.3161 19.875 30.625V19.9062ZM38.0938 33.6875C41.753 33.6875 44.7188 30.9456 44.7188 27.5625V22.9688C44.7188 19.5856 41.753 16.8438 38.0938 16.8438H36.4375C34.6084 16.8438 33.125 18.2152 33.125 19.9062V30.625C33.125 32.3161 34.6084 33.6875 36.4375 33.6875H38.0938ZM26.5 0C11.7159 0 0.474102 11.3724 0 24.5V26.0312C0 26.8773 0.741172 27.5625 1.65625 27.5625H3.3125C4.22758 27.5625 4.96875 26.8773 4.96875 26.0312V24.5C4.96875 13.5238 14.6278 4.59375 26.5 4.59375C38.3722 4.59375 48.0312 13.5238 48.0312 24.5H48.0188C48.0271 24.7326 48.0312 40.3599 48.0312 40.3599C48.0312 42.5946 46.0717 44.4062 43.6546 44.4062H33.125C33.125 41.8692 30.9004 39.8125 28.1562 39.8125H24.8438C22.0996 39.8125 19.875 41.8692 19.875 44.4062C19.875 46.9433 22.0996 49 24.8438 49H43.6546C48.8159 49 53 45.1317 53 40.3599V24.5C52.5259 11.3724 41.2841 0 26.5 0Z" fill="#6C63FF"/>
</svg>
