<svg width="37" height="50" viewBox="0 0 37 50" fill="none" xmlns="http://www.w3.org/2000/svg">
<path d="M31.7029 0H4.52899C2.02861 0 0 2.09961 0 4.6875V45.3125C0 47.9004 2.02861 50 4.52899 50H31.7029C34.2033 50 36.2319 47.9004 36.2319 45.3125V4.6875C36.2319 2.09961 34.2033 0 31.7029 0ZM18.1159 12.5C21.4466 12.5 24.1546 15.3027 24.1546 18.75C24.1546 22.1973 21.4466 25 18.1159 25C14.7853 25 12.0773 22.1973 12.0773 18.75C12.0773 15.3027 14.7853 12.5 18.1159 12.5ZM28.6836 35.625C28.6836 36.6602 27.74 37.5 26.57 37.5H9.66184C8.49185 37.5 7.54831 36.6602 7.54831 35.625V33.75C7.54831 30.6445 10.3884 28.125 13.8889 28.125H14.3607C15.5212 28.623 16.7856 28.9062 18.1159 28.9062C19.4463 28.9062 20.7201 28.623 21.8712 28.125H22.343C25.8435 28.125 28.6836 30.6445 28.6836 33.75V35.625Z" fill="#6C63FF"/>
</svg>
