<svg width="50" height="43" viewBox="0 0 50 43" fill="none" xmlns="http://www.w3.org/2000/svg">
<path d="M48.4375 35.8333H6.25V1.79167C6.25 0.801771 5.55078 0 4.6875 0H1.5625C0.699219 0 0 0.801771 0 1.79167V39.4167C0 41.3953 1.39941 43 3.125 43H48.4375C49.3008 43 50 42.1982 50 41.2083V37.625C50 36.6351 49.3008 35.8333 48.4375 35.8333ZM45.3125 3.58333H33.7832C31.6953 3.58333 30.6494 6.47799 32.126 8.17112L35.29 11.7992L28.125 20.0163L20.96 11.8004C19.7393 10.4006 17.7607 10.4006 16.541 11.8004L9.83301 19.4922C9.22266 20.1921 9.22266 21.3264 9.83301 22.0263L12.042 24.5593C12.6523 25.2591 13.6416 25.2591 14.252 24.5593L18.75 19.4004L25.915 27.6163C27.1357 29.016 29.1143 29.016 30.334 27.6163L39.709 16.8663L42.873 20.4944C44.3496 22.1876 46.874 20.9883 46.874 18.5941V5.375C46.875 4.3851 46.1758 3.58333 45.3125 3.58333Z" fill="#6C63FF"/>
</svg>
