<svg width="50" height="35" viewBox="0 0 50 35" fill="none" xmlns="http://www.w3.org/2000/svg">
<path d="M28.75 0H21.25C19.8695 0 18.75 1.11953 18.75 2.5V10C18.75 11.3805 19.8695 12.5 21.25 12.5H28.75C30.1305 12.5 31.25 11.3805 31.25 10V2.5C31.25 1.11953 30.1305 0 28.75 0ZM16.25 4.375H9.62891C8.88672 2.54375 7.09688 1.25 5 1.25C2.23906 1.25 0 3.48828 0 6.25C0 9.01172 2.23906 11.25 5 11.25C7.09688 11.25 8.88672 9.95625 9.62891 8.125H15.8578C11.532 10.6656 8.36875 14.9469 7.3 20H11.1594C12.0422 16.7492 14.032 13.968 16.7094 12.0656C16.4203 11.4344 16.25 10.7383 16.25 10V4.375ZM12.5 22.5H5C3.61953 22.5 2.5 23.6195 2.5 25V32.5C2.5 33.8805 3.61953 35 5 35H12.5C13.8805 35 15 33.8805 15 32.5V25C15 23.6195 13.8805 22.5 12.5 22.5ZM45 1.25C42.9031 1.25 41.1133 2.54375 40.3711 4.375H33.75V10C33.75 10.7383 33.5789 11.4344 33.2906 12.0656C35.968 13.968 37.9578 16.7492 38.8406 20H42.7C41.6312 14.9469 38.468 10.6656 34.1422 8.125H40.3711C41.1133 9.95625 42.9031 11.25 45 11.25C47.7609 11.25 50 9.01172 50 6.25C50 3.48828 47.7609 1.25 45 1.25ZM45 22.5H37.5C36.1195 22.5 35 23.6195 35 25V32.5C35 33.8805 36.1195 35 37.5 35H45C46.3805 35 47.5 33.8805 47.5 32.5V25C47.5 23.6195 46.3805 22.5 45 22.5Z" fill="black"/>
</svg>
