<svg width="152" height="117" viewBox="0 0 152 117" fill="none" xmlns="http://www.w3.org/2000/svg">
<g clip-path="url(#clip0_304_592)">
<path d="M26.2498 108.814C24.9781 112.69 26.9517 116.652 26.9517 116.652C26.9517 116.652 30.9872 114.331 32.2588 110.455C33.5305 106.58 31.5569 102.617 31.5569 102.617C31.5569 102.617 27.5215 104.938 26.2498 108.814Z" fill="#F2F2F2"/>
<path d="M28.1805 108.919C29.2508 112.845 27.0749 116.718 27.0749 116.718C27.0749 116.718 23.1637 114.226 22.0934 110.3C21.0231 106.374 23.199 102.501 23.199 102.501C23.199 102.501 27.1102 104.993 28.1805 108.919Z" fill="#F2F2F2"/>
<path d="M91.7851 112.817L92.5945 110.918L84.9489 107.165L83.7543 109.969L91.7851 112.817Z" fill="#FFB8B8"/>
<path d="M96.122 107.862C95.7789 107.74 95.4128 107.681 95.0446 107.688C94.6765 107.695 94.3135 107.769 93.9765 107.904C93.6395 108.039 93.335 108.234 93.0805 108.477C92.826 108.72 92.6264 109.006 92.4931 109.319L91.9471 110.599L91.1052 112.576L90.8994 113.061L93.5973 114.018L96.2068 107.892L96.122 107.862Z" fill="#2F2E41"/>
<path d="M91.1055 109.161L90.7535 110.013L89.8749 112.139L89.8538 112.192C87.6153 112.455 85.1614 111.94 82.8917 111.141C81.9835 110.821 81.0941 110.459 80.2269 110.056C78.9433 109.464 77.7941 108.84 76.8772 108.306C75.4968 107.498 74.6432 106.891 74.6432 106.891C74.6432 106.891 74.4177 107.077 74.0097 107.395C73.4628 107.822 72.5889 108.489 71.4819 109.274C71.0596 109.575 70.6062 109.891 70.1217 110.22C66.5501 112.637 61.9667 106.187 61.9667 106.187C61.9667 106.187 63.2557 105.439 63.5925 105.293C64.6769 104.825 67.2244 103.721 69.4223 102.739C70.5546 102.233 71.5928 101.758 72.2898 101.42C74.758 100.222 77.8262 102.49 77.8262 102.49L91.1055 109.161Z" fill="#2F2E41"/>
<path opacity="0.14" d="M91.1055 109.161L90.7535 110.013L89.8749 112.139L89.8538 112.192C87.6153 112.455 85.1614 111.94 82.8917 111.141C81.9835 110.821 81.0941 110.459 80.2269 110.056C78.9433 109.464 77.7941 108.84 76.8772 108.306C75.4968 107.498 74.6432 106.891 74.6432 106.891C74.6432 106.891 74.4177 107.077 74.0097 107.395C73.4628 107.822 72.5889 108.489 71.4819 109.274C71.0596 109.575 70.6062 109.891 70.1217 110.22C66.5501 112.637 61.9667 106.187 61.9667 106.187C61.9667 106.187 63.2557 105.439 63.5925 105.293C64.6769 104.825 67.2244 103.721 69.4223 102.739C70.5546 102.233 71.5928 101.758 72.2898 101.42C74.758 100.222 77.8262 102.49 77.8262 102.49L91.1055 109.161Z" fill="black"/>
<path d="M45.8754 63.9429C63.2157 63.9429 77.2728 51.1179 77.2728 35.2975C77.2728 19.4771 63.2157 6.65216 45.8754 6.65216C28.5351 6.65216 14.478 19.4771 14.478 35.2975C14.478 51.1179 28.5351 63.9429 45.8754 63.9429Z" fill="#6C63FF"/>
<path opacity="0.2" d="M22.6926 16.1647C19.7639 22.4149 19.3666 29.4116 21.5717 35.9044C23.7768 42.3973 28.4406 47.9633 34.7296 51.6077C41.0187 55.2522 48.5232 56.7376 55.9022 55.7987C63.2813 54.8597 70.0539 51.5575 75.0099 46.4821C73.2209 50.3007 70.5432 53.7188 67.1625 56.4996C63.7818 59.2803 59.7789 61.3573 55.431 62.5865C51.0832 63.8157 46.4944 64.1677 41.9826 63.6183C37.4708 63.0689 33.1439 61.6311 29.3016 59.4045C25.4593 57.1779 22.1936 54.2159 19.7306 50.7235C17.2677 47.2311 15.6664 43.2919 15.0377 39.1789C14.4091 35.0659 14.7681 30.8773 16.0898 26.9034C17.4116 22.9295 19.6646 19.2653 22.6926 16.1647Z" fill="black"/>
<path d="M45.9617 35.2974H46.0481L47.6007 116.512H44.3229L45.9617 35.2974Z" fill="#3F3D56"/>
<path d="M41.1285 72.1302L40.4052 73.3836L45.5952 75.8766L46.3185 74.6231L41.1285 72.1302Z" fill="#3F3D56"/>
<path d="M151.818 116.835H12.6073C12.5589 116.835 12.5126 116.818 12.4784 116.786C12.4442 116.755 12.425 116.713 12.425 116.669C12.425 116.625 12.4442 116.582 12.4784 116.551C12.5126 116.52 12.5589 116.503 12.6073 116.503H151.818C151.866 116.503 151.912 116.52 151.947 116.551C151.981 116.582 152 116.625 152 116.669C152 116.713 151.981 116.755 151.947 116.786C151.912 116.818 151.866 116.835 151.818 116.835Z" fill="#3F3D56"/>
<path d="M55.381 91.2819H44.8126C44.5952 91.2816 44.3868 91.2028 44.2331 91.0625C44.0794 90.9223 43.9929 90.7321 43.9927 90.5338V86.3777C43.9927 84.9007 44.6358 83.4842 45.7805 82.4398C46.9253 81.3954 48.4779 80.8087 50.0968 80.8087C51.7157 80.8087 53.2683 81.3954 54.4131 82.4398C55.5578 83.4842 56.2009 84.9007 56.2009 86.3777V90.5338C56.2007 90.7321 56.1142 90.9223 55.9605 91.0625C55.8068 91.2028 55.5984 91.2816 55.381 91.2819Z" fill="#2F2E41"/>
<path d="M65.4313 96.5022C65.1853 96.5416 64.9518 96.6297 64.7471 96.7604C64.5425 96.8911 64.3717 97.0611 64.2469 97.2585C64.1221 97.4559 64.0462 97.6758 64.0246 97.9029C64.0031 98.1299 64.0363 98.3585 64.1221 98.5726L61.2483 100.984L62.4286 102.935L66.4345 99.4773C66.8191 99.3221 67.1279 99.0435 67.3024 98.6944C67.4769 98.3453 67.505 97.95 67.3813 97.5832C67.2577 97.2165 66.9909 96.9039 66.6315 96.7047C66.2721 96.5054 65.8451 96.4334 65.4313 96.5022Z" fill="#FFB8B8"/>
<path d="M56.7844 107.466C56.6546 107.466 56.5246 107.461 56.3944 107.451C55.6192 107.392 54.8731 107.154 54.2262 106.76C53.5793 106.366 53.0527 105.828 52.6959 105.197L48.0919 97.1124C47.7902 96.5827 47.724 95.9672 47.907 95.3941C48.0901 94.8209 48.5082 94.3342 49.0746 94.0351C49.6409 93.7361 50.3118 93.6478 50.9477 93.7886C51.5836 93.9293 52.1355 94.2883 52.4887 94.7909L56.7362 103.486L62.5159 99.2016L65.8623 100.39L60.2108 106.083C59.7763 106.518 59.2473 106.865 58.6574 107.104C58.0674 107.342 57.4296 107.465 56.7844 107.466Z" fill="#CCCCCC"/>
<path d="M73.815 94.9738L68.6945 90.3022C68.5154 90.1388 68.2724 90.0469 68.0191 90.0469C67.7658 90.0469 67.5228 90.1388 67.3437 90.3022L62.7374 94.5047C62.5583 94.6682 62.4576 94.8898 62.4576 95.1209C62.4576 95.352 62.5583 95.5737 62.7374 95.7371L67.5217 100.102C67.6923 100.258 67.9211 100.349 68.1623 100.357C68.4034 100.365 68.6389 100.289 68.8215 100.145L73.764 96.2494C73.8589 96.1746 73.9368 96.0835 73.9931 95.9812C74.0494 95.879 74.0831 95.7676 74.0922 95.6535C74.1013 95.5393 74.0857 95.4247 74.0463 95.316C74.0069 95.2074 73.9443 95.1069 73.8623 95.0203C73.8472 95.0043 73.8314 94.9888 73.815 94.9738Z" fill="#3F3D56"/>
<path d="M73.09 95.793L67.8193 90.9845L63.4697 94.9528L68.5358 99.5747L73.09 95.793Z" fill="#F2F2F2"/>
<path d="M68.193 97.1926C69.3751 97.1926 70.3333 96.3183 70.3333 95.2399C70.3333 94.1615 69.3751 93.2872 68.193 93.2872C67.011 93.2872 66.0527 94.1615 66.0527 95.2399C66.0527 96.3183 67.011 97.1926 68.193 97.1926Z" fill="#6C63FF"/>
<path opacity="0.1" d="M69.1457 96.9042C69.5038 96.5973 69.7351 96.1874 69.8011 95.7432C69.867 95.299 69.7634 94.8477 69.5077 94.4649C69.252 94.0822 68.8598 93.7914 68.3969 93.6413C67.934 93.4912 67.4285 93.4909 66.9655 93.6406C67.2156 93.4808 67.5004 93.3716 67.8007 93.3205C68.1009 93.2694 68.4097 93.2776 68.7062 93.3444C69.0027 93.4112 69.2801 93.5351 69.5198 93.7078C69.7595 93.8806 69.9558 94.0981 70.0957 94.3458C70.2356 94.5935 70.3157 94.8657 70.3307 95.144C70.3457 95.4223 70.2953 95.7004 70.1828 95.9594C70.0702 96.2185 69.8982 96.4526 69.6783 96.6459C69.4584 96.8393 69.1957 96.9875 68.9078 97.0806C68.9916 97.027 69.0711 96.9681 69.1457 96.9042Z" fill="black"/>
<path d="M67.1408 94.8519C66.8856 95.0707 66.8721 95.8584 67.2618 96.2368C67.6515 96.6152 68.2969 96.4411 68.5521 96.2223C68.8073 96.0035 68.5758 95.8228 68.1861 95.4444C67.7964 95.066 67.3961 94.6331 67.1408 94.8519Z" fill="#F2F2F2"/>
<path d="M69.3136 95.8503C69.6638 95.8503 69.9478 95.5913 69.9478 95.2717C69.9478 94.9522 69.6638 94.6932 69.3136 94.6932C68.9634 94.6932 68.6794 94.9522 68.6794 95.2717C68.6794 95.5913 68.9634 95.8503 69.3136 95.8503Z" fill="#2F2E41"/>
<path d="M68.1737 94.7435C68.5239 94.7435 68.8079 94.4845 68.8079 94.1649C68.8079 93.8454 68.5239 93.5864 68.1737 93.5864C67.8235 93.5864 67.5396 93.8454 67.5396 94.1649C67.5396 94.4845 67.8235 94.7435 68.1737 94.7435Z" fill="#2F2E41"/>
<path d="M69.3136 95.4164C69.4011 95.4164 69.4721 95.3517 69.4721 95.2718C69.4721 95.1919 69.4011 95.1271 69.3136 95.1271C69.226 95.1271 69.155 95.1919 69.155 95.2718C69.155 95.3517 69.226 95.4164 69.3136 95.4164Z" fill="#F2F2F2"/>
<path d="M69.3818 94.9879C69.4255 94.9879 69.461 94.9555 69.461 94.9155C69.461 94.8756 69.4255 94.8432 69.3818 94.8432C69.338 94.8432 69.3025 94.8756 69.3025 94.9155C69.3025 94.9555 69.338 94.9879 69.3818 94.9879Z" fill="#F2F2F2"/>
<path d="M68.2419 93.8811C68.2856 93.8811 68.3211 93.8487 68.3211 93.8088C68.3211 93.7688 68.2856 93.7365 68.2419 93.7365C68.1981 93.7365 68.1626 93.7688 68.1626 93.8088C68.1626 93.8487 68.1981 93.8811 68.2419 93.8811Z" fill="#F2F2F2"/>
<path d="M68.1737 94.3096C68.2612 94.3096 68.3322 94.2448 68.3322 94.165C68.3322 94.0851 68.2612 94.0203 68.1737 94.0203C68.0861 94.0203 68.0151 94.0851 68.0151 94.165C68.0151 94.2448 68.0861 94.3096 68.1737 94.3096Z" fill="#F2F2F2"/>
<path d="M91.1391 115.489L92.1061 113.652L84.7992 109.374L83.3719 112.086L91.1391 115.489Z" fill="#FFB8B8"/>
<path d="M95.8808 110.852C95.5489 110.707 95.1889 110.622 94.8212 110.604C94.4536 110.585 94.0855 110.633 93.7381 110.744C93.3907 110.855 93.0707 111.028 92.7965 111.252C92.5223 111.476 92.2992 111.748 92.14 112.051L91.4877 113.289L90.4818 115.201L90.2358 115.67L92.8451 116.813L95.9628 110.889L95.8808 110.852Z" fill="#2F2E41"/>
<path d="M90.7696 111.796L90.3469 112.621L89.2919 114.679L89.2664 114.73C87.0125 114.835 84.6091 114.15 82.4134 113.194C81.5348 112.812 80.6785 112.389 79.8478 111.926C78.6179 111.246 77.5246 110.543 76.6555 109.946C75.3472 109.043 74.5473 108.378 74.5473 108.378C74.5473 108.378 74.3068 108.548 73.8731 108.837C73.2918 109.224 72.3644 109.828 71.1945 110.533C70.7481 110.804 70.2695 111.086 69.7587 111.381C65.9942 113.54 60.6408 116.17 56.0873 116.725C48.09 117.701 49.9722 107.964 49.9722 107.964L56.3369 104.949L59.0391 105.449L62.0475 106.004L63.1134 106.202C63.1134 106.202 63.3157 106.132 63.6637 106.011C64.7843 105.62 67.4173 104.698 69.6913 103.873C70.8629 103.448 71.938 103.047 72.6614 102.759C75.2232 101.737 78.0913 104.214 78.0913 104.214L90.7696 111.796Z" fill="#2F2E41"/>
<path d="M38.3257 116.958C38.5691 116.907 38.7974 116.808 38.9943 116.668C39.1913 116.527 39.3522 116.35 39.4657 116.147C39.5791 115.944 39.6424 115.72 39.6511 115.493C39.6598 115.265 39.6136 115.038 39.5159 114.828L42.2491 112.285L40.9599 110.392L37.1553 114.034C36.78 114.207 36.4874 114.5 36.3329 114.857C36.1784 115.214 36.1727 115.61 36.317 115.97C36.4613 116.331 36.7454 116.63 37.1156 116.812C37.4859 116.994 37.9164 117.046 38.3257 116.958L38.3257 116.958Z" fill="#FFB8B8"/>
<path d="M51.5931 91.4674C53.9465 91.4674 55.8543 89.7268 55.8543 87.5797C55.8543 85.4325 53.9465 83.6919 51.5931 83.6919C49.2396 83.6919 47.3318 85.4325 47.3318 87.5797C47.3318 89.7268 49.2396 91.4674 51.5931 91.4674Z" fill="#FFB8B8"/>
<path d="M46.0493 98.3716L49.7613 107.973L49.739 108.007C49.2227 108.785 49.054 109.413 49.2511 109.823C49.3031 109.927 49.3791 110.02 49.4741 110.095C49.569 110.169 49.6806 110.224 49.8011 110.256L58.5854 104.654L58.2778 102.409L58.2949 102.384C59.144 101.144 59.4189 100.022 59.1122 99.0479C58.7142 97.7838 57.4494 97.2099 57.4367 97.2042L57.4061 97.1822L53.0248 92.3171L47.1681 93.2664L46.0493 98.3716Z" fill="#CCCCCC"/>
<path d="M40.4043 115.224L37.9176 112.432L43.9123 103.404L46.7072 95.5216L46.7939 95.5472L46.7072 95.5216C46.8599 95.091 47.112 94.6953 47.4464 94.3611C47.7809 94.0269 48.1901 93.762 48.6462 93.5843C49.1024 93.4066 49.5951 93.3201 50.091 93.3308C50.5869 93.3414 51.0745 93.449 51.521 93.6461C51.9675 93.8433 52.3625 94.1254 52.6794 94.4736C52.9962 94.8218 53.2276 95.2279 53.3579 95.6646C53.4882 96.1013 53.5143 96.5584 53.4346 97.005C53.3549 97.4517 53.1712 97.8776 52.8958 98.254L47.7647 105.268L40.4043 115.224Z" fill="#CCCCCC"/>
<path d="M57.645 86.7933H51.1827L51.1164 85.9469L50.7851 86.7933H49.7901L49.6587 85.1157L49.002 86.7933H47.0767V86.7102C47.0781 85.5422 47.5873 84.4225 48.4925 83.5966C49.3977 82.7707 50.6251 82.3061 51.9053 82.3048H52.8164C54.0965 82.3061 55.3239 82.7707 56.2291 83.5966C57.1344 84.4225 57.6435 85.5422 57.645 86.7102V86.7933Z" fill="#2F2E41"/>
<path d="M51.1299 92.0577C51.0812 92.0576 51.0327 92.0537 50.9848 92.046L46.2528 91.2843V84.1492H51.4618L51.3328 84.2864C49.5386 86.1955 50.8903 89.2913 51.8558 90.9667C51.927 91.0894 51.9587 91.228 51.9473 91.3664C51.936 91.5048 51.882 91.6375 51.7916 91.7492C51.7159 91.8447 51.6165 91.9224 51.5014 91.9761C51.3864 92.0297 51.2591 92.0577 51.1299 92.0577Z" fill="#2F2E41"/>
<path d="M119.591 79.5806C131.064 79.5806 140.364 71.0957 140.364 60.629C140.364 50.1624 131.064 41.6775 119.591 41.6775C108.119 41.6775 98.8192 50.1624 98.8192 60.629C98.8192 71.0957 108.119 79.5806 119.591 79.5806Z" fill="#3F3D56"/>
<path d="M114.281 53.2627V69.3867C114.276 69.4613 114.294 69.5357 114.332 69.602C114.37 69.6683 114.427 69.724 114.496 69.7632C114.566 69.8024 114.646 69.8236 114.728 69.8247C114.81 69.8258 114.891 69.8066 114.962 69.7693L128.971 61.7073C129.04 61.6656 129.096 61.6091 129.135 61.5428C129.174 61.4765 129.194 61.4025 129.194 61.3273C129.194 61.2522 129.174 61.1782 129.135 61.1119C129.096 61.0456 129.04 60.9891 128.971 60.9474L114.962 52.8854C114.892 52.8469 114.811 52.8267 114.729 52.827C114.647 52.8272 114.567 52.8478 114.497 52.8866C114.427 52.9255 114.369 52.981 114.331 53.0472C114.293 53.1135 114.276 53.188 114.281 53.2627Z" fill="#F2F2F2"/>
</g>
<defs>
<clipPath id="clip0_304_592">
<rect width="152" height="117" fill="white"/>
</clipPath>
</defs>
</svg>
